<?xml version="1.0" encoding="utf-8"?>
<!-- Generator: Adobe Illustrator 18.0.0, SVG Export Plug-In . SVG Version: 6.00 Build 0)  -->
<!DOCTYPE svg PUBLIC "-//W3C//DTD SVG 1.1//EN" "http://www.w3.org/Graphics/SVG/1.1/DTD/svg11.dtd">
<svg version="1.1" xmlns="http://www.w3.org/2000/svg" xmlns:xlink="http://www.w3.org/1999/xlink" x="0px" y="0px" width="500px"
	 height="500px" viewBox="0 0 500 500" enable-background="new 0 0 500 500" xml:space="preserve">
<g id="BACKGROUND" display="none">
	<rect display="inline" fill="#375163" width="500" height="500"/>
</g>
<g id="OBJECTS">
	<g id="Firework">
	</g>
	<g>
		<radialGradient id="SVGID_1_" cx="251.6922" cy="244.6167" r="198.8781" gradientUnits="userSpaceOnUse">
			<stop  offset="0" style="stop-color:#223061"/>
			<stop  offset="0.9821" style="stop-color:#223061"/>
		</radialGradient>
		<path fill="url(#SVGID_1_)" d="M32.2,288.2c0-121.2,98.3-219.5,219.5-219.5c121.2,0,219.5,98.3,219.5,219.5
			c0,49.7-16.5,95.5-44.3,132.3H76.5C48.7,383.7,32.2,337.9,32.2,288.2z"/>
		<g display="none">
			<defs>
				<path id="SVGID_2_" d="M32.2,288.2c0-121.2,98.3-219.5,219.5-219.5c121.2,0,219.5,98.3,219.5,219.5c0,49.7-16.5,95.5-44.3,132.3
					H76.5C48.7,383.7,32.2,337.9,32.2,288.2z"/>
			</defs>
			<clipPath id="SVGID_3_" display="inline">
				<use xlink:href="#SVGID_2_"  overflow="visible"/>
			</clipPath>
			<g display="inline" clip-path="url(#SVGID_3_)">
				<rect x="-9.9" y="70.8" fill="none" width="591.3" height="396.7"/>
				<text transform="matrix(1 0 0 1 -9.8706 88.5117)"><tspan x="0" y="0" fill="#5C7E7E" font-family="'Gotham-Book'" font-size="24.9413">0010110010101000110001010001100101010100100100</tspan><tspan x="0" y="29.9" fill="#5C7E7E" font-family="'Gotham-Book'" font-size="24.9413">1010010010010010100100100101001010010100100110</tspan><tspan x="0" y="59.9" fill="#5C7E7E" font-family="'Gotham-Book'" font-size="24.9413">0111001010101001100010100101010010101000101001</tspan><tspan x="0" y="89.8" fill="#5C7E7E" font-family="'Gotham-Book'" font-size="24.9413">010010110010101001</tspan><tspan x="0" y="119.7" fill="#5C7E7E" font-family="'Gotham-Book'" font-size="24.9413">0010110010101000110001010001100101010100100100</tspan><tspan x="0" y="149.6" fill="#5C7E7E" font-family="'Gotham-Book'" font-size="24.9413">1010010010010010100100100101001010010100100110</tspan><tspan x="0" y="179.6" fill="#5C7E7E" font-family="'Gotham-Book'" font-size="24.9413">0111001010101001100010100101010010101000101001</tspan><tspan x="0" y="209.5" fill="#5C7E7E" font-family="'Gotham-Book'" font-size="24.9413">010010110010101001</tspan><tspan x="0" y="239.4" fill="#5C7E7E" font-family="'Gotham-Book'" font-size="24.9413">0010110010101000110001010001100101010100100100</tspan><tspan x="0" y="269.4" fill="#5C7E7E" font-family="'Gotham-Book'" font-size="24.9413">1010010010010010100100100101001010010100100110</tspan><tspan x="0" y="299.3" fill="#5C7E7E" font-family="'Gotham-Book'" font-size="24.9413">0111001010101001100010100101010010101000101001</tspan><tspan x="0" y="329.2" fill="#5C7E7E" font-family="'Gotham-Book'" font-size="24.9413">010010110010101001</tspan></text>
			</g>
		</g>
		<path opacity="0.4" fill="#FFFFFF" d="M253.2,68.8L76.1,255l186.3,115.2l207.4-106.6C457.6,154.5,365.4,69.5,253.2,68.8z"/>
		<path fill="#B7A290" d="M398.8,258.2c0,0,43.8,0,46.2,0c9.1,0,26.7,13.2,16.6,57.8s-24.7,104.4-24.7,104.4H276l36.3-162.2H398.8z"
			/>
		<path fill="#957C6B" d="M385.7,393.3c-2.8,1.1-8,0-8,0c-0.9,7.2-4,24.7-4,24.7h-37.2l23-146.9l24.1-12.8H404c0,0,1,0,2.8,0
			c-7.5,9.5-20.1,20.1-31.3,27.1c-1.1,5.4-4.7,21.7-4.7,21.7c10.1-3,43.6-15.3,42.2,9.6C411.4,339.7,402.2,361.6,385.7,393.3z"/>
		<path fill="#957C6B" d="M444.9,258.2c9.1,0,26.7,13.2,16.6,57.8s-24.7,104.4-24.7,104.4h-40.1c0,0,14.5-61.5,25.9-110.6
			C434.1,260.8,438.8,258.2,444.9,258.2z"/>
		<g>
			<g>
				<path fill="#38302D" d="M383.4,172.6c7.4-0.1,29.1,1.7,32.6,13.7c2.6,10.9,1.4,32.7-3.2,47.3c-3.2,8.8-37.9,44.4-51.7,46
					c2-16.9,3.4-76.4,3.4-76.4L383.4,172.6z"/>
				<path fill="#201C1C" d="M361.2,279.5c0.4-3.1,0.7-7.6,1-12.9l20.2-35.3c1.1-4.8,3.1-12.6,3.1-14.4c6.8,2.2,10.9,14.5,13,24.3
					c3.3,0.5,10.4-3,14.3-7.6C409.7,242.4,374.9,277.9,361.2,279.5z"/>
				<path fill="#E0C1AD" d="M326.9,282.4l39.6-12.6l-8.7,40.5c-16,14.3-23.1,16.5-26,14.4l0,0c-6.3-3.5-4-15-1.2-19L326.9,282.4z"/>
				<path fill="#C08C72" d="M330.8,306.6l-3.9-24.2l39.6-12.6l-2,9.2C357.5,291.4,344.1,305.7,330.8,306.6z"/>
				<path fill="#E0C1AD" d="M285.1,210.9c0.9,16,1,36-2,53.4c5.3,15.8,36,31,54.2,25c17-6.6,28.2-15.8,32.9-22.9
					c5.3,6,19.6,4.1,25.8-17.5c2.4-9.4-4.8-21.3-20.6-16.5c1.7-8.4-6.3-38.3-6.3-38.3s-45.7-7.3-76.2,0.6
					C287.5,196.9,284.8,204.5,285.1,210.9z"/>
				<path fill="#B7795F" d="M318.1,258.1c-3.1-3-7.5-5.2-11.9-3.5c-2.4,0.8,0.5,4.9,0.5,4.9c1.1,1.5,8,1.6,11.9,0.6
					C319.3,259.6,318.1,258.1,318.1,258.1z"/>
				<path fill="#C08C72" d="M286.2,215l-1.1-3.8c0-0.1,0-0.2,0-0.3c-0.3-6.4,2.4-14,7.9-16.2c30.5-7.8,76.2-0.6,76.2-0.6
					s7.9,29.9,6.3,38.3c1.3,6.1-4.1,21.8-6.8,24c1.1-3.9,1.2-16.4,0.6-22.4c-1-7-2.8-17.1-4.9-24.8c-4.2,1.2-14.3,2.5-27.6,0.8
					C311.6,203.6,297,208.5,286.2,215z"/>
				<path fill="#38302D" d="M380.7,171.8c0.8-6.2,5.8-14.5,5.8-14.5c4.2-3.3,20.3-1.2,30.7,8.5c-7.9-2.2-28.6-1.5-34.4,9.4
					C380,175.6,380.7,171.8,380.7,171.8z"/>
				<path fill="#C08C72" d="M354.3,229.3l-24.6,3.9C331,233.6,349.6,235.1,354.3,229.3z"/>
				<circle fill="#C08C72" cx="341.8" cy="235.2" r="5.7"/>
				<path fill="#38302D" d="M329.7,233.2c0.9-2.3,7.2-5.1,13.9-5.5c3.5-0.2,8.7,1.2,10.7,1.6L329.7,233.2z"/>
				<circle fill="#38302D" cx="340.5" cy="234.5" r="5.7"/>
				<path fill="#C08C72" d="M289.9,228.6c0.3,1.5,1,2.9,4.5,4.3c2.7,1,10.6,3,10.6,3L289.9,228.6z"/>
				
					<ellipse transform="matrix(-0.9646 0.2636 -0.2636 -0.9646 647.4006 382.0952)" fill="#C08C72" cx="298.1" cy="234.5" rx="3.3" ry="4.6"/>
				<path fill="#38302D" d="M289.9,228.6c7.1-4.5,11.9,4.3,15.1,7.3L289.9,228.6z"/>
				
					<ellipse transform="matrix(-0.9646 0.2636 -0.2636 -0.9646 645.395 380.5865)" fill="#38302D" cx="297.2" cy="233.6" rx="3.3" ry="4.6"/>
				<path fill="#C08C72" d="M392.7,250.6c0.7-4.3,0.9-11.9-14.4-11.3c-1.1,1.3-2.9,5.3-2.9,5.3c4-0.6,13.1-3.1,15.3,1.5
					c0.5,1.5,1.1,4.4,1.2,6.7C392.4,252,392.7,250.6,392.7,250.6z"/>
				<path fill="#C08C72" d="M377.1,244.2c1.3,1,7.5,7.5-2.5,10c3.7,0.4,12.4-2.6,7-10.8C379.7,242.6,377.1,244.2,377.1,244.2z"/>
				<path fill="#FFFFFF" d="M310.9,242.4c-1.2,2.2-4.4,7.5-4.7,8.1c-0.2,0.8,5.9,1.7,6.6,0.3c0.8-1.7,0.8-9,0.8-9.8
					C313.5,239.9,311.9,240.6,310.9,242.4z"/>
				<g>
					<path fill="#F1E3D9" d="M330.1,230.4c0.5-0.9,1.2-1.6,2-2.3c0.8-0.6,1.6-1.2,2.4-1.7c0.9-0.5,1.7-0.9,2.7-1.3
						c0.9-0.4,1.9-0.7,2.9-0.8c-1.7,1-3.4,2-5,3l-2.5,1.5C331.7,229.3,330.9,229.8,330.1,230.4z"/>
				</g>
				<g>
					<path fill="#F1E3D9" d="M305.5,234.8c-0.3-0.6-0.7-1.2-1.1-1.7c-0.4-0.5-0.9-1.1-1.3-1.6c-0.4-0.5-0.9-1-1.4-1.6
						c-0.5-0.5-1-1-1.5-1.5c0.7,0.3,1.2,0.7,1.8,1.2c0.6,0.4,1.1,1,1.5,1.5c0.5,0.5,0.9,1.1,1.2,1.7
						C305.1,233.5,305.4,234.1,305.5,234.8z"/>
				</g>
				<g>
					<path fill="none" d="M306.6,231.9c0.2,2.8,0,5.2-0.6,7.3c0,0.1-0.1,0.1-0.1,0.2l-0.8,2l0,0c-1.3,2.5-3.5,4.3-6.3,5
						c-1.6,0.4-3.2,0.5-4.9,0.3c-3.6-0.7-6.4-2.6-8.3-5.7c0,0,0-0.1,0-0.1c0-1.3,1.6-15.2,1.6-15.2s0-0.1,0-0.3
						C296.1,223.8,303.4,229.1,306.6,231.9z"/>
					<path fill="none" d="M285.5,241c0,0,0,0.1,0,0.1c-0.6-0.9-1.1-1.9-1.5-3c-1.6-4-1.8-8.3-1.8-11c1.2-0.6,2.4-1,3.5-1.3l-0.7-2.5
						l0,0l0.7,2.5c0.5-0.1,0.9-0.2,1.4-0.3c0,0.2,0,0.3,0,0.3S285.5,239.7,285.5,241z"/>
					<path fill="none" d="M338.4,225c7.3-2,14.7-1.7,22.1,0.9c0.3,2.5,0.5,6.7-0.7,10.8c-1.8,6-6,9.8-12.7,11.6
						c-0.4,0.1-0.8,0.2-1.2,0.3c-4.5,0.6-10.7,0.6-15.1-3.3c-1.8-1.5-3.1-3.6-4-6.1l0.1-0.1l-0.2-0.2c-0.8-2.2-1.2-4.7-1.4-7.5
						C327.8,229.5,332.4,226.6,338.4,225z"/>
					<polygon fill="none" points="284.7,222 284.6,221.6 284.7,222 					"/>
					<path fill="#C08C72" d="M285.5,241.2c0,1.1-0.3,4.5-0.4,6.2c2.1,1.8,4.7,3.1,8,3.8c2.3,0.3,4.6,0.2,6.8-0.4
						c4.5-1.2,8.3-4.4,10.1-9.8c0.6-1.3,1.7-2,3.4-2.4c3.7-0.7,8.1,1.1,8.8,1.9l0.6,0.7c3.8,9.7,12.8,13.5,23.9,11.8
						c0.5-0.1,1.1-0.3,1.6-0.4c11.8-3.2,15.7-11.7,16.6-19c1.6-0.1,3.5-0.3,4.2-0.6c1.1-0.3,4.5-6.2,3.2-8.9
						c-2.3-1.2-11.7-3.9-18.5-4.3l0,0c-6.1-0.9-11.7-0.3-16.5,1.1c-7.6,2.1-13.4,5.9-16.5,8.5c0,2.1,0.1,4.1,0.4,5.9
						c-2.6-0.9-5.9-1.4-8.6-0.9c-0.6,0.1-1.1,0.3-1.6,0.4c0-1.5,0-3.1-0.2-4.8c-3.7-3.7-12.2-10.3-23-8.9c-0.2,1.6-0.5,3.7-0.6,4.5
						c9-1.7,16.2,3.5,19.4,6.4c0.2,2.8,0,5.2-0.6,7.3c0,0.1-0.1,0.1-0.1,0.2l-0.8,2l0,0c-1.3,2.5-3.5,4.3-6.3,5
						c-1.6,0.4-3.2,0.5-4.9,0.3C290.1,246.1,287.4,244.2,285.5,241.2z M325.2,231.4c2.6-1.9,7.2-4.7,13.2-6.4
						c7.3-2,14.7-1.7,22.1,0.9c0.3,2.5,0.5,6.7-0.7,10.8c-1.8,6-6,9.8-12.7,11.6c-0.4,0.1-0.8,0.2-1.2,0.3
						c-4.5,0.6-10.7,0.6-15.1-3.3c-1.8-1.5-3.1-3.6-4-6.1l0.1-0.1l-0.2-0.2C325.8,236.7,325.3,234.2,325.2,231.4z"/>
				</g>
				<path fill="#C08C72" d="M327.7,219.9c-1.2,0.3-2.5-0.1-3-1.3c-1-2.2-0.5-5.7,2.9-7.1c5.4-2.4,28.9-4.3,40.9,12.3
					C364.2,221.4,350.2,213.5,327.7,219.9z"/>
				<path fill="#38302D" d="M325.8,218.8c-0.9,0.3-2,0.1-2.5-0.7c-1.5-2.1-1.3-6,2.2-7.7c5.3-2.6,28.7-5.6,41.5,10.4
					C362.5,218.5,348.1,211.3,325.8,218.8z"/>
				<path fill="#C08C72" d="M306.7,213.1c-5.3-2.6-20-3.1-23,4.9c0.2,1.1,1.7,1.4,3.1,0.7c2.4-1.6,11.3-1.5,21.8,1.7
					C310.5,220.2,310.9,215.4,306.7,213.1z"/>
				<polygon fill="#38302D" points="366.8,199.5 366.8,199.5 366.8,199.5 				"/>
				<path fill="#38302D" d="M375.8,232.2c1-5.8-0.3-14.1-1.9-19.5c4.1-4.6,7-9,9-13.2l11.2,12.1c0,0-7.6,17.2-11.7,19.7
					c-1,5.7-10.3,21.7-12.2,22.6C370.2,253.9,374.9,236.7,375.8,232.2z"/>
				<path fill="#201C1C" d="M372.4,231.7c-0.1-7.3-5.6-32.2-5.6-32.2l16.7-26.9c3.5,7.2,4.5,16.3-0.6,26.9c-2,4.2-4.9,8.6-9,13.2
					c1.6,5.4,3,13.7,1.9,19.5c-0.9,4.5-5.6,21.8-5.6,21.8S371.6,239.3,372.4,231.7z"/>
				<path fill="#38302D" d="M382.3,169c2.7,6.8,7.4,20.2-14.9,33.5c-12.6,2.7-26.2,1.1-44.3-3.8c-7.6-2-22.5-3.3-31.2,0.6
					c-2.3,4.7-6.3,37.8-6.4,39.6c-10.9-13.2-24-36-27-49.2c0.8-7.3,7.7-26.2,7.7-26.2c3.6-5.7,49.1-28.7,70.9-32.5
					C347.9,128.8,365.2,133.1,382.3,169z"/>
				<g>
					<path fill="#201C1C" d="M364.2,184.5c0.8,0.2,1.7,0.4,2.5,0.5C365.9,184.9,365,184.7,364.2,184.5z"/>
				</g>
				<path fill="#201C1C" d="M258.6,189.7c0.4-3.4,2.1-9.4,3.8-14.7c14.5-12.3,41.5-14.2,52.2-7.1c23.2,17.7,36.4,19.3,50.1,19.7
					c-23.7,4-43.3-4.6-58.7-10.7c-18.9-6.9-41.8,9.7-45.7,18.6C259.6,193.5,259,191.5,258.6,189.7z"/>
				<path fill="#201C1C" d="M276.2,215.3c3.6-17.4,14.3-19.1,27.2-18.4l0,0c-4.2,0.2-8.2,1-11.5,2.4c-1.9,3.9-4.9,26.8-6,35.9l0,0
					C285.9,235.3,276.5,218.7,276.2,215.3z"/>
				<path fill="#38302D" d="M308.2,211.9c-5.1-3-19.8-4.5-23.2,3.2c0.2,1.1,1.6,1.5,3,0.9c2.5-1.4,11.4-0.7,21.7,3.3
					C311.6,219.2,312.3,214.4,308.2,211.9z"/>
				<g>
					<path fill="#201C1C" d="M390.1,220.2c-1.9,3.2-5.1,10.3-7.8,11.1c1.9-4.2,3.1-12.6,3.1-14.4
						C386.8,217.3,388.9,218.6,390.1,220.2z"/>
				</g>
				<path opacity="0.6" fill="#C7E0DF" d="M361.1,224c0,0-23.3-8.6-40,6.6c1.2,6.9,5.8,20.4,21.2,18.2
					C353.4,246.6,361.6,240.2,361.1,224z"/>
				<path opacity="0.6" fill="#C7E0DF" d="M306.4,230.5c-3.6-3.5-14.4-12.1-27.6-5.4c-0.4,5.5,1.5,18.8,12,21.6
					C296.2,247.7,306.8,245.6,306.4,230.5z"/>
				<circle fill="#FFFFFF" cx="332" cy="229.8" r="7.6"/>
				<circle fill="#FFFFFF" cx="284.9" cy="228.9" r="6.3"/>
				<g>
					<polygon fill="#292626" points="282.6,220.4 282.6,220.4 282.6,220.4 					"/>
					<path fill="#2B2929" d="M274.7,233.5c0.3,0.2,1.1,0.3,1.9,0.3c1.4,7,5.3,14.2,14.5,16c2.3,0.3,4.6,0.2,6.8-0.4
						c4.5-1.2,8.3-4.4,10.1-9.8c0.6-1.3,1.7-2.1,3.4-2.4c3.7-0.7,8.1,1.1,8.8,1.9l0.6,0.7c3.8,9.7,12.8,13.5,23.9,11.8
						c0.5-0.1,1.1-0.3,1.6-0.4c11.8-3.2,15.7-11.7,16.6-19c1.6-0.1,3.5-0.3,4.2-0.6c1.1-0.3,4.5-6.2,3.2-8.9
						c-2.3-1.2-11.7-3.9-18.5-4.3l0,0c-6.1-0.9-11.7-0.3-16.5,1.1c-7.6,2.1-13.4,5.9-16.5,8.5c0,2.1,0.1,4.1,0.4,5.9
						c-2.6-0.9-5.9-1.4-8.6-0.9c-0.6,0.1-1.1,0.3-1.6,0.4c0-1.5,0-3.1-0.2-4.8c-4.1-4.1-13.9-11.6-26.1-8.3l0,0l0.1,0.4h0l-0.1-0.4
						c-1.4,0.4-2.9,0.9-4.4,1.7c-2.9,1-5.3,2.1-6.2,2.8C271.1,227.6,273.8,233.3,274.7,233.5z M324.7,238l-0.1-0.1l-0.1-0.2
						c-0.8-2.2-1.2-4.7-1.4-7.5c2.6-1.9,7.2-4.7,13.2-6.4c7.3-2,14.7-1.7,22.1,0.9c0.3,2.5,0.5,6.7-0.7,10.8c-1.8,6-6,9.8-12.7,11.6
						c-0.4,0.1-0.8,0.2-1.2,0.3c-4.5,0.6-10.7,0.6-15.1-3.3C327,242.6,325.6,240.5,324.7,238z M280.2,225.9c1.2-0.6,2.4-1,3.5-1.3
						l-0.7-2.5l0,0l0.7,2.5c9.6-2.6,17.5,3.1,20.8,6.1c0.2,2.8,0,5.2-0.6,7.3c0,0.1-0.1,0.1-0.1,0.2l-0.8,2l0,0
						c-1.3,2.5-3.5,4.3-6.3,5c-1.6,0.4-3.2,0.5-4.9,0.3c-4.7-1-7.9-3.8-9.8-8.7C280.4,232.9,280.2,228.7,280.2,225.9z"/>
				</g>
				<polygon fill="#201C1C" points="282.6,220.4 282.6,220.4 282.6,220.4 				"/>
				<polygon fill="#201C1C" points="280.7,219.8 280.7,219.8 280.7,219.8 				"/>
				<g>
					<path fill="#1A1919" d="M332.6,246.4c-2-0.5-4-1.5-5.7-2.9c-1.8-1.5-3.1-3.6-4-6.1l0-0.1l-0.1-0.2c-0.8-2.2-1.2-4.7-1.4-7.5
						c2.6-1.9,7.2-4.7,13.2-6.4c7.3-2,14.7-1.7,22.1,0.9c0,0,0,0,0,0c-6.7-2-13.5-2.1-20.2-0.3c-6,1.6-10.6,4.5-13.2,6.4
						c0.1,2.8,0.6,5.3,1.4,7.5l0.1,0.2l0.1,0.1c0.9,2.5,2.3,4.6,4,6.1C329.9,245.2,331.2,245.9,332.6,246.4z"/>
					<path fill="#1A1919" d="M308.7,232.5c-0.6,0.1-1.1,0.3-1.6,0.4c0-1.5,0-3.1-0.2-4.8c-2.2-2.3-6.3-5.6-11.5-7.5
						c6.1,1.8,10.8,5.6,13.4,8.1c0.2,1.3,0.2,2.5,0.2,3.7C308.9,232.4,308.8,232.4,308.7,232.5z"/>
					<path fill="#1A1919" d="M289.2,244.8c-4.3-1.1-7.3-3.9-9.1-8.5c-1.6-4-1.8-8.3-1.8-11c1.2-0.6,2.4-1,3.5-1.3l-0.7-2.5l0,0
						l0.7,2.5c0.5-0.1,1.1-0.3,1.6-0.4l0.3,1c-1.2,0.3-2.4,0.8-3.5,1.3c0,2.7,0.2,7,1.8,11C283.5,240.8,285.9,243.4,289.2,244.8z"/>
					<path fill="#1A1919" d="M283.8,224.6l-0.3-1c3.9-0.7,7.5-0.1,10.6,1.1C291,223.9,287.5,223.6,283.8,224.6z"/>
					<path fill="#1A1919" d="M274.7,233.3c0,0.1,0,0.2,0.1,0.3c0,0-0.1,0-0.1,0c-0.1,0-0.2-0.1-0.4-0.3
						C274.4,233.2,274.6,233.2,274.7,233.3z"/>
					<path fill="#1A1919" d="M342.8,251.1c0.5-0.1,1.1-0.3,1.6-0.4c11.8-3.2,15.7-11.7,16.6-19c1.6-0.1,3.5-0.3,4.2-0.6
						c1.1-0.3,4.5-6.2,3.2-8.9c-0.4-0.2-1-0.5-1.8-0.7c1.7,0.5,3,1,3.7,1.4c1.3,2.7-2.1,8.6-3.2,8.9c-0.7,0.2-2.6,0.4-4.2,0.6
						c-0.9,7.4-4.8,15.8-16.6,19c-0.5,0.1-1,0.3-1.6,0.4c-5,0.7-9.5,0.4-13.4-1.1C334.7,251.5,338.6,251.7,342.8,251.1z"/>
					<path fill="#1A1919" d="M289.2,249.3c2.3,0.3,4.6,0.2,6.8-0.4c4.5-1.2,8.3-4.4,10.1-9.8c0.6-1.3,1.7-2.1,3.4-2.4
						c2.5-0.5,5.4,0.2,7.2,1c-1.6-0.4-3.5-0.7-5.3-0.3c-1.7,0.3-2.8,1.1-3.4,2.4c-1.8,5.3-5.6,8.5-10.1,9.8
						c-2.2,0.6-4.5,0.7-6.8,0.4c-1.2-0.2-2.3-0.6-3.3-1C288.3,249,288.7,249.2,289.2,249.3z"/>
				</g>
				
					<ellipse transform="matrix(-0.9646 0.2636 -0.2636 -0.9646 743.7876 381.8704)" fill="#FFFFFF" cx="346.3" cy="240.8" rx="2.9" ry="2"/>
				
					<ellipse transform="matrix(-0.9646 0.2636 -0.2636 -0.9646 641.1873 394.3381)" fill="#FFFFFF" cx="294.1" cy="240.2" rx="2.3" ry="1.6"/>
				<path fill="#FFFFFF" d="M365.8,224.5c-0.7-0.4-2.2-0.8-3.2-0.7c-0.6,0.3,0,3.1,0,3.1c0.4,0.4,2.4,0,2.5-0.1
					C365.5,226.4,366,225.5,365.8,224.5z"/>
				<path fill="#FFFFFF" d="M273.6,226.4c0.5-0.3,1.6-0.6,2.3-0.6c0.4,0.2,0.1,2.3,0.1,2.3c-0.3,0.3-1.8,0-1.9,0
					C273.8,227.8,273.4,227.1,273.6,226.4z"/>
				<g>
					<g>
						<path fill="#C08C72" d="M328.5,275.2c-0.5,0.5-1.1,0.9-1.7,1.2c-0.6,0.3-1.3,0.5-2,0.6c-0.7,0.1-1.4,0.2-2.1,0.2
							c-0.7,0-1.4-0.1-2.1-0.5l2-0.5c0.6-0.2,1.3-0.3,1.9-0.4C325.8,275.6,327.1,275.4,328.5,275.2z"/>
					</g>
					<g>
						<path fill="#95624E" d="M332,273.5c-0.7-0.6-1.5-0.9-2.3-1.1c-0.8-0.2-1.7-0.3-2.5-0.3c-1.7-0.1-3.4-0.1-5.2,0
							c-3.5,0.1-7,0.3-10.6,0.3c1.6-0.8,3.4-1.3,5.2-1.7c1.8-0.4,3.6-0.6,5.4-0.6c1.8,0,3.6,0.1,5.5,0.5c0.9,0.2,1.8,0.5,2.6,1
							C330.8,272,331.6,272.6,332,273.5z"/>
					</g>
				</g>
			</g>
		</g>
		<path fill="#A64D2E" d="M380.5,300.4c-15.7,1.8-21.5,4.5-21.5,4.5c-5.1,9-16.6,17.3-27.7,14.6c-3.1-1-3.9-7.5-0.5-12.9l-0.5-2.8
			c-2-0.7-5.5-1.9-7.4-2.3c-1.3,2.5-26.3,49.6-26.3,49.6c-2.4,10.3-23.9,66.9-23.9,66.9h87.9l15.9-80.5L380.5,300.4z"/>
		<path fill="#7F3520" d="M355,320.2l18,35l-9.7,49.1c-8.3,6.6-23.9,8.5-23.9,8.5h-60.4c0,0,10.2-6.3,9.2-17.4
			c8.1-2.1,38.6-17.4,44.4-21.6c0,0-1.3-2.5-1.9-3.6C333.8,363,348.5,333.7,355,320.2z"/>
		<path fill="#CCA795" d="M323,301.5c-7.4-3.1-30,10.3-39.6,21.4c-11.1,8.8-46.8,41.1-53.5,45.5c-8.6,5.1-37.5,32.9-63.8,34.3
			c0.5,6,4.7,5.1,4.7,5.1l45.9-1.5c26.1-9.9,75.9-49.4,80-55.1C303.6,339.4,323,301.5,323,301.5z"/>
		<path fill="#A64D2E" d="M323,301.5c-7.4-2.3-26.2,5-52.9,30.4c-4.5,4.2-21,19.3-21,19.3c4,8.1,15,21.3,23.7,22.5
			c22.7-20.2,23.9-22.7,23.9-22.7S320.5,314.6,323,301.5z"/>
		<path fill="#7F3520" d="M296.7,351.1c2.3-7,11.3-25.7,11.3-25.7c-10.9,12.2-18.7,30.3-45.6,44.8c0.8,3.6,5.8,6.5,5.8,6.5
			C272.8,373.8,291.3,357.5,296.7,351.1z"/>
		<path fill="#3F3F44" d="M276.7,412.8c-2.1-17.4-54.6-33.4-57.6,0C225.7,412.8,276.7,412.8,276.7,412.8z"/>
		<path fill="#E0C1AD" d="M369.3,303c-19.5,17.7-25,59.1-33.2,74.1c-8.6,6.4-45.4,17.2-52.4,18.5c-1.9,0.3-4,0.4-6,0.3
			c-9-3.4-17.9-6.9-23.2-7.8c-3.6-0.6-17.2-2.7-19.2-2.4c-2.4,0.3-10,9.2-10,9.2c0.7,1.7,3.7,2.4,7.1,0c2.1-1.5,3.6-2.9,3.6-2.9
			c2.9,0.5,6.1,1.1,6.1,1.1c-2.2,0.9-9.5,5.1-10,5.5c-1.6,1.2-6.3,5.4-6.3,5.4c-1.5,1.5,0.6,2.8,2.9,2c2.5-0.8,7.4-4.1,7.4-4.1
			c-0.9,0.6-4.6,4.3-5.1,5.5c-0.7,1.3-0.2,4.3,4.9,0.7c3-2.2,6.7-4.8,6.7-4.8c1-0.8,5-2.2,5-2.2c1.7-0.4,2.3-0.5,2.3-0.5
			c-2.7,1.2-6.3,4.3-6.3,4.3c-1,1-3.5,4.6-3.5,4.6c0.2,1.2,2.7,1.9,5.8-1.1c2.4-2.3,7.4-3.8,9.3-4.1c1.8-0.2,6.2,4.9,8,5.8
			c2.4,1.1,4.7,2,12.8,0.9c3.9,0.2,5.5,0.2,8.9,0.5c17.6,0.7,69-4.3,75.3-12.4c6.4-6.8,35.4-56.4,39.1-72.7
			C402.5,302.1,380.7,298.9,369.3,303z"/>
		<path fill="#A64D2E" d="M369.3,303c9.5-4.3,36.1-7.5,30.3,26.5c-2.5,10.8-24,57-24,57c-7.7,1.4-27-0.3-40.6-14.7
			C340.2,359.3,350,316.5,369.3,303z"/>
		<g>
			<path opacity="0.4" fill="#314EAA" d="M236,401.7c-0.3,0.2-0.8,0.7-1.5,1.3L236,401.7z"/>
			<path opacity="0.4" fill="#314EAA" d="M236,401.7c1.5-1,5.3-3.2,5.3-3.2c1.6-0.7,2.6-1.4,2.6-1.4c-1.4,0.2-3.2,0.7-4.4,1
				c-2.7,1.3-7.8,4.6-8.6,5.2c-0.9,0.5-4,2.5-5.5,2.2c0.5,0.6,1.8,0.8,3.1,0.3C231.1,405,236,401.7,236,401.7z"/>
			<path opacity="0.4" fill="#314EAA" d="M247.5,400.9c1.7-0.4,2.3-0.5,2.3-0.5c1-0.3,2-0.6,2-0.6c-1.2-0.3-2.6-0.5-3.8-0.3
				c-1.6,0.3-3,0.2-6.1,2.1c-1.4,1.2-8.2,7.7-10.5,7.9c0.8,0.2,2.1-0.1,4.3-1.6c3-2.2,6.7-4.8,6.7-4.8
				C243.6,402.3,247.5,400.9,247.5,400.9z"/>
		</g>
		<path fill="#FFFFFF" d="M271.7,199.5c5.9-6.6,21.8-17.2,55.2-4c-14.9-2.5-46.7-7.4-54.9,14.4c4.5,8.2,7.6,11.5,7.6,11.5
			c-1.5,0.6-4.7,3.2-4.2,4.9c0.5,1.7,2.2,16.7,13.3,20.5c-0.6,8.5-2.3,17.5-2.3,17.5c5.5,6.9,19.2,23.5,46,26
			c0.1,7.4-0.5,19.9-0.5,19.9l-1.2-3.6c-3.1-0.2-17.8-4.1-35.1,15.6s-71.9,62-71.9,62s-23.5,15.6-41.2,23l-11.8,0.4
			c0,0-4.2,0.9-4.7-5.1c26.3-1.4,55.2-29.1,63.8-34.3c2.8-1.8,10.6-8.5,19.6-16.3c-0.1-0.3-0.3-0.5-0.4-0.8c0,0,16.6-15.1,21-19.3
			c23.1-21.9,40.2-30.4,49.2-30.8c1.5-0.1,2.7,0,3.7,0.4c1.9,0.4,5.3,1.7,7.4,2.3l-2.1-13.2c-0.1,0-0.1,0-0.2,0c-0.2,0-0.5,0-0.7,0
			c-0.8,0-1.6-0.1-2.5-0.1c-0.6,0-1.1-0.1-1.7-0.2c-0.9-0.1-1.7-0.2-2.6-0.4c-2.8-0.5-5.7-1.3-8.5-2.3c-0.2-0.1-0.3-0.1-0.5-0.2
			c-0.2-0.1-0.5-0.2-0.7-0.3c-1.1-0.4-2.2-0.9-3.4-1.3c-2.5-1.1-5-2.3-7.3-3.7c-0.2-0.1-0.3-0.2-0.5-0.3c-4.9-3-9.2-6.5-12.3-10.2
			c0,0,0,0,0,0c-1.1-1.4-2.1-2.8-2.9-4.3c0,0,0,0,0-0.1c-0.2-0.4-0.5-0.9-0.7-1.4c0,0,0-0.1-0.1-0.1c-0.2-0.4-0.3-0.9-0.5-1.3
			c0-0.1-0.1-0.1-0.1-0.2c0,0,0,0,0,0c0,0,0,0,0,0c0,0,0,0,0,0l0,0c0.2-1.3,0.4-2.6,0.6-3.9c0.1-0.4,0.1-0.7,0.2-1.1
			c0.1-1,0.3-2,0.4-3c0-0.1,0-0.2,0-0.4c0-0.2,0.1-0.5,0.1-0.7c0.2-2.1,0.4-4.3,0.6-6.5c0,0,0,0,0-0.1c0-0.4,0-0.8,0.1-1.1
			c-5-3.1-7.4-8.4-8.5-13.7c-0.8-0.1-1.6-0.2-1.9-0.3c-0.1,0-0.1-0.1-0.2-0.1c-0.1-0.1-0.1-0.1-0.2-0.2c0,0,0,0,0,0l0,0
			c-1.1-1.3-3.1-6-2.3-8.3c0.5-0.4,1.4-0.8,2.6-1.4c-4.2-6.6-8.1-13.8-11.1-20.3c0,0,0,0,0,0c-0.4-0.8-0.7-1.6-1.1-2.4
			c0,0,0-0.1-0.1-0.1c-0.3-0.7-0.6-1.4-0.9-2.2c0-0.1-0.1-0.1-0.1-0.2c-0.3-0.7-0.5-1.4-0.8-2.1c0-0.1-0.1-0.2-0.1-0.4
			c-0.2-0.6-0.4-1.2-0.6-1.9c0-0.1,0-0.1-0.1-0.2c-0.2-0.6-0.4-1.3-0.6-1.9c0-0.1-0.1-0.3-0.1-0.4c0-0.1-0.1-0.3-0.1-0.4
			c0,0,0,0,0,0c-0.1-0.5-0.2-0.9-0.3-1.4c0-0.2,0.1-0.5,0.1-0.7c0-0.1,0-0.2,0-0.3c0-0.2,0.1-0.3,0.1-0.5c0-0.1,0-0.2,0.1-0.3
			c0-0.2,0.1-0.3,0.1-0.5c0-0.1,0-0.2,0.1-0.4c0-0.2,0.1-0.3,0.1-0.5c0,0,0-0.1,0-0.1c0-0.1,0-0.2,0.1-0.3c0-0.2,0.1-0.3,0.1-0.5
			c0-0.1,0.1-0.3,0.1-0.4c0-0.2,0.1-0.3,0.1-0.5c0-0.1,0.1-0.3,0.1-0.4c0-0.2,0.1-0.4,0.1-0.5c0-0.2,0.1-0.3,0.1-0.5
			c0-0.2,0.1-0.3,0.1-0.5c0-0.2,0.1-0.3,0.1-0.5c0-0.2,0.1-0.3,0.1-0.5c0-0.2,0.1-0.3,0.1-0.5c0.1-0.2,0.1-0.4,0.2-0.5
			c0-0.2,0.1-0.3,0.1-0.5c0-0.2,0.1-0.3,0.2-0.5c0.1-0.2,0.1-0.4,0.2-0.5c0-0.2,0.1-0.3,0.2-0.5c0-0.1,0.1-0.3,0.1-0.4
			c0,0,0-0.1,0-0.1c0.1-0.2,0.1-0.3,0.2-0.5c0.1-0.2,0.1-0.4,0.2-0.5c0.1-0.2,0.1-0.3,0.2-0.5c0.1-0.4,0.3-0.8,0.4-1.2
			c0-0.1,0.1-0.2,0.1-0.3v0c0.1-0.4,0.2-0.7,0.4-1.1c0.2-0.7,0.5-1.4,0.7-2.1c0.3-1,0.7-2,1-2.8c0.2-0.7,0.4-1.3,0.6-1.8
			c0.8-2.2,1.3-3.6,1.3-3.6c0.5-0.8,1.8-1.9,3.8-3.3c0.2-0.2,0.4-0.3,0.7-0.5c1.2-0.8,2.6-1.7,4.1-2.6c0.4-0.3,0.9-0.5,1.3-0.8
			c1.3-0.7,2.7-1.5,4.1-2.3c0.5-0.3,1-0.5,1.5-0.8c0.6-0.4,1.3-0.7,2-1.1c1.3-0.7,2.7-1.4,4.1-2.1c0.7-0.4,1.4-0.7,2.2-1.1
			c1-0.5,2.1-1,3.1-1.5c1-0.5,2.1-1,3.2-1.5c0.5-0.2,0.9-0.4,1.4-0.6c0.7-0.3,1.4-0.7,2.2-1c0.7-0.3,1.4-0.6,2-0.9
			c3.3-1.5,6.6-2.9,9.9-4.2c0.5-0.2,0.9-0.4,1.4-0.6c8.9-3.6,17.5-6.4,23.9-7.5c0,0,0,0,0,0c0.5-0.1,1-0.2,1.5-0.3
			c0.1,0,0.2,0,0.3,0c0.5-0.1,1.1-0.1,1.6-0.2c0,0,0,0,0,0c1.2-0.1,2.4-0.1,3.7,0.1l0,0c-22.8,7.2-49.5,21.5-65.2,31.3
			C274.7,168.1,269.5,190.9,271.7,199.5z"/>
		<g>
			<path fill="#777A82" d="M85.1,378.1h186.3c4.9,0,8.9-4,8.9-8.9V255c0-4.9-4-8.9-8.9-8.9H85.1c-4.9,0-8.9,4-8.9,8.9v114.1
				C76.1,374.1,80.1,378.1,85.1,378.1z"/>
			<path fill="#3F3F44" d="M73,378.1h186.3c4.9,0,8.9-4,8.9-8.9V255c0-4.9-4-8.9-8.9-8.9H73c-4.9,0-8.9,4-8.9,8.9v114.1
				C64,374.1,68,378.1,73,378.1z"/>
			<path fill="#37383B" d="M106.3,351.2H206c3.8,0,6.9-3.1,6.9-6.9v-56.7c0-3.8-3.1-6.9-6.9-6.9h-99.7c-3.8,0-6.9,3.1-6.9,6.9v56.7
				C99.5,348.2,102.6,351.2,106.3,351.2z"/>
			<path fill="#2C2D2F" d="M95.7,351.8h99.7c3.8,0,6.9-3.1,6.9-6.9v-56.7c0-3.8-3.1-6.9-6.9-6.9H95.7c-3.8,0-6.9,3.1-6.9,6.9V345
				C88.8,348.8,91.9,351.8,95.7,351.8z"/>
			<rect x="127.4" y="301" fill="#3D3E41" width="36.2" height="101.6"/>
			<rect x="127.4" y="301" fill="#252628" width="28.1" height="101.6"/>
			<rect x="107.2" y="402.6" fill="#777A82" width="112.9" height="9.8"/>
			<rect x="89.1" y="402.6" fill="#333438" width="112.9" height="9.8"/>
		</g>
		<rect x="47" y="412.4" fill="#957C6B" width="412.8" height="16.1"/>
		<path opacity="0.4" fill="#314EAA" d="M232.4,394.8c2.1-1.5,3.6-2.9,3.6-2.9c2.9,0.5,6.1,1.1,6.1,1.1c1.1-0.4,3.5-1.3,3.5-1.3
			c-1.6-0.6-9.6-2.3-9.6-2.3c-2,1.5-7.2,6.8-9.2,6.7C228.2,396.6,230.2,396.4,232.4,394.8z"/>
		<g>
			<path opacity="0.4" fill="#314EAA" d="M364.5,279l0.1-0.4c4.2-1.6,9.6-5.1,15.1-9.6c4.3-1,9-4.3,12.7-11.2
				c10.2-9.8,18.9-20.1,20.4-24.3c4.6-14.6,5.7-36.4,3.2-47.3c-3.3-11.3-23-13.5-31.3-13.7c7.4-8.4,25.3-8.8,32.5-6.8
				c-10.4-9.7-26.5-11.8-30.7-8.5c0,0-3.1,5.2-4.8,10.4c-13.5-27.8-27.1-36.1-37.5-37.1h0l0,0c-1.3-0.1-2.5-0.1-3.7-0.1c0,0,0,0,0,0
				c-0.6,0-1.1,0.1-1.6,0.2c-0.1,0-0.2,0-0.3,0c-0.5,0.1-1,0.2-1.5,0.3c0,0,0,0,0,0c-6.5,1.1-15,3.9-23.9,7.5
				c-0.5,0.2-0.9,0.4-1.4,0.6c-3.3,1.3-6.6,2.8-9.9,4.2c-0.7,0.3-1.4,0.6-2,0.9c-0.7,0.3-1.4,0.7-2.2,1c-0.5,0.2-0.9,0.4-1.4,0.6
				c-1.1,0.5-2.1,1-3.2,1.5c-1,0.5-2.1,1-3.1,1.5c-0.7,0.4-1.4,0.7-2.2,1.1c-0.9,0.4-1.7,0.9-2.6,1.3c14.5-0.3,30.8,4.9,53.7,21.2
				c8.1,7.1,36,20.2,44.4,13.7c-1.6,6.3-11,19-29.1,17.6c1.8,5.3,0.6,74.9-29.4,86.6c0.8,0.1,1.7,0.1,2.5,0.1c0.2,0,0.5,0,0.7,0
				c0.1,0,0.1,0,0.2,0c2.7,0,5.4-0.2,9.1-1.3c1.7,6.2,4.7,17.2,2.5,30.9c11.1-4.2,24.9-9.4,32.7,0c5.9,7.1-25.8,60.4-25.8,60.4
				c4.2,2.7,7.6,3.4,7.6,3.4c2.6,0.9,7.6,2.4,14.3,2.8c2.8,0.1,5.3,0,7.1-0.3c0,0,21.5-46.2,24-57c4.9-28.4-13-30.8-24.5-28.3
				c-11.7,1.7-16.2,3.8-16.2,3.8L364.5,279L364.5,279z"/>
			<path opacity="0.4" fill="#314EAA" d="M293.6,407.1c-2.2,0-12.9,0.4-17.2-0.5c-4.2,0.7-6.7,1.6-13.7-1.3c-3-1.8-6.7-4.3-10.5-2.3
				c-2.1,0.9-5.1,1.7-7.2,4.1c-0.9,1.2-2.9,3.1-3.9,3.1c1,0.3,2.8,0,4.8-2c2.4-2.3,7.4-3.8,9.3-4.1c1.8-0.2,6.2,4.9,8,5.8
				c2.4,1.1,4.7,2,12.8,0.9c3.9,0.2,5.5,0.2,8.9,0.5c17.6,0.7,69-4.3,75.3-12.4c1.6-1.7,4.6-6.1,8.4-12.1
				c-6.7-0.4-11.7-1.9-14.3-2.8C349.5,390.9,335.6,405.7,293.6,407.1z"/>
		</g>
	</g>
</g>
<g id="DESIGNED_BY_FREEPIK" display="none">
	<g id="XMLID_76_" display="inline">
		<g id="XMLID_929_">
			<path id="XMLID_958_" fill="#FFFFFF" d="M181.1,472.1c-0.2,0-0.4,0.1-0.6,0.3c-0.1,0.2-0.2,0.4-0.2,0.8v2.4
				c-0.3-0.3-0.6-0.6-0.9-0.7c-0.3-0.2-0.7-0.2-1.2-0.2c-0.8,0-1.5,0.3-2,0.8c-0.5,0.6-0.7,1.4-0.7,2.4c0,0.5,0.1,0.9,0.2,1.3
				c0.1,0.4,0.3,0.8,0.5,1.1c0.2,0.3,0.5,0.5,0.9,0.7c0.3,0.2,0.7,0.2,1.1,0.2c0.3,0,0.6,0,0.8-0.1c0.2-0.1,0.5-0.2,0.7-0.4
				c0.2-0.2,0.4-0.4,0.6-0.6v0.2c0,0.3,0.1,0.5,0.2,0.7c0.1,0.2,0.3,0.2,0.5,0.2c0.2,0,0.4-0.1,0.6-0.2c0.1-0.2,0.2-0.4,0.2-0.7
				v-7.1c0-0.3-0.1-0.5-0.2-0.7C181.5,472.2,181.3,472.1,181.1,472.1z M180,479c-0.1,0.3-0.3,0.5-0.6,0.7c-0.2,0.1-0.5,0.2-0.8,0.2
				c-0.3,0-0.5-0.1-0.8-0.2c-0.2-0.2-0.4-0.4-0.6-0.7c-0.1-0.3-0.2-0.7-0.2-1.1c0-0.4,0.1-0.8,0.2-1.1c0.1-0.3,0.3-0.6,0.5-0.7
				c0.2-0.2,0.5-0.3,0.8-0.3c0.3,0,0.5,0.1,0.8,0.2c0.2,0.2,0.4,0.4,0.6,0.7c0.1,0.3,0.2,0.7,0.2,1.1
				C180.2,478.3,180.2,478.7,180,479z"/>
			<path id="XMLID_954_" fill="#FFFFFF" d="M188.5,478.1c0.2-0.1,0.4-0.4,0.4-0.8c0-0.4-0.1-0.9-0.3-1.3c-0.2-0.4-0.6-0.8-1-1
				c-0.5-0.3-1-0.4-1.6-0.4c-0.5,0-0.9,0.1-1.3,0.2c-0.4,0.2-0.7,0.4-1,0.7c-0.3,0.3-0.5,0.6-0.6,1.1c-0.1,0.4-0.2,0.9-0.2,1.3
				c0,1,0.3,1.8,0.9,2.4c0.6,0.6,1.4,0.9,2.4,0.9c0.5,0,0.9-0.1,1.2-0.2c0.4-0.1,0.6-0.3,0.9-0.4c0.2-0.2,0.4-0.4,0.5-0.6
				c0.1-0.2,0.2-0.4,0.2-0.5c0-0.2-0.1-0.3-0.2-0.4c-0.1-0.1-0.2-0.1-0.4-0.1c-0.2,0-0.3,0-0.4,0.1c-0.2,0.2-0.4,0.3-0.5,0.5
				c-0.1,0.1-0.3,0.2-0.4,0.3c-0.2,0.1-0.3,0.2-0.5,0.2c-0.2,0-0.3,0.1-0.5,0.1c-0.3,0-0.6-0.1-0.8-0.2c-0.2-0.1-0.4-0.4-0.6-0.6
				c-0.1-0.3-0.2-0.6-0.2-1h3.2C187.9,478.2,188.2,478.2,188.5,478.1z M184.3,477.3c0.1-0.5,0.2-1,0.5-1.2c0.3-0.3,0.6-0.4,1-0.4
				c0.4,0,0.8,0.1,1,0.4c0.3,0.3,0.4,0.7,0.4,1.2H184.3z"/>
			<path id="XMLID_952_" fill="#FFFFFF" d="M193.9,477.6c-0.3-0.2-0.7-0.3-1.2-0.4c-0.4-0.1-0.8-0.2-1-0.3c-0.2-0.1-0.4-0.2-0.6-0.3
				c-0.1-0.1-0.2-0.2-0.2-0.4c0-0.2,0.1-0.3,0.3-0.5c0.2-0.1,0.4-0.2,0.7-0.2c0.3,0,0.5,0,0.7,0.1c0.2,0.1,0.3,0.2,0.4,0.4
				c0.2,0.2,0.3,0.3,0.4,0.4c0.1,0.1,0.3,0.1,0.4,0.1c0.2,0,0.4-0.1,0.5-0.2c0.1-0.1,0.2-0.3,0.2-0.5c0-0.2-0.1-0.3-0.2-0.5
				c-0.1-0.2-0.3-0.3-0.5-0.5c-0.2-0.1-0.5-0.3-0.8-0.4c-0.3-0.1-0.7-0.1-1.1-0.1c-0.5,0-1,0.1-1.4,0.3c-0.4,0.2-0.7,0.4-0.9,0.7
				c-0.2,0.3-0.3,0.6-0.3,0.9c0,0.4,0.1,0.7,0.3,0.9c0.2,0.2,0.5,0.5,0.8,0.6c0.4,0.2,0.8,0.3,1.4,0.4c0.5,0.1,0.8,0.2,1.1,0.4
				c0.2,0.1,0.3,0.3,0.3,0.6c0,0.2-0.1,0.4-0.3,0.5c-0.2,0.1-0.5,0.2-0.8,0.2c-0.4,0-0.7-0.1-0.9-0.2c-0.2-0.1-0.4-0.4-0.6-0.6
				c-0.1-0.1-0.2-0.3-0.3-0.4c-0.1-0.1-0.2-0.1-0.4-0.1c-0.2,0-0.4,0.1-0.5,0.2c-0.1,0.1-0.2,0.3-0.2,0.5c0,0.3,0.1,0.5,0.3,0.8
				c0.2,0.3,0.5,0.5,0.9,0.7c0.4,0.2,0.9,0.3,1.5,0.3c0.6,0,1.1-0.1,1.6-0.2c0.4-0.2,0.7-0.4,1-0.7c0.2-0.3,0.3-0.7,0.3-1.1
				c0-0.3-0.1-0.6-0.2-0.8C194.4,478,194.2,477.8,193.9,477.6z"/>
			<path id="XMLID_950_" fill="#FFFFFF" d="M196.5,474.5c-0.2,0-0.4,0.1-0.6,0.2c-0.1,0.2-0.2,0.4-0.2,0.7v4.6
				c0,0.3,0.1,0.6,0.2,0.7c0.1,0.2,0.3,0.3,0.6,0.3c0.2,0,0.4-0.1,0.6-0.2c0.2-0.2,0.2-0.4,0.2-0.7v-4.7c0-0.3-0.1-0.5-0.2-0.7
				C196.9,474.6,196.7,474.5,196.5,474.5z"/>
			<path id="XMLID_949_" fill="#FFFFFF" d="M196.5,472.2c-0.2,0-0.4,0.1-0.6,0.2c-0.2,0.1-0.2,0.3-0.2,0.6c0,0.3,0.1,0.4,0.2,0.6
				c0.2,0.1,0.4,0.2,0.6,0.2c0.2,0,0.4-0.1,0.6-0.2c0.2-0.1,0.2-0.3,0.2-0.6c0-0.3-0.1-0.5-0.2-0.6
				C196.9,472.3,196.7,472.2,196.5,472.2z"/>
			<path id="XMLID_945_" fill="#FFFFFF" d="M203.6,474.5c-0.2,0-0.4,0.1-0.5,0.2c-0.1,0.2-0.2,0.4-0.2,0.7v0.2
				c-0.3-0.4-0.6-0.7-0.9-0.8c-0.3-0.2-0.7-0.3-1.2-0.3c-0.4,0-0.7,0.1-1.1,0.2c-0.3,0.1-0.6,0.3-0.8,0.6c-0.2,0.3-0.4,0.6-0.6,1
				c-0.1,0.4-0.2,0.8-0.2,1.3c0,0.7,0.1,1.2,0.3,1.7c0.2,0.5,0.5,0.9,0.9,1.2c0.4,0.3,0.9,0.4,1.4,0.4c0.5,0,0.8-0.1,1.2-0.3
				c0.3-0.2,0.6-0.4,0.9-0.8c0,0.5,0,0.9,0,1.2c0,0.2-0.1,0.5-0.2,0.7c-0.1,0.2-0.3,0.4-0.5,0.5c-0.2,0.1-0.6,0.2-1,0.2
				c-0.2,0-0.4,0-0.5-0.1c-0.2,0-0.3-0.1-0.4-0.2c-0.1-0.1-0.2-0.2-0.3-0.3c-0.1-0.1-0.2-0.2-0.3-0.3c-0.2-0.2-0.4-0.3-0.6-0.3
				c-0.2,0-0.4,0.1-0.5,0.2c-0.1,0.1-0.2,0.3-0.2,0.5c0,0.3,0.1,0.5,0.4,0.8c0.2,0.2,0.6,0.4,1,0.6c0.4,0.2,0.9,0.2,1.5,0.2
				c0.6,0,1.1-0.1,1.5-0.2c0.4-0.1,0.7-0.3,1-0.6c0.3-0.3,0.4-0.6,0.6-1c0.1-0.4,0.2-0.9,0.2-1.4v-4.7c0-0.4-0.1-0.7-0.2-0.9
				C204.1,474.6,203.9,474.5,203.6,474.5z M202.6,478.9c-0.2,0.3-0.3,0.5-0.6,0.7c-0.2,0.1-0.5,0.2-0.8,0.2c-0.5,0-0.8-0.2-1.1-0.5
				c-0.3-0.3-0.4-0.8-0.4-1.5c0-0.6,0.1-1.2,0.4-1.5s0.6-0.5,1.1-0.5c0.5,0,0.9,0.2,1.1,0.6c0.3,0.4,0.4,0.9,0.4,1.5
				C202.8,478.3,202.7,478.6,202.6,478.9z"/>
			<path id="XMLID_944_" fill="#FFFFFF" d="M211,475.6c-0.2-0.3-0.4-0.6-0.8-0.8c-0.3-0.2-0.7-0.3-1.1-0.3c-0.4,0-0.8,0.1-1.2,0.3
				c-0.3,0.2-0.7,0.5-0.9,0.8v-0.2c0-0.2,0-0.4-0.1-0.5c-0.1-0.1-0.2-0.2-0.3-0.3c-0.1-0.1-0.2-0.1-0.4-0.1c-0.2,0-0.4,0.1-0.6,0.2
				c-0.1,0.2-0.2,0.4-0.2,0.7v4.7c0,0.3,0.1,0.6,0.2,0.7c0.2,0.2,0.3,0.3,0.6,0.3c0.2,0,0.4-0.1,0.6-0.2c0.2-0.2,0.2-0.4,0.2-0.7v-2
				c0-0.7,0-1.1,0.1-1.4c0.1-0.3,0.3-0.5,0.5-0.7c0.2-0.2,0.5-0.3,0.8-0.3c0.4,0,0.7,0.1,0.9,0.4c0.1,0.3,0.2,0.7,0.2,1.2v2.7
				c0,0.3,0.1,0.6,0.2,0.7c0.2,0.2,0.3,0.3,0.6,0.3c0.2,0,0.4-0.1,0.6-0.2c0.1-0.2,0.2-0.4,0.2-0.7v-3c0-0.4,0-0.6,0-0.9
				C211.2,476,211.1,475.8,211,475.6z"/>
			<path id="XMLID_939_" fill="#FFFFFF" d="M217.8,478.1c0.2-0.1,0.4-0.4,0.4-0.8c0-0.4-0.1-0.9-0.3-1.3c-0.2-0.4-0.6-0.8-1-1
				c-0.5-0.3-1-0.4-1.6-0.4c-0.5,0-0.9,0.1-1.3,0.2c-0.4,0.2-0.7,0.4-1,0.7c-0.3,0.3-0.5,0.6-0.6,1.1c-0.1,0.4-0.2,0.9-0.2,1.3
				c0,1,0.3,1.8,0.9,2.4c0.6,0.6,1.4,0.9,2.4,0.9c0.5,0,0.9-0.1,1.2-0.2c0.4-0.1,0.6-0.3,0.9-0.4c0.2-0.2,0.4-0.4,0.5-0.6
				c0.1-0.2,0.2-0.4,0.2-0.5c0-0.2-0.1-0.3-0.2-0.4c-0.1-0.1-0.2-0.1-0.4-0.1c-0.2,0-0.3,0-0.4,0.1c-0.2,0.2-0.4,0.3-0.5,0.5
				c-0.1,0.1-0.3,0.2-0.4,0.3c-0.2,0.1-0.3,0.2-0.5,0.2c-0.2,0-0.3,0.1-0.5,0.1c-0.3,0-0.6-0.1-0.8-0.2c-0.2-0.1-0.4-0.4-0.6-0.6
				c-0.1-0.3-0.2-0.6-0.2-1h3.2C217.3,478.2,217.6,478.2,217.8,478.1z M213.7,477.3c0.1-0.5,0.2-1,0.5-1.2c0.3-0.3,0.6-0.4,1-0.4
				c0.4,0,0.8,0.1,1,0.4c0.3,0.3,0.4,0.7,0.4,1.2H213.7z"/>
			<path id="XMLID_936_" fill="#FFFFFF" d="M224.2,472.1c-0.2,0-0.4,0.1-0.6,0.3c-0.1,0.2-0.2,0.4-0.2,0.8v2.4
				c-0.3-0.3-0.6-0.6-0.9-0.7c-0.3-0.2-0.7-0.2-1.2-0.2c-0.8,0-1.5,0.3-2,0.8c-0.5,0.6-0.7,1.4-0.7,2.4c0,0.5,0.1,0.9,0.2,1.3
				c0.1,0.4,0.3,0.8,0.5,1.1c0.2,0.3,0.5,0.5,0.9,0.7c0.3,0.2,0.7,0.2,1.1,0.2c0.3,0,0.6,0,0.8-0.1c0.2-0.1,0.5-0.2,0.7-0.4
				c0.2-0.2,0.4-0.4,0.6-0.6v0.2c0,0.3,0.1,0.5,0.2,0.7c0.1,0.2,0.3,0.2,0.5,0.2c0.2,0,0.4-0.1,0.6-0.2c0.1-0.2,0.2-0.4,0.2-0.7
				v-7.1c0-0.3-0.1-0.5-0.2-0.7C224.6,472.2,224.5,472.1,224.2,472.1z M223.1,479c-0.1,0.3-0.3,0.5-0.6,0.7
				c-0.2,0.1-0.5,0.2-0.8,0.2c-0.3,0-0.5-0.1-0.8-0.2c-0.2-0.2-0.4-0.4-0.6-0.7c-0.1-0.3-0.2-0.7-0.2-1.1c0-0.4,0.1-0.8,0.2-1.1
				c0.1-0.3,0.3-0.6,0.5-0.7c0.2-0.2,0.5-0.3,0.8-0.3c0.3,0,0.5,0.1,0.8,0.2c0.2,0.2,0.4,0.4,0.6,0.7c0.1,0.3,0.2,0.7,0.2,1.1
				C223.4,478.3,223.3,478.7,223.1,479z"/>
			<path id="XMLID_933_" fill="#FFFFFF" d="M233.6,474.9c-0.4-0.3-0.9-0.4-1.4-0.4c-0.5,0-0.9,0.1-1.2,0.3c-0.3,0.2-0.6,0.4-0.9,0.7
				v-2.5c0-0.3-0.1-0.5-0.2-0.7c-0.1-0.2-0.3-0.2-0.6-0.2c-0.2,0-0.4,0.1-0.6,0.3c-0.1,0.2-0.2,0.4-0.2,0.7v7.1
				c0,0.3,0.1,0.5,0.2,0.7c0.1,0.2,0.3,0.2,0.5,0.2c0.2,0,0.4-0.1,0.6-0.2c0.1-0.2,0.2-0.4,0.2-0.7V480c0.2,0.2,0.3,0.4,0.4,0.5
				c0.1,0.1,0.2,0.2,0.4,0.3c0.2,0.1,0.3,0.2,0.6,0.2c0.2,0.1,0.5,0.1,0.7,0.1c0.4,0,0.8-0.1,1.1-0.2c0.3-0.2,0.6-0.4,0.9-0.7
				c0.2-0.3,0.4-0.7,0.5-1.1c0.1-0.4,0.2-0.9,0.2-1.3c0-0.7-0.1-1.2-0.3-1.7C234.3,475.6,234,475.2,233.6,474.9z M232.8,479.3
				c-0.3,0.4-0.6,0.5-1.1,0.5c-0.5,0-0.9-0.2-1.2-0.5c-0.3-0.3-0.4-0.8-0.4-1.5c0-0.4,0.1-0.8,0.2-1.1c0.1-0.3,0.3-0.6,0.6-0.7
				c0.2-0.2,0.5-0.3,0.8-0.3c0.3,0,0.6,0.1,0.8,0.3c0.2,0.2,0.4,0.4,0.5,0.7c0.1,0.3,0.2,0.7,0.2,1.1
				C233.2,478.5,233.1,479,232.8,479.3z"/>
			<path id="XMLID_931_" fill="#FFFFFF" d="M240.5,474.6c-0.1-0.1-0.2-0.1-0.4-0.1c-0.2,0-0.3,0-0.4,0.1c-0.1,0.1-0.2,0.2-0.3,0.3
				c-0.1,0.2-0.2,0.4-0.3,0.7l-1.3,3.7l-1.4-4c-0.1-0.3-0.2-0.5-0.3-0.6c-0.1-0.1-0.3-0.2-0.5-0.2c-0.1,0-0.3,0-0.4,0.1
				c-0.1,0.1-0.2,0.2-0.3,0.3c-0.1,0.1-0.1,0.2-0.1,0.4c0,0.1,0.1,0.3,0.2,0.6l2,5l-0.1,0.4c-0.1,0.3-0.2,0.5-0.3,0.6
				c-0.1,0.1-0.2,0.2-0.3,0.3c-0.1,0.1-0.3,0.1-0.4,0.1c-0.1,0-0.2,0-0.3,0c-0.1,0-0.2,0-0.3,0c-0.2,0-0.4,0.1-0.5,0.2
				c-0.1,0.1-0.2,0.2-0.2,0.4c0,0.3,0.1,0.5,0.4,0.6c0.2,0.1,0.6,0.2,1.1,0.2c0.5,0,0.9-0.1,1.2-0.2c0.3-0.1,0.5-0.4,0.7-0.6
				c0.2-0.3,0.4-0.7,0.5-1.1l2.1-5.5c0.1-0.1,0.1-0.3,0.1-0.4c0-0.1,0.1-0.2,0.1-0.3c0-0.1,0-0.2-0.1-0.3
				C240.7,474.8,240.6,474.7,240.5,474.6z"/>
		</g>
		<g id="XMLID_365_">
			<g id="XMLID_380_">
				<path id="XMLID_928_" fill="#FFFFFF" d="M262.9,472.1c-0.5,0-1,0.1-1.3,0.2c-0.3,0.1-0.5,0.4-0.7,0.7c-0.1,0.3-0.2,0.7-0.2,1.2
					v0.5h-0.4c-0.5,0-0.8,0.2-0.8,0.6c0,0.2,0.1,0.3,0.2,0.4c0.1,0.1,0.3,0.2,0.6,0.2h0.4v4.3c0,0.3,0.1,0.6,0.2,0.7
					c0.2,0.2,0.3,0.3,0.6,0.3c0.2,0,0.4-0.1,0.6-0.3c0.2-0.2,0.2-0.4,0.2-0.7v-4.3h0.4c0.3,0,0.5,0,0.7-0.1c0.2-0.1,0.2-0.2,0.2-0.5
					c0-0.4-0.3-0.6-0.9-0.6h-0.4v-0.4c0-0.3,0-0.6,0.1-0.7c0.1-0.2,0.3-0.3,0.6-0.3c0.1,0,0.2,0,0.4,0c0.2,0,0.3,0,0.3,0
					c0.1,0,0.3-0.1,0.3-0.2c0.1-0.1,0.2-0.2,0.2-0.4C264.3,472.4,263.9,472.1,262.9,472.1z"/>
				<path id="XMLID_926_" fill="#FFFFFF" d="M268.1,474.8c-0.3-0.2-0.6-0.3-1-0.3c-0.3,0-0.6,0.1-0.8,0.3c-0.2,0.2-0.4,0.4-0.6,0.8
					c0-0.3-0.1-0.6-0.2-0.8c-0.1-0.2-0.3-0.3-0.6-0.3c-0.5,0-0.8,0.4-0.8,1.1v4.5c0,0.3,0.1,0.6,0.2,0.7c0.1,0.2,0.3,0.3,0.6,0.3
					c0.2,0,0.4-0.1,0.6-0.2c0.2-0.2,0.2-0.4,0.2-0.7v-1.4c0-0.5,0-0.9,0-1.2c0-0.3,0.1-0.6,0.2-0.9c0.1-0.2,0.2-0.4,0.4-0.6
					c0.1-0.1,0.3-0.2,0.6-0.2c0.2,0,0.4,0,0.6,0.1c0.2,0.1,0.4,0.1,0.4,0.1c0.2,0,0.3-0.1,0.4-0.2c0.1-0.1,0.2-0.3,0.2-0.5
					C268.6,475.2,268.4,475,268.1,474.8z"/>
				<path id="XMLID_922_" fill="#FFFFFF" d="M274.2,478.1c0.2-0.1,0.4-0.4,0.4-0.8c0-0.4-0.1-0.9-0.3-1.3c-0.2-0.4-0.6-0.8-1-1
					c-0.5-0.3-1-0.4-1.6-0.4c-0.5,0-0.9,0.1-1.3,0.2c-0.4,0.2-0.7,0.4-1,0.7c-0.3,0.3-0.5,0.6-0.6,1.1c-0.1,0.4-0.2,0.9-0.2,1.3
					c0,1,0.3,1.8,0.9,2.4c0.6,0.6,1.4,0.9,2.4,0.9c0.5,0,0.9-0.1,1.2-0.2c0.3-0.1,0.6-0.3,0.9-0.4c0.2-0.2,0.4-0.4,0.5-0.6
					c0.1-0.2,0.2-0.4,0.2-0.5c0-0.2,0-0.3-0.2-0.4c-0.1-0.1-0.2-0.1-0.4-0.1c-0.2,0-0.3,0-0.4,0.1c-0.2,0.2-0.4,0.3-0.5,0.4
					c-0.1,0.1-0.3,0.2-0.4,0.3c-0.2,0.1-0.3,0.2-0.5,0.2c-0.2,0-0.3,0.1-0.5,0.1c-0.3,0-0.6-0.1-0.8-0.2c-0.2-0.1-0.4-0.4-0.6-0.6
					c-0.1-0.3-0.2-0.6-0.2-1h3.2C273.6,478.2,273.9,478.2,274.2,478.1z M270,477.3c0.1-0.5,0.2-1,0.5-1.2c0.3-0.3,0.6-0.4,1-0.4
					c0.4,0,0.8,0.1,1,0.4c0.3,0.3,0.4,0.7,0.4,1.2H270z"/>
				<path id="XMLID_919_" fill="#FFFFFF" d="M280.9,478.1c0.2-0.1,0.4-0.4,0.4-0.8c0-0.4-0.1-0.9-0.3-1.3c-0.2-0.4-0.6-0.8-1-1
					c-0.5-0.3-1-0.4-1.6-0.4c-0.5,0-0.9,0.1-1.3,0.2c-0.4,0.2-0.7,0.4-1,0.7c-0.3,0.3-0.5,0.6-0.6,1.1c-0.1,0.4-0.2,0.9-0.2,1.3
					c0,1,0.3,1.8,0.9,2.4c0.6,0.6,1.4,0.9,2.4,0.9c0.5,0,0.9-0.1,1.2-0.2c0.3-0.1,0.6-0.3,0.9-0.4c0.2-0.2,0.4-0.4,0.5-0.6
					c0.1-0.2,0.2-0.4,0.2-0.5c0-0.2,0-0.3-0.2-0.4c-0.1-0.1-0.2-0.1-0.4-0.1c-0.2,0-0.3,0-0.4,0.1c-0.2,0.2-0.4,0.3-0.5,0.4
					c-0.1,0.1-0.3,0.2-0.4,0.3c-0.2,0.1-0.3,0.2-0.5,0.2c-0.2,0-0.3,0.1-0.5,0.1c-0.3,0-0.6-0.1-0.8-0.2c-0.2-0.1-0.4-0.4-0.6-0.6
					c-0.1-0.3-0.2-0.6-0.2-1h3.2C280.4,478.2,280.7,478.2,280.9,478.1z M276.8,477.3c0.1-0.5,0.2-1,0.5-1.2c0.3-0.3,0.6-0.4,1-0.4
					c0.4,0,0.8,0.1,1,0.4c0.3,0.3,0.4,0.7,0.4,1.2H276.8z"/>
				<path id="XMLID_390_" fill="#FFFFFF" d="M286.9,474.9c-0.4-0.3-0.9-0.4-1.4-0.4c-0.4,0-0.8,0.1-1.1,0.3c-0.3,0.2-0.6,0.5-1,0.8
					v-0.2c0-0.3-0.1-0.5-0.2-0.7c-0.1-0.2-0.3-0.2-0.6-0.2c-0.2,0-0.4,0.1-0.6,0.2c-0.1,0.2-0.2,0.4-0.2,0.7v7
					c0,0.4,0.1,0.6,0.1,0.8c0.1,0.2,0.3,0.3,0.6,0.3c0.5,0,0.8-0.4,0.8-1.1V480c0.3,0.4,0.6,0.6,0.9,0.8c0.3,0.2,0.7,0.3,1.2,0.3
					c0.4,0,0.7-0.1,1.1-0.2c0.3-0.2,0.6-0.4,0.9-0.7c0.2-0.3,0.4-0.6,0.6-1c0.1-0.4,0.2-0.9,0.2-1.4c0-0.7-0.1-1.3-0.4-1.8
					C287.7,475.6,287.3,475.2,286.9,474.9z M286.5,478.9c-0.1,0.3-0.3,0.5-0.6,0.7c-0.2,0.2-0.5,0.2-0.7,0.2c-0.5,0-0.8-0.2-1.1-0.5
					c-0.3-0.4-0.5-0.9-0.5-1.5c0-0.7,0.2-1.2,0.5-1.6c0.3-0.3,0.7-0.5,1.1-0.5c0.3,0,0.5,0.1,0.8,0.2c0.2,0.2,0.4,0.4,0.5,0.7
					c0.1,0.3,0.2,0.7,0.2,1.1C286.7,478.2,286.6,478.6,286.5,478.9z"/>
				<path id="XMLID_389_" fill="#FFFFFF" d="M289.9,474.5c-0.2,0-0.4,0.1-0.6,0.2c-0.1,0.2-0.2,0.4-0.2,0.7v4.6
					c0,0.3,0.1,0.6,0.2,0.7c0.2,0.2,0.3,0.3,0.6,0.3c0.2,0,0.4-0.1,0.6-0.3c0.2-0.2,0.2-0.4,0.2-0.7v-4.7c0-0.3-0.1-0.5-0.2-0.7
					C290.3,474.6,290.1,474.5,289.9,474.5z"/>
				<path id="XMLID_388_" fill="#FFFFFF" d="M289.9,472.2c-0.2,0-0.4,0.1-0.6,0.2c-0.2,0.1-0.2,0.3-0.2,0.6c0,0.3,0.1,0.4,0.2,0.6
					c0.2,0.1,0.4,0.2,0.6,0.2c0.2,0,0.4-0.1,0.6-0.2c0.2-0.1,0.2-0.3,0.2-0.6c0-0.3-0.1-0.5-0.2-0.6
					C290.3,472.3,290.1,472.2,289.9,472.2z"/>
				<path id="XMLID_387_" fill="#FFFFFF" d="M297.3,479.6l-1.7-2.6l0.9-0.8c0.4-0.4,0.7-0.7,0.7-1c0-0.2-0.1-0.4-0.2-0.5
					c-0.1-0.1-0.3-0.2-0.5-0.2c-0.2,0-0.3,0-0.4,0.1c-0.1,0.1-0.3,0.3-0.5,0.5l-1.8,1.9v-3.9c0-0.3-0.1-0.6-0.2-0.8
					c-0.1-0.2-0.3-0.3-0.6-0.3c-0.3,0-0.5,0.1-0.6,0.3c-0.1,0.2-0.2,0.5-0.2,0.8v6.9c0,0.3,0.1,0.6,0.2,0.7c0.1,0.2,0.3,0.3,0.6,0.3
					c0.2,0,0.4-0.1,0.6-0.3c0.2-0.2,0.2-0.4,0.2-0.7v-1.3l0.9-0.8l1.4,2.4c0.2,0.3,0.3,0.5,0.4,0.6c0.1,0.1,0.3,0.2,0.5,0.2
					c0.2,0,0.4-0.1,0.6-0.2c0.1-0.2,0.2-0.4,0.2-0.6c0-0.1,0-0.2-0.1-0.3C297.5,479.9,297.4,479.8,297.3,479.6z"/>
				<path id="XMLID_386_" fill="#FFFFFF" d="M299.4,479.3c-0.3,0-0.5,0.1-0.6,0.3c-0.2,0.2-0.3,0.4-0.3,0.6c0,0.3,0.1,0.5,0.3,0.7
					c0.2,0.2,0.4,0.2,0.6,0.2c0.2,0,0.4-0.1,0.6-0.2c0.2-0.2,0.3-0.4,0.3-0.7c0-0.2-0.1-0.5-0.3-0.6
					C299.9,479.4,299.7,479.3,299.4,479.3z"/>
				<path id="XMLID_385_" fill="#FFFFFF" d="M306.8,478.4c-0.2,0-0.3,0.1-0.4,0.2c-0.1,0.1-0.2,0.2-0.3,0.4
					c-0.2,0.3-0.4,0.5-0.6,0.7c-0.2,0.2-0.5,0.2-0.8,0.2c-0.2,0-0.5,0-0.7-0.1c-0.2-0.1-0.4-0.2-0.5-0.4c-0.1-0.2-0.3-0.4-0.3-0.7
					c-0.1-0.3-0.1-0.5-0.1-0.8c0-0.6,0.1-1.2,0.4-1.5c0.3-0.4,0.7-0.6,1.2-0.6c0.3,0,0.6,0.1,0.8,0.2c0.2,0.1,0.4,0.4,0.6,0.7
					c0.1,0.2,0.2,0.3,0.3,0.3c0.1,0.1,0.2,0.1,0.3,0.1c0.2,0,0.4-0.1,0.5-0.2c0.1-0.1,0.2-0.3,0.2-0.5c0-0.2-0.1-0.4-0.2-0.6
					c-0.1-0.2-0.3-0.4-0.6-0.6c-0.2-0.2-0.5-0.4-0.9-0.5c-0.4-0.1-0.7-0.2-1.2-0.2c-0.7,0-1.3,0.1-1.7,0.4c-0.5,0.3-0.9,0.7-1.1,1.2
					c-0.3,0.5-0.4,1.1-0.4,1.8c0,1,0.3,1.8,0.8,2.3c0.6,0.6,1.3,0.9,2.3,0.9c0.5,0,0.9-0.1,1.3-0.2c0.4-0.1,0.7-0.3,0.9-0.5
					c0.2-0.2,0.4-0.4,0.6-0.7c0.1-0.2,0.2-0.4,0.2-0.6c0-0.2-0.1-0.3-0.2-0.5C307.2,478.5,307,478.4,306.8,478.4z"/>
				<path id="XMLID_382_" fill="#FFFFFF" d="M313.6,475.5c-0.3-0.3-0.6-0.5-1-0.7c-0.4-0.2-0.8-0.2-1.3-0.2c-0.5,0-0.9,0.1-1.3,0.2
					c-0.4,0.2-0.7,0.4-1,0.7c-0.3,0.3-0.5,0.6-0.6,1c-0.1,0.4-0.2,0.9-0.2,1.3c0,0.5,0.1,0.9,0.2,1.3c0.2,0.4,0.4,0.7,0.7,1
					c0.3,0.3,0.6,0.5,1,0.7c0.4,0.2,0.8,0.2,1.3,0.2c0.5,0,0.9-0.1,1.3-0.2c0.4-0.2,0.7-0.4,1-0.7c0.3-0.3,0.5-0.6,0.7-1
					c0.1-0.4,0.2-0.9,0.2-1.3c0-0.5-0.1-0.9-0.2-1.3C314.1,476.1,313.9,475.7,313.6,475.5z M312.5,479.4c-0.3,0.4-0.7,0.6-1.2,0.6
					c-0.3,0-0.6-0.1-0.8-0.3c-0.2-0.2-0.4-0.4-0.6-0.7c-0.1-0.3-0.2-0.7-0.2-1.1c0-0.4,0.1-0.8,0.2-1.1c0.1-0.3,0.3-0.6,0.6-0.7
					c0.2-0.2,0.5-0.2,0.8-0.2c0.5,0,0.9,0.2,1.2,0.6c0.3,0.4,0.4,0.9,0.4,1.5C312.9,478.5,312.7,479,312.5,479.4z"/>
				<path id="XMLID_381_" fill="#FFFFFF" d="M323.6,474.8c-0.3-0.2-0.7-0.3-1.1-0.3c-0.4,0-0.7,0.1-1,0.2c-0.3,0.2-0.6,0.4-0.9,0.7
					c-0.2-0.3-0.4-0.6-0.7-0.7c-0.3-0.2-0.6-0.2-1-0.2c-0.4,0-0.7,0.1-1.1,0.2c-0.3,0.2-0.6,0.4-0.9,0.7v-0.2c0-0.3-0.1-0.5-0.2-0.6
					c-0.2-0.1-0.3-0.2-0.6-0.2c-0.2,0-0.4,0.1-0.6,0.2c-0.1,0.2-0.2,0.4-0.2,0.7v4.6c0,0.3,0.1,0.6,0.2,0.8c0.2,0.2,0.4,0.3,0.6,0.3
					c0.2,0,0.4-0.1,0.6-0.3c0.1-0.2,0.2-0.4,0.2-0.8v-2.2c0-0.7,0.1-1.2,0.3-1.6c0.2-0.4,0.5-0.6,1-0.6c0.3,0,0.5,0.1,0.6,0.2
					c0.1,0.1,0.2,0.3,0.2,0.6c0,0.2,0,0.5,0,1v2.6c0,0.3,0.1,0.6,0.2,0.8c0.1,0.2,0.3,0.3,0.6,0.3c0.3,0,0.5-0.1,0.6-0.3
					c0.2-0.2,0.2-0.4,0.2-0.8V478c0-0.7,0.1-1.2,0.2-1.5c0.1-0.2,0.3-0.4,0.5-0.5c0.2-0.1,0.4-0.2,0.6-0.2c0.3,0,0.5,0.1,0.6,0.2
					c0.1,0.1,0.2,0.3,0.2,0.5c0,0.2,0,0.5,0,0.8v2.7c0,0.3,0.1,0.6,0.2,0.8c0.2,0.2,0.4,0.3,0.6,0.3c0.3,0,0.5-0.1,0.6-0.3
					c0.2-0.2,0.2-0.4,0.2-0.8v-3.2c0-0.6-0.1-1.1-0.2-1.4C324.1,475.2,323.9,475,323.6,474.8z"/>
			</g>
			<g id="XMLID_366_">
				<path id="XMLID_379_" fill="#FFFFFF" d="M245.3,477.4C245.3,477.4,245.3,477.4,245.3,477.4C245.3,477.4,245.3,477.4,245.3,477.4
					z"/>
				<path id="XMLID_378_" fill="#FFFFFF" d="M245.4,478C245.4,478,245.4,478,245.4,478c0-0.1-0.1-0.3-0.1-0.4
					C245.3,477.7,245.3,477.8,245.4,478z"/>
				<path id="XMLID_377_" fill="#FFFFFF" d="M245.9,479.5C245.9,479.5,245.9,479.5,245.9,479.5C245.9,479.5,245.9,479.5,245.9,479.5
					z"/>
				<path id="XMLID_376_" fill="#FFFFFF" d="M245.8,479.4C245.8,479.3,245.8,479.3,245.8,479.4C245.8,479.3,245.8,479.3,245.8,479.4
					z"/>
				<path id="XMLID_375_" fill="#FFFFFF" d="M245.5,478.5c0.1,0.3,0.2,0.5,0.3,0.7C245.7,479,245.6,478.8,245.5,478.5L245.5,478.5z"
					/>
				<path id="XMLID_374_" fill="#FFFFFF" d="M250.7,470.7l-0.1-0.3c0.3-0.1,0.5-0.3,0.5-0.6c0-0.4-0.3-0.7-0.7-0.7
					c-0.4,0-0.7,0.3-0.7,0.7c0,0.3,0.2,0.6,0.5,0.6l0.1,0.3c-1,0.1-1.8,0.5-1.8,0.5l0.1,0.4c0.6-0.2,1.2-0.3,1.6-0.4
					c0.5-0.1,0.8-0.1,1.1-0.1c0.3,0,0.5,0,0.8,0.1l0.1-0.5C252.4,470.8,251.7,470.6,250.7,470.7z"/>
				<path id="XMLID_373_" fill="#FFFFFF" d="M245.5,473.2c0,0-0.5,0.5-0.9,1.3c0,0,0-0.1-0.1-0.1c-0.1-0.1-0.3-0.2-0.5-0.2
					c0,0,0,0,0,0c-0.1,0-0.2,0-0.3-0.1c0.1-0.1,0.1-0.2,0.1-0.3c0-0.2-0.2-0.4-0.4-0.4c-0.2,0-0.4,0.2-0.4,0.4
					c0,0.2,0.2,0.4,0.4,0.4c0,0,0.1,0,0.1,0c0.1,0.1,0.3,0.2,0.5,0.2c0.1,0,0.2,0,0.3,0.1c0.1,0.1,0.1,0.2,0.1,0.3c0,0,0,0,0,0
					c-0.3,0.7-0.2,1.7-0.2,1.7l0.7,0c0-0.3,0.1-0.9,0.2-1.4c0.3-0.9,0.7-1.5,0.8-1.5l0,0c0,0,0-0.1,0.1-0.1l-0.2-0.1L245.5,473.2z"
					/>
				<path id="XMLID_372_" fill="#FFFFFF" d="M257.3,471.8c-0.2,0-0.4,0.2-0.4,0.4c0,0,0,0.1,0,0.1c-0.1,0.1-0.2,0.3-0.2,0.5
					c0,0.1,0,0.2-0.1,0.3c-0.1,0-0.1,0.1-0.2,0.1c-0.5-0.7-1.1-1.1-1.1-1.1l-0.5,0.5c0.4,0.3,0.7,0.7,1.1,1.2
					c0.2,0.4,0.5,0.8,0.7,1.3l0.6-0.3c0,0-0.3-0.7-0.7-1.4c0.1,0,0.1-0.1,0.2-0.1c0.1-0.1,0.2-0.3,0.2-0.5c0-0.1,0-0.2,0.1-0.3
					c0.1,0.1,0.2,0.1,0.3,0.1c0.2,0,0.4-0.2,0.4-0.4C257.7,472,257.5,471.8,257.3,471.8z"/>
				<path id="XMLID_371_" fill="#FFFFFF" d="M255.6,477.5c-0.9,0.4-2.3,1-4.2,1.3c-0.7,0.1-1.5,0.1-2.1,0.1c-0.9,0-1.6-0.1-2.2-0.1
					c-0.7-0.1-1.2-0.2-1.5-0.3c0.1,0.2,0.2,0.5,0.3,0.7c0,0,0,0,0,0c0,0,0,0.1,0,0.1c0,0,0,0.1,0,0.1c0,0,0,0,0,0
					c0.2,0.4,0.4,0.7,0.7,1c0.9,1,1.8,1.1,1.8,1.1l0,0l0,0c0,0,0.8,0.3,2.1,0.3c1.2,0,2.4-0.2,3.5-0.7c0.8-0.4,1.6-1.1,2-1.7
					c0.3-0.5,0.5-0.9,0.7-1.4c0.1-0.3,0.1-0.7,0.1-1.1C256.6,477,256.2,477.3,255.6,477.5z"/>
				<path id="XMLID_367_" fill="#FFFFFF" d="M252.3,471.7c-0.3,0-0.5-0.1-0.8-0.1c-0.3,0-0.6,0-1.1,0.1c-0.5,0-1,0.2-1.6,0.4
					c-0.8,0.3-1.6,0.7-2.2,1.3l0,0c-0.1,0.1-0.3,0.3-0.5,0.5c0,0-0.4,0.6-0.7,1.4c-0.2,0.6-0.2,1.5-0.2,1.5v0c0,0.2,0,0.4,0,0.6
					c0,0,0,0,0,0c0,0,0,0.1,0,0.1c0,0.1,0,0.3,0.1,0.4c0.4,0.1,3,0.7,6,0.3c1.8-0.3,3.2-0.8,4.1-1.2c0.7-0.3,1.2-0.6,1.3-0.8
					c-0.2-0.6-0.7-1.6-1.1-2.3C254.4,472.2,253,471.8,252.3,471.7z M248.7,476.9c-1,0-1.8-0.8-1.8-1.8c0-1,0.8-1.8,1.8-1.8
					c1,0,1.8,0.8,1.8,1.8C250.4,476.1,249.7,476.9,248.7,476.9z M253.8,475.6c-0.6,0-1.1-0.5-1.1-1.1c0-0.6,0.5-1.1,1.1-1.1
					c0.6,0,1.1,0.5,1.1,1.1C254.9,475.1,254.4,475.6,253.8,475.6z"/>
			</g>
		</g>
	</g>
</g>
</svg>
