<?xml version="1.0" standalone="no"?>
<!DOCTYPE svg PUBLIC "-//W3C//DTD SVG 1.1//EN" "http://www.w3.org/Graphics/SVG/1.1/DTD/svg11.dtd" >
<svg>
<metadata>
Created by FontForge 20090622 at Tue May 28 09:54:53 2019
 By deploy user
Copyright (c) 2018 by Fontcraft : Jutipong Poosumas. All rights reserved.
</metadata>
<defs>
<font id="FCActiveRegular" horiz-adv-x="0" >
  <font-face 
    font-family="FC Active"
    font-weight="400"
    font-stretch="normal"
    units-per-em="2048"
    panose-1="2 0 0 0 0 0 0 0 0 0"
    ascent="1638"
    descent="-410"
    x-height="826"
    cap-height="1126"
    bbox="-835 -676 1280 1582"
    underline-thickness="72"
    underline-position="-149"
    unicode-range="U+0020-U+25CC"
  />
<missing-glyph horiz-adv-x="1536" 
d="M256 0v1280h1024v-1280h-1024zM1238 32q10 0 10 10v1196q0 10 -10 10h-940q-10 0 -10 -10v-1196q0 -10 10 -10h940z" />
    <glyph glyph-name="quotedblleft" unicode="&#x91;&#x91;" horiz-adv-x="634" 
d="M110 1204h144l-11 -330h-122zM380 1204h144l-11 -330h-122z" />
    <glyph glyph-name="quotedblright" unicode="&#x92;&#x92;" horiz-adv-x="634" 
d="M110 1204h144l-11 -330h-122zM380 1204h144l-11 -330h-122z" />
    <glyph glyph-name="rulakkhangyao" unicode="&#xc4;&#xd2;" horiz-adv-x="1295" 
d="M968 873q54 0 98 -15.5t74.5 -45.5t47.5 -74t17 -102v-936h-117v941q0 20 -8 40t-24 36t-39.5 26.5t-54.5 11.5q-61 2 -111.5 -5.5t-105.5 -22.5q22 -47 22 -101v-926h-116v926q0 20 -8.5 42t-27.5 41t-50.5 32t-77.5 15q-35 1 -68.5 1t-68 -2t-72 -6.5t-81.5 -11.5
l16 -173v-384q0 -41 12.5 -53t38.5 -12h95v-116h-95q-79 0 -123 47.5t-44 133.5v382l-17 271q104 20 207.5 31.5t214.5 7.5q43 -2 83 -14t74 -34q73 22 152.5 35.5t156.5 13.5z" />
    <glyph glyph-name="lulakkhangyao" unicode="&#xc6;&#xd2;" horiz-adv-x="1319" 
d="M992 873q54 0 98 -15.5t74.5 -45.5t47.5 -74t17 -102v-936h-117v941q0 20 -8 40t-24 36t-39.5 26.5t-54.5 11.5q-60 2 -110.5 -5.5t-105.5 -21.5q23 -46 23 -102v-926h-117v926q0 20 -8 42t-27 41t-50.5 32t-77.5 15q-35 1 -64 1t-58.5 -2t-62.5 -6.5t-77 -11.5l17 -173
v-469q0 -20 -7.5 -37.5t-20.5 -30t-30.5 -20t-36.5 -7.5h-123v116h84q17 0 17 17v429l-25 271q52 10 100.5 18t97 13.5t98.5 7.5t105 0q43 -2 83 -14t74 -34q72 22 152 35.5t156 13.5z" />
    <glyph glyph-name="copyright2" unicode="&#x3b;&#x3b;For&#x20;Education&#x20;Used&#x20;Only&#x3b;&#x3b;" horiz-adv-x="1296" 
d="M256 0v1280h1024v-1280h-1024zM1238 32q10 0 10 10v1196q0 10 -10 10h-940q-10 0 -10 -10v-1196q0 -10 10 -10h940z" />
    <glyph glyph-name="registered2" unicode="&#x3b;&#x3b;Registered&#x3b;&#x3b;" horiz-adv-x="1296" 
d="M256 0v1280h1024v-1280h-1024zM1238 32q10 0 10 10v1196q0 10 -10 10h-940q-10 0 -10 -10v-1196q0 -10 10 -10h940z" />
    <glyph glyph-name="trademark2" unicode="&#x3b;&#x3b;Trademark&#x3b;&#x3b;" horiz-adv-x="1938" 
d="M256 0v1280h1024v-1280h-1024zM1238 32q10 0 10 10v1196q0 10 -10 10h-940q-10 0 -10 -10v-1196q0 -10 10 -10h940z" />
    <glyph glyph-name="multiply2" unicode="&#x3b;&#x3b;Multiply&#x3b;&#x3b;" horiz-adv-x="870" 
d="M760 744l-243 -243l243 -243l-82 -82l-243 243l-243 -243l-82 82l243 243l-243 243l82 82l243 -243l243 243z" />
    <glyph glyph-name="divide2" unicode="&#x3b;&#x3b;Divide&#x3b;&#x3b;" horiz-adv-x="884" 
d="M110 559h664v-116h-664v116zM442 827q37 0 63.5 -26t26.5 -63t-26.5 -62.5t-63.5 -25.5t-62.5 25.5t-25.5 62.5t25.5 63t62.5 26zM442 346q37 0 63.5 -26t26.5 -63t-26.5 -62.5t-63.5 -25.5t-62.5 25.5t-25.5 62.5t25.5 63t62.5 26z" />
    <glyph glyph-name=".notdef" horiz-adv-x="1536" 
d="M256 0v1280h1024v-1280h-1024zM1238 32q10 0 10 10v1196q0 10 -10 10h-940q-10 0 -10 -10v-1196q0 -10 10 -10h940z" />
    <glyph glyph-name=".null" 
 />
    <glyph glyph-name="nonmarkingreturn" horiz-adv-x="579" 
 />
    <glyph glyph-name="space" unicode=" " horiz-adv-x="532" 
 />
    <glyph glyph-name="exclam" unicode="!" horiz-adv-x="373" 
d="M133 281l-16 845h139l-15 -845h-108zM110 153h153v-153h-153v153z" />
    <glyph glyph-name="quotedbl" unicode="&#x22;" horiz-adv-x="634" 
d="M110 1204h144l-11 -330h-122zM380 1204h144l-11 -330h-122z" />
    <glyph glyph-name="numbersign" unicode="#" horiz-adv-x="1104" 
d="M870 832h164v-116h-195l-84 -321h194v-116h-225l-74 -279h-120l74 279h-257l-74 -279h-121l74 279h-156v116h187l85 321h-187v116h217l79 294h120l-78 -294h258l78 294h120zM719 716h-257l-85 -321h258z" />
    <glyph glyph-name="dollar" unicode="$" horiz-adv-x="865" 
d="M491 1237v-107q41 -2 76.5 -5.5t68 -8t64 -10.5t63.5 -13v-126l-31.5 7t-57.5 11t-81.5 12t-101.5 10v-410l211 -123q33 -18 53 -51.5t20 -72.5v-91q-2 -60 -20.5 -109.5t-53 -85t-85.5 -55t-118 -19.5h-7v-103h-116v106q-85 5 -151.5 14.5t-131.5 23.5v126
q61 -16 127.5 -26.5t155.5 -14.5v406l-212 124q-33 19 -53 52t-20 74v83q0 62 20 113.5t56.5 88t87 56.5t111.5 20h10v104h116zM375 665v347h-10q-54 0 -84.5 -19.5t-46 -45.5t-19.5 -52t-4 -40v-83q0 -14 11 -18zM491 455v-342h7q54 0 84.5 19t46.5 45t20 51.5t4 39.5v82
q0 6 -3 9.5t-5 5.5z" />
    <glyph glyph-name="percent" unicode="%" horiz-adv-x="1083" 
d="M871 1126l-519 -1126h-128l519 1126h128zM498 916q0 -100 -52.5 -151t-155.5 -51q-67 0 -108.5 19.5t-64 49.5t-30 65.5t-7.5 67.5q0 33 8 69.5t30.5 67t64 51t107.5 20.5q100 0 154 -51t54 -157zM185 916q0 -26 3.5 -44.5t15 -30.5t32 -17.5t54.5 -5.5q30 0 50 4t32 15
t17 30t5 49q0 33 -6 53.5t-18.5 32t-32.5 15t-47 3.5q-30 0 -50.5 -4.5t-32.5 -16t-17 -31.5t-5 -52zM794 411q99 0 154 -51t55 -157q0 -32 -8 -67.5t-31 -65.5t-63.5 -50t-106.5 -20t-107 19.5t-63.5 49.5t-30.5 66t-8 68t8 68.5t30.5 67.5t63.5 51.5t107 20.5zM794 105
q53 0 78.5 19t25.5 79q0 33 -6 53.5t-18.5 31.5t-32.5 14.5t-47 3.5q-32 0 -52.5 -5t-32 -16.5t-16 -31.5t-4.5 -50q0 -26 3.5 -44.5t15 -30.5t32 -17.5t54.5 -5.5z" />
    <glyph glyph-name="ampersand" unicode="&#x26;" horiz-adv-x="938" 
d="M868 615v-116h-85l-1 -469q-30 -7 -66 -13.5t-83.5 -12t-108 -9t-138.5 -3.5q-69 0 -124.5 19.5t-95 56t-61 90t-21.5 121.5q0 106 36.5 173t113.5 108q-39 23 -62 52t-35.5 62t-16 68t-3.5 70q0 61 20 112.5t56.5 88.5t87 58t111.5 21q93 0 180.5 -7t186.5 -27v-120
q-91 20 -180.5 29t-186.5 9q-44 0 -74.5 -14.5t-49 -38t-27 -52.5t-8.5 -59q0 -48 6 -84.5t30.5 -61.5t73 -38t132.5 -13h191v83h117v-83h85zM666 499h-191q-75 0 -127 -11t-85 -36.5t-48 -68t-15 -104.5q0 -86 46.5 -128.5t134.5 -42.5q57 0 98.5 1.5t74.5 3.5t59.5 5.5
t52.5 7.5v373z" />
    <glyph glyph-name="quotesingle" unicode="'" horiz-adv-x="364" 
d="M110 1204h144l-11 -330h-122z" />
    <glyph glyph-name="parenleft" unicode="(" horiz-adv-x="485" 
d="M375 1204q-129 -324 -129 -649q0 -315 124 -637h-124q-116 319 -116 637q0 326 120 649h125z" />
    <glyph glyph-name="parenright" unicode=")" horiz-adv-x="485" 
d="M235 1204q120 -323 120 -649q0 -318 -116 -637h-124q124 322 124 637q0 325 -129 649h125z" />
    <glyph glyph-name="asterisk" unicode="*" horiz-adv-x="792" 
d="M702 943l-221 -64l148 -189l-98 -71l-134 200l-135 -200l-97 71l147 189l-222 64l37 114l217 -79l-8 226h120l-8 -226l217 79z" />
    <glyph glyph-name="plus" unicode="+" horiz-adv-x="884" 
d="M500 559h274v-116h-274v-269h-116v269h-274v116h274v268h116v-268z" />
    <glyph glyph-name="comma" unicode="," horiz-adv-x="274" 
d="M81 153h143l-70 -328h-114z" />
    <glyph glyph-name="hyphen" unicode="-" horiz-adv-x="884" 
d="M110 559h664v-116h-664v116z" />
    <glyph glyph-name="period" unicode="." horiz-adv-x="273" 
d="M60 153h153v-153h-153v153z" />
    <glyph glyph-name="slash" unicode="/" horiz-adv-x="539" 
d="M358 1122h121l-299 -1122h-120z" />
    <glyph glyph-name="zero" unicode="0" horiz-adv-x="956" 
d="M864 840q11 -71 16.5 -143t5.5 -145q0 -29 -2 -63.5t-5 -70.5t-7 -70.5t-8 -64.5q-15 -74 -51.5 -128.5t-88.5 -90.5t-115.5 -54t-131.5 -18q-72 0 -136.5 18.5t-115.5 55t-85.5 91t-46.5 126.5q-11 65 -17 138t-6 141q0 69 6 139t17 139q12 77 46.5 132t85.5 90.5
t116 52.5t138 17q67 0 131 -15.5t116.5 -50t89 -90t48.5 -136.5zM744 304q23 121 23 249q0 64 -6 131t-17 138q-8 48 -31 83.5t-58 58.5t-80 34t-97 11q-108 0 -179 -46t-86 -141q-21 -126 -21 -254q0 -65 5.5 -132.5t15.5 -132.5q9 -53 33 -88.5t59 -58t79 -32t94 -9.5
t94 8.5t78.5 30t58.5 58t35 92.5z" />
    <glyph glyph-name="one" unicode="1" horiz-adv-x="578" 
d="M387 1126v-1126h-122v1005h-154v121h276z" />
    <glyph glyph-name="two" unicode="2" horiz-adv-x="853" 
d="M763 858q0 -74 -32 -148t-95 -160.5t-157.5 -190.5l-220.5 -238h496v-121h-664v110l236 251.5t173 202t106 162.5t36 132q0 17 -4.5 43t-20.5 50.5t-47 42t-83 17.5q-68 0 -123.5 -3.5t-101.5 -9.5t-83.5 -13t-68.5 -14v125q34 8 70 15t80 11.5t99.5 7t127.5 2.5
q64 0 115.5 -19.5t87.5 -55.5t55 -86.5t19 -112.5z" />
    <glyph glyph-name="three" unicode="3" horiz-adv-x="881" 
d="M758 850q0 -35 -5 -72.5t-19 -73t-38 -68t-62 -56.5q76 -42 116.5 -113.5t40.5 -176.5q0 -68 -21.5 -123t-61.5 -94t-96 -60.5t-126 -21.5q-78 0 -138.5 3.5t-108 9.5t-83.5 12.5t-66 12.5v127q24 -6 59.5 -13t84 -13.5t111 -11t141.5 -4.5q89 0 136 45.5t47 131.5
q0 59 -14.5 102t-47 70.5t-84 40t-125.5 12.5h-82v121h82q83 0 130.5 16t71.5 44t30 67t6 86q0 29 -8 58t-26.5 52t-48 37t-72.5 14q-74 0 -131.5 -4t-102 -9.5t-77.5 -12t-58 -12.5v125q33 7 68 13.5t78 11t97 7t126 2.5q61 0 111.5 -20.5t87.5 -58t57.5 -89.5t20.5 -114z
" />
    <glyph glyph-name="four" unicode="4" horiz-adv-x="841" 
d="M793 387v-121h-121v-266h-120v266h-481v100l410 759h137l-400 -738h334v331h120v-331h121z" />
    <glyph glyph-name="five" unicode="5" horiz-adv-x="864" 
d="M394 681q107 0 181 -27.5t120 -76t66.5 -115.5t20.5 -147q0 -74 -22.5 -133.5t-62.5 -101.5t-96.5 -65t-123.5 -23q-80 0 -141 4t-108 10t-82.5 13t-64.5 14v127l60 -14t83 -15t110.5 -11.5t142.5 -4.5q86 0 134.5 53t48.5 148q0 68 -14 114.5t-46 75t-83.5 40.5
t-126.5 12h-282l53 568h563v-121h-452l-14.5 -162l-14.5 -162h151z" />
    <glyph glyph-name="six" unicode="6" horiz-adv-x="878" 
d="M441 722q82 0 141.5 -16.5t100 -43.5t65.5 -63t38 -76t17.5 -81.5t4.5 -79.5q0 -40 -4.5 -82.5t-17.5 -83.5t-38 -78.5t-65.5 -65.5t-100 -44.5t-141.5 -16.5q-103 0 -176 28.5t-118 83.5q-15 19 -28.5 48t-24.5 74t-17.5 109.5t-6.5 156.5q0 62 2.5 134t13.5 143t33 137
t61 116.5t98 80.5t144 30h49q71 0 139 -8.5t143 -25.5v-125q-24 6 -55 12.5t-67 12t-76 9.5t-83 4h-50q-62 0 -102.5 -23.5t-66 -69.5t-38.5 -114.5t-19 -159.5q45 34 106.5 56t138.5 22zM440 114q66 0 112.5 13t76 42.5t43 76.5t13.5 115q0 67 -13 113t-42 73.5t-75.5 39.5
t-114.5 12q-129 0 -187 -58.5t-58 -181.5q0 -61 13 -107t42.5 -76.5t76 -46t113.5 -15.5z" />
    <glyph glyph-name="seven" unicode="7" horiz-adv-x="824" 
d="M764 1126l-389 -1126h-127l345 1005h-526v121h697z" />
    <glyph glyph-name="eight" unicode="8" horiz-adv-x="873" 
d="M436 -8q-83 0 -150.5 17t-115.5 54t-74 94t-26 138q0 103 47 175t135 111q-40 14 -68.5 43t-47 64t-27 72t-8.5 67q0 154 86.5 229t248.5 77q158 0 246.5 -75t88.5 -231q0 -30 -8.5 -67t-27 -72t-47 -64t-68.5 -43q183 -77 183 -286q0 -81 -26.5 -138t-74.5 -94t-116 -54
t-150 -17zM436 115q132 0 188.5 44.5t56.5 136.5q0 48 -13.5 88t-43 68.5t-76 44.5t-112.5 16t-112.5 -16t-76 -44.5t-43 -68.5t-13.5 -88q0 -92 56.5 -136.5t188.5 -44.5zM436 636q45 0 85 14.5t69 40t45 60.5t14 76q0 100 -49 142.5t-164 42.5q-58 0 -98.5 -10t-66 -32
t-37 -57.5t-11.5 -85.5q-2 -41 14 -76t45 -60.5t69 -40t85 -14.5z" />
    <glyph glyph-name="nine" unicode="9" horiz-adv-x="878" 
d="M436 402q-82 0 -141 16.5t-100 43.5t-65.5 63t-37.5 76t-17.5 81.5t-4.5 79.5q0 39 4.5 81.5t17.5 83.5t37.5 78.5t65.5 65.5t100 44.5t141 16.5q103 0 176 -28.5t118 -82.5q15 -20 29 -49t25 -77t17.5 -119t6.5 -173q0 -62 -2 -131.5t-12.5 -137.5t-32 -129.5
t-60.5 -109t-99 -75.5t-147 -28h-49q-70 0 -138.5 8.5t-143.5 25.5v126q24 -6 55 -12.5t67 -12t76 -9t83 -3.5h50q69 0 110.5 23t65 68.5t34 114t16.5 159.5q-45 -34 -106.5 -56t-138.5 -22zM437 1011q-66 0 -112.5 -13t-76 -42.5t-43 -77t-13.5 -115.5q0 -67 13 -112.5
t42 -73.5t75.5 -40t114.5 -12q129 0 187 58.5t58 183.5q0 60 -13 105.5t-42.5 76.5t-76 46.5t-113.5 15.5z" />
    <glyph glyph-name="colon" unicode=":" horiz-adv-x="333" 
d="M90 153h153v-153h-153v153zM90 867h153v-153h-153v153z" />
    <glyph glyph-name="semicolon" unicode=";" horiz-adv-x="333" 
d="M90 867h153v-153h-153v153zM91 153h143l-70 -328h-114z" />
    <glyph glyph-name="less" unicode="&#x3c;" horiz-adv-x="726" 
d="M110 613l506 412v-150l-384 -313l384 -313v-150l-506 412v102z" />
    <glyph glyph-name="equal" unicode="=" horiz-adv-x="809" 
d="M110 672h589v-116h-589v116zM110 446h589v-117h-589v117z" />
    <glyph glyph-name="greater" unicode="&#x3e;" horiz-adv-x="726" 
d="M616 511l-506 -412v150l384 313l-384 313v150l506 -412v-102z" />
    <glyph glyph-name="question" unicode="?" horiz-adv-x="810" 
d="M440 1134q56 0 104 -18.5t82.5 -51.5t54 -78.5t19.5 -99.5v-148l-238 -300v-157h-117v197l239 301v107q0 59 -39.5 95.5t-104.5 36.5h-90q-64 0 -104 -36.5t-40 -95.5v-66h-116v66q0 54 19.5 99.5t54 78.5t82.5 51.5t104 18.5h90zM327 153h153v-153h-153v153z" />
    <glyph glyph-name="at" unicode="@" horiz-adv-x="1354" 
d="M677 1105q133 0 241 -46.5t185 -126t119 -187t42 -228.5q0 -85 -24 -165t-70 -154h-351v77l-119 -77h-104q-39 0 -71 12.5t-55 35.5t-36 54.5t-13 69.5v53q0 39 12.5 72t35 56.5t55 36.5t72.5 13q1 0 5.5 -0.5t25.5 -3.5t65.5 -10l126.5 -20v91q0 27 -13 43.5t-34 25
t-47.5 11.5t-53.5 3q-19 0 -45 -2.5t-54 -7t-55.5 -9.5l-49.5 -9v107l54 10t55 8.5t51 5.5t44 2q60 0 107 -10t79.5 -32t49.5 -58t17 -88v-355h170q25 50 38 103.5t13 110.5q0 100 -28.5 186t-87 150t-146.5 100.5t-206 36.5q-114 0 -201 -36t-146.5 -99.5t-89.5 -150
t-30 -187.5q0 -100 28.5 -186t86.5 -149.5t145.5 -100t206.5 -36.5h238v-114h-238q-132 0 -240.5 46t-185.5 125.5t-119 186.5t-42 228t42 228.5t119 187t185.5 126t240.5 46.5zM819 399v62l-227 35q-23 0 -36.5 -8.5t-20.5 -19.5t-8.5 -23.5t-1.5 -21.5l1 -53
q0 -22 7.5 -35.5t18 -20.5t22.5 -9t22 -2h73z" />
    <glyph glyph-name="A" unicode="A" horiz-adv-x="966" 
d="M627 1126l284 -1126h-126l-67 266h-470l-67 -266h-126l285 1126h287zM688 387l-156 618h-98l-155 -618h409z" />
    <glyph glyph-name="B" unicode="B" horiz-adv-x="877" 
d="M741 838q-2 -72 -32 -131t-94 -104q94 -48 143 -122t49 -186q0 -80 -19 -136t-60.5 -91t-106 -51.5t-155.5 -16.5h-376v1126h327q156 0 240 -74t84 -214zM619 838q0 53 -14.5 85.5t-41 50.5t-63.5 24.5t-83 6.5h-205v-446l285 116q39 21 63 42t37 41.5t17.5 40.5t4.5 39z
M466 121q54 0 94.5 4.5t67.5 22.5t41 53t16 96q0 39 -9 73t-31.5 64t-62 56t-102.5 49l-268 -112v-306h254z" />
    <glyph glyph-name="C" unicode="C" horiz-adv-x="846" 
d="M419 1129q91 4 179.5 -4.5t182.5 -30.5v-128q-48 12 -92 19.5t-87 12t-86.5 6.5t-91.5 2q-44 -3 -79.5 -21t-62.5 -44.5t-43.5 -58t-22.5 -62.5q-22 -126 -22.5 -254t22.5 -264v1q5 -31 22 -62.5t44 -57.5t63 -44t79 -22q37 0 84 1t95.5 5t95 11t82.5 20v-126
q-88 -21 -178.5 -30.5t-183.5 -3.5q-58 4 -113 27t-99 61.5t-74.5 88.5t-39.5 108q-23 137 -23 276.5t23 285.5q10 61 39 112.5t72.5 89.5t98.5 60.5t116 25.5z" />
    <glyph glyph-name="D" unicode="D" horiz-adv-x="937" 
d="M448 1130q75 0 142.5 -17t120.5 -54t88.5 -95.5t46.5 -140.5q9 -68 14.5 -132t6 -128t-4.5 -129t-16 -135q-12 -74 -44 -131.5t-82 -96.5t-118 -59.5t-151 -20.5q-39 0 -78.5 1.5t-83 4t-92.5 6l-107 7.5v1101l101 7.5t90.5 6t84.5 4t82 1.5zM446 114q55 0 101 8.5t82 31
t60.5 62t36.5 101.5q22 115 21.5 234.5t-21.5 253.5q-16 103 -85 152.5t-187 49.5q-61 0 -120 -3t-123 -8v-872q41 -2 74 -4t60.5 -3.5t52 -2t48.5 -0.5z" />
    <glyph glyph-name="E" unicode="E" horiz-adv-x="802" 
d="M212 172q0 -19 28.5 -30.5t69 -18t86 -8.5t78.5 -1q65 2 130.5 10t127.5 25v-126q-120 -29 -256 -32q-27 0 -66.5 1.5t-82.5 7t-85.5 17t-76 31.5t-54.5 50t-21 73v954l642 1v-121h-520v-382h449v-121h-449v-330z" />
    <glyph glyph-name="F" unicode="F" horiz-adv-x="772" 
d="M732 1126v-121h-521v-382h450v-121h-450v-502h-121v1125z" />
    <glyph glyph-name="G" unicode="G" horiz-adv-x="928" 
d="M838 48q-51 -14 -103.5 -26t-106 -20t-108 -10.5t-108.5 2.5q-57 4 -110.5 27.5t-97 61.5t-73 88t-38.5 109q-22 134 -23 272.5t23 288.5q10 63 43 116.5t82.5 91.5t112 59.5t131.5 21.5q91 0 180.5 -10.5t180.5 -27.5v-126q-88 18 -175 29.5t-176 11.5q-52 0 -96 -12
t-78 -35.5t-56 -58.5t-29 -80q-21 -128 -20 -257t20 -262q6 -32 22.5 -63.5t42.5 -58t61 -43.5t78 -20q69 0 148 4.5t152 21.5v359h-177v121h298v-575z" />
    <glyph glyph-name="H" unicode="H" horiz-adv-x="992" 
d="M771 1126h121v-1126h-121v502h-550v-502h-121v1126h121v-503h550v503z" />
    <glyph glyph-name="I" unicode="I" horiz-adv-x="362" 
d="M120 1126h122v-1126h-122v1126z" />
    <glyph glyph-name="J" unicode="J" horiz-adv-x="618" 
d="M508 231q-1 -49 -16 -92.5t-43.5 -76t-71.5 -51.5t-100 -19q-53 0 -104 7t-105 21v127q54 -14 104 -23t103 -9q30 0 51 6t33.5 19.5t19 35.5t8.5 55v774h-151v121h272v-895z" />
    <glyph glyph-name="K" unicode="K" horiz-adv-x="906" 
d="M836 1126l-312 -563l312 -563h-139l-279 502h-207v-502h-121v1126h121v-503h207l279 503h139z" />
    <glyph glyph-name="L" unicode="L" horiz-adv-x="710" 
d="M212 172q0 -18 23 -29.5t56 -18t69 -9t62 -2.5q63 0 126 9.5t122 26.5v-126q-63 -17 -126 -25t-122 -8q-72 0 -132.5 10.5t-105 33t-69.5 56.5t-25 81v955h122v-954z" />
    <glyph glyph-name="M" unicode="M" horiz-adv-x="1127" 
d="M996 1126l76 -1126h-123l-68 1005h-33l-177 -739h-216l-176 739h-34l-69 -1005h-121l76 1126h246l176 -739h21l176 739h246z" />
    <glyph glyph-name="N" unicode="N" horiz-adv-x="1012" 
d="M791 120v1005h121v-1125h-255l-384 1005h-51v-1005h-122v1125l254 1l387 -1006h50z" />
    <glyph glyph-name="O" unicode="O" horiz-adv-x="967" 
d="M486 1132q69 0 134.5 -18.5t119 -55.5t91 -91.5t50.5 -126.5q10 -62 15 -133t5 -143.5t-5.5 -144.5t-15.5 -137q-12 -77 -48.5 -132t-89.5 -90t-119.5 -51.5t-138.5 -16.5q-78 0 -144.5 22t-117.5 60.5t-85 91.5t-48 116q-23 137 -23.5 276.5t23.5 282.5q12 72 50 126
t92.5 91t120.5 55.5t134 18.5zM760 303q19 127 19 252.5t-19 265.5q-9 48 -33.5 83.5t-60.5 58.5t-82 34.5t-99 11.5q-51 0 -96.5 -7.5t-82 -28t-62 -57.5t-35.5 -95v1q-21 -127 -19 -257.5t19 -261.5q5 -42 30.5 -77t63.5 -59.5t85.5 -38t96.5 -13.5t96 13.5t84.5 38t63 59
t31.5 77.5z" />
    <glyph glyph-name="P" unicode="P" horiz-adv-x="827" 
d="M449 1126q79 0 141.5 -18t105.5 -56.5t66 -98t24 -142.5q2 -156 -83.5 -233.5t-253.5 -77.5h-238v-500h-121v1125zM449 621q66 0 108 14t66 39t32.5 60.5t8.5 79.5q0 43 -8.5 78t-32.5 60t-66 39t-108 14h-238v-384h238z" />
    <glyph glyph-name="Q" unicode="Q" horiz-adv-x="963" 
d="M483 1132q70 0 136 -18t119.5 -54t90.5 -91t49 -129q10 -56 14.5 -128.5t4.5 -148.5t-5 -149.5t-15 -131.5q-11 -69 -42 -120t-76.5 -86t-102.5 -55t-120 -26l-77 -114v-24q0 -18 8.5 -22t19.5 -4h259v-113h-290q-58 0 -88 42t-30 106v55l65 77q-64 9 -117.5 32.5
t-94 60.5t-67.5 85t-38 106q-11 61 -16 130t-5 141.5t5.5 145.5t15.5 142q13 72 51 126t92 91t119.5 55.5t134.5 18.5zM757 302q19 127 19 253t-19 266q-9 48 -33.5 83.5t-60.5 58.5t-82 34.5t-99 11.5q-51 0 -96.5 -7.5t-82 -28t-62 -57.5t-35.5 -95v1q-21 -127 -19 -258
t19 -262q5 -42 30.5 -77t63.5 -59.5t85.5 -38t96.5 -13.5t96 13.5t84.5 38t63 59t31.5 77.5z" />
    <glyph glyph-name="R" unicode="R" horiz-adv-x="898" 
d="M569 535l132 -268l132 -267h-136l-244 493l-242 -86v-407h-121v1126h388q76 0 136.5 -15t102.5 -49.5t64 -91t22 -138.5q0 -99 -45.5 -167t-151.5 -114zM211 536l348 125q38 15 61.5 34t37 41.5t18.5 47t5 48.5q0 53 -11.5 87t-36.5 53t-63 26t-92 7h-267v-469z" />
    <glyph glyph-name="S" unicode="S" horiz-adv-x="825" 
d="M682 474q33 -18 53 -51.5t20 -72.5v-91q-2 -60 -20.5 -109.5t-53 -85t-85.5 -55t-118 -19.5q-68 0 -123.5 3t-104 8.5t-92 13t-86.5 16.5v126q40 -11 82.5 -19t91 -13.5t105.5 -8.5t127 -3q54 0 84.5 19t46.5 45t20 51.5t4 39.5v82q0 6 -3 9.5t-5 5.5l-482 281
q-33 19 -53 52t-20 74v83q0 62 20 113.5t56.5 88t87 56.5t111.5 20q69 0 123.5 -2.5t101 -8t88 -13t85.5 -16.5v-126q-11 3 -44 10t-84.5 15t-120 14t-149.5 6q-54 0 -84.5 -19.5t-46 -45.5t-19.5 -52t-4 -40v-83q0 -14 11 -18z" />
    <glyph glyph-name="T" unicode="T" horiz-adv-x="762" 
d="M40 1126h682v-121h-281v-1005h-122v1005h-279v121z" />
    <glyph glyph-name="U" unicode="U" horiz-adv-x="974" 
d="M753 1126h121v-805q0 -157 -75 -239t-210 -82h-204q-138 0 -211.5 83t-73.5 238v805h121v-805q0 -105 39 -152.5t125 -47.5h204q87 0 125.5 48.5t38.5 151.5v805z" />
    <glyph glyph-name="V" unicode="V" horiz-adv-x="966" 
d="M785 1126h126l-285 -1126h-287l-284 1126h125l254 -1005h98z" />
    <glyph glyph-name="W" unicode="W" horiz-adv-x="1260" 
d="M1083 1126h122l-134 -1126h-200l-240 876l-240 -876h-201l-135 1126h123l122 -1018l239 873h182l239 -873z" />
    <glyph glyph-name="X" unicode="X" horiz-adv-x="902" 
d="M842 1126l-225 -563l112.5 -282l112.5 -281h-131l-200 502h-116l-203 -502h-132l229 563l-229 563h132l203 -503h116l200 503h131z" />
    <glyph glyph-name="Y" unicode="Y" horiz-adv-x="892" 
d="M837 1126l-252 -624h-76v-502h-122v502h-76l-256 624h132l203 -503h116l200 503h131z" />
    <glyph glyph-name="Z" unicode="Z" horiz-adv-x="831" 
d="M236 121h515v-121h-670v94l515 911h-516v121h670v-95z" />
    <glyph glyph-name="bracketleft" unicode="[" horiz-adv-x="501" 
d="M391 1207v-116h-145v-1058h145v-116l-261 1v1288z" />
    <glyph glyph-name="backslash" unicode="\" horiz-adv-x="539" 
d="M479 0h-120l-299 1122h121z" />
    <glyph glyph-name="bracketright" unicode="]" horiz-adv-x="501" 
d="M371 1206v-1288l-261 -1v116h145v1058h-145v116z" />
    <glyph glyph-name="asciicircum" unicode="^" horiz-adv-x="830" 
d="M760 836h-144l-201 270l-200 -270h-145l277 373h137z" />
    <glyph glyph-name="underscore" unicode="_" horiz-adv-x="884" 
d="M40 0h804v-116h-804v116z" />
    <glyph glyph-name="grave" unicode="`" horiz-adv-x="467" 
d="M60 1204h155l192 -330h-126z" />
    <glyph glyph-name="a" unicode="a" horiz-adv-x="812" 
d="M476 831q54 -2 99 -21t78 -50.5t51 -74t18 -90.5v-595h-116v109l-172 -109h-134q-48 0 -88.5 16t-70 44.5t-45.5 68t-16 86.5v78q0 47 16 87t45 68.5t69.5 44.5t89.5 16h3t11 -1.5l27.5 -4.5t52.5 -8l85.5 -13l126.5 -20l-1 133q0 19 -7.5 40t-23 38t-41 28.5t-62.5 12.5
q-86 2 -169 -7.5t-172 -28.5v119q44 9 84.5 15.5t81.5 10.5t85 6t95 2zM606 247v97l-310 49q-12 0 -29.5 -4t-33 -14.5t-26.5 -30t-11 -51.5v-78q0 -34 12 -53.5t28.5 -29.5t34 -13t29.5 -3h100z" />
    <glyph glyph-name="b" unicode="b" horiz-adv-x="835" 
d="M488 831q101 -5 169 -59t88 -154q20 -97 20 -199.5t-20 -203.5q-20 -102 -86 -158.5t-161 -56.5h-122l-170 89v-89h-116v1126h116v-324q70 14 140 23t142 6zM498 116q33 0 56.5 11t39 29t24.5 39.5t13 42.5q14 87 15 176t-16 182q-4 19 -12.5 39.5t-25.5 38t-43.5 28.5
t-65.5 13q-69 4 -137.5 -6.5t-139.5 -26.5v-460l199 -106h93z" />
    <glyph glyph-name="c" unicode="c" horiz-adv-x="728" 
d="M369 828q80 5 151 0t143 -18v-119q-72 14 -142 17.5t-148 3.5q-43 -2 -72.5 -13.5t-48.5 -29t-29.5 -38.5t-14.5 -41q-19 -87 -20 -178.5t19 -181.5q4 -20 15 -41.5t32 -39t53 -29.5t80 -13q68 -7 136.5 0.5t139.5 20.5v-119q-69 -11 -138.5 -15t-141.5 -4
q-123 0 -196 58t-94 156q-20 97 -22 201t22 210q22 97 95 153t181 60z" />
    <glyph glyph-name="d" unicode="d" horiz-adv-x="835" 
d="M347 831q72 3 142 -4.5t140 -21.5v321h116v-1126h-116v89l-170 -89h-122q-95 0 -161 56.5t-86 158.5q-20 101 -20 203.5t20 199.5q20 100 88 154t169 59zM430 116l199 106v463q-71 16 -139.5 25t-137.5 5q-39 -2 -65.5 -13t-43.5 -28.5t-25.5 -38t-12.5 -39.5
q-17 -93 -16 -182t15 -176q4 -21 13 -42.5t24.5 -39.5t39 -29t56.5 -11h93z" />
    <glyph glyph-name="e" unicode="e" horiz-adv-x="814" 
d="M719 615q17 -64 22 -130t1 -133h-551q2 -30 6 -61t12 -61q5 -20 15.5 -41.5t31 -39t52.5 -29.5t80 -13q79 -8 159.5 3t162.5 27v-119q-79 -15 -160.5 -24t-165.5 -4q-117 4 -191 60t-97 152q-25 100 -25.5 205t25.5 208q10 39 34 77.5t62 69.5t92 50t124 19q60 0 111 -15
t91 -43t68 -68t41 -90zM625 469q-3 50 -14 94.5t-35 78t-64.5 53t-103.5 19.5t-102.5 -17.5t-63.5 -49.5t-35 -77t-16 -101h434z" />
    <glyph glyph-name="f" unicode="f" horiz-adv-x="457" 
d="M90 895q0 51 9 94t30 74.5t56 49.5t88 18q47 0 85.5 -4t67.5 -10v-119q-25 6 -63.5 11.5t-89.5 5.5q-9 0 -20 -2t-21.5 -13t-17.5 -35.5t-7 -69.5h-1v-69h169v-116h-169v-710h-116v895z" />
    <glyph glyph-name="g" unicode="g" horiz-adv-x="834" 
d="M744 -87q0 -64 -25 -109t-68 -73.5t-100 -42t-121 -13.5q-70 0 -142.5 9t-160.5 26v119q72 -17 144.5 -27t153.5 -10q58 0 97 9.5t62.5 26t33.5 38.5t10 47v176l-170 -89h-122q-96 0 -161 56.5t-85 159.5t-20 202q0 108 17.5 186t58.5 128.5t108 74.5t166 24
q81 0 163 -11t161 -32v-875zM628 222v471q-53 11 -106 16.5t-111 5.5q-57 0 -94.5 -10t-60.5 -26.5t-34.5 -38.5t-16.5 -46q-9 -43 -13 -87t-4 -89t3.5 -90.5t12.5 -91.5q4 -21 12.5 -42t24 -38.5t39 -28.5t56.5 -11h93z" />
    <glyph glyph-name="h" unicode="h" horiz-adv-x="854" 
d="M554 826q103 0 156.5 -56.5t53.5 -156.5v-613h-116v613q0 52 -21.5 74.5t-72.5 22.5h-129l-218 -128v-582h-117v1126h117v-409l173 101q14 8 29 8h145z" />
    <glyph glyph-name="i" unicode="i" horiz-adv-x="336" 
d="M110 826h116v-826h-116v826zM110 1126h116v-170h-116v170z" />
    <glyph glyph-name="j" unicode="j" horiz-adv-x="337" 
d="M237 24q0 -50 -9 -93t-30.5 -75t-57 -50.5t-87.5 -18.5q-46 0 -84.5 4.5t-67.5 10.5v119q25 -6 63.5 -11.5t88.5 -5.5q9 0 20.5 2t22 13t17.5 35.5t7 69.5v802h117v-802zM237 956h-117v170h117v-170z" />
    <glyph glyph-name="k" unicode="k" horiz-adv-x="772" 
d="M712 826l-231 -414l231 -412h-133l-199 354h-174v-354h-116v1126h116v-656h174l199 356h133z" />
    <glyph glyph-name="l" unicode="l" horiz-adv-x="379" 
d="M216 148q0 -19 9 -29.5t22 -10.5h92v-108h-124q-28 0 -49.5 11t-36 30.5t-22 46.5t-7.5 58v980h116v-978v0z" />
    <glyph glyph-name="m" unicode="m" horiz-adv-x="1187" 
d="M915 826q46 0 80.5 -16.5t57 -45.5t33.5 -67.5t11 -83.5v-613h-116v613q0 36 -7 56t-17.5 29t-21.5 10.5t-20 1.5h-89l-175 -124v-586h-115v613q0 36 -7 56t-17.5 29t-22 10.5t-20.5 1.5h-88l-175 -124v-586h-116v826h116v-98l122 87q16 11 34 11h107q70 0 106.5 -27.5
t59.5 -82.5l139 99q16 11 34 11h107z" />
    <glyph glyph-name="n" unicode="n" horiz-adv-x="841" 
d="M541 826q103 0 156.5 -56.5t53.5 -156.5v-613h-116v613q0 52 -21.5 74.5t-72.5 22.5h-116l-218 -128v-582h-117v826h117v-109l173 101q14 8 29 8h132z" />
    <glyph glyph-name="o" unicode="o" horiz-adv-x="805" 
d="M403 831q97 0 163 -28t105.5 -81.5t56.5 -131t17 -177.5q0 -95 -15 -173t-53 -133.5t-105 -86t-170 -28.5q-106 1 -172.5 32t-104 85.5t-51.5 131.5t-14 172q0 99 15 176.5t54 131.5t105.5 82t168.5 28zM402 108q75 0 119.5 20t68.5 59t31.5 95.5t7.5 130.5q0 73 -7 129
t-30.5 94.5t-68.5 58.5t-121 20q-74 0 -118.5 -20t-68.5 -58t-31.5 -94.5t-7.5 -129.5q0 -72 6.5 -129t29.5 -96t68 -59.5t122 -20.5z" />
    <glyph glyph-name="p" unicode="p" horiz-adv-x="834" 
d="M744 620q20 -97 20 -199t-19 -205q-20 -103 -85 -159.5t-162 -56.5h-121l-170 89v-405h-117v1105q91 25 185 36t194 6q112 -4 183 -59.5t92 -151.5zM630 236q17 92 18 182.5t-18 176.5q-4 19 -14 40t-29 38t-48.5 28.5t-73.5 13.5q-64 2 -126.5 -2.5t-131.5 -18.5v-472
l199 -106h92q33 0 56.5 11t39 28.5t24 38.5t12.5 42z" />
    <glyph glyph-name="q" unicode="q" horiz-adv-x="834" 
d="M90 620q21 96 92 151.5t183 59.5q100 5 194 -6t185 -36v-1105h-117v405l-170 -89h-121q-97 0 -162 56.5t-85 159.5q-19 103 -19 205t20 199zM204 236q4 -21 12.5 -42t24 -38.5t39 -28.5t56.5 -11h92l199 106v472q-69 14 -131.5 18.5t-126.5 2.5q-44 -2 -73.5 -13.5
t-48.5 -28.5t-29 -38t-14 -40q-19 -86 -18 -176.5t18 -182.5z" />
    <glyph glyph-name="r" unicode="r" horiz-adv-x="675" 
d="M418 826q96 0 147.5 -56.5t51.5 -156.5v-29h-116v29q0 52 -17 74.5t-66 22.5h-59l-153 -124v-586h-116v826h116v-97l100 86q16 11 34 11h78v0z" />
    <glyph glyph-name="s" unicode="s" horiz-adv-x="713" 
d="M576 364q30 -15 48.5 -42.5t18.5 -60.5v-64q-2 -44 -19 -81.5t-47.5 -65t-73 -43t-93.5 -15.5q-44 0 -91.5 2.5t-91.5 7t-81.5 9.5t-62.5 10v119q81 -17 161.5 -23.5t165.5 -8.5q56 -2 86.5 24.5t30.5 71.5v55l-390 198q-30 15 -48.5 42.5t-18.5 60.5v60q0 47 16.5 85.5
t47.5 66t73.5 43t95.5 16.5q64 1 114.5 -2t88.5 -7.5t66.5 -10t49.5 -8.5v-119q-4 0 -29 5t-67.5 10.5t-99 10.5t-123.5 5q-56 0 -86.5 -24.5t-30.5 -70.5v-58z" />
    <glyph glyph-name="t" unicode="t" horiz-adv-x="475" 
d="M216 826h180v-116h-180v-562q0 -19 9 -29.5t22 -10.5h149v-108h-180q-28 0 -49.5 11t-36.5 30.5t-22.5 46.5t-7.5 58v866h116v-186z" />
    <glyph glyph-name="u" unicode="u" horiz-adv-x="840" 
d="M635 826h115v-826h-115v110l-175 -101q-14 -9 -29 -9h-131q-109 0 -159.5 56.5t-50.5 156.5v613h116v-613q0 -51 22 -73.5t72 -22.5h116l219 128v581z" />
    <glyph glyph-name="v" unicode="v" horiz-adv-x="817" 
d="M648 826h119l-211 -826h-294l-212 826h120l182 -711h114z" />
    <glyph glyph-name="w" unicode="w" horiz-adv-x="1058" 
d="M871 826h117l-100 -826h-190l-169 665l-169 -665h-190l-100 826h117l87 -716l167 656h176l167 -656z" />
    <glyph glyph-name="x" unicode="x" horiz-adv-x="815" 
d="M557 413l188 -413h-128l-162 355h-95l-162 -355h-128l189 413l-189 413h128l162 -355h95l162 355h128z" />
    <glyph glyph-name="y" unicode="y" horiz-adv-x="828" 
d="M658 826h120l-310 -1147h-282v116h193l56 205h-163l-222 826h120l191 -711h105z" />
    <glyph glyph-name="z" unicode="z" horiz-adv-x="739" 
d="M659 116v-116h-579v99l427 610h-427v117h579v-101l-426 -609h426z" />
    <glyph glyph-name="braceleft" unicode="{" horiz-adv-x="589" 
d="M479 1207v-116h-146v-416l-89 -112l89 -106v-424h146v-116h-204q-24 0 -41 17t-17 41v444l-107 142l107 151v437q0 24 17 41t41 17h204z" />
    <glyph glyph-name="bar" unicode="|" horiz-adv-x="436" 
d="M276 1207v-1290h-116v1290h116z" />
    <glyph glyph-name="braceright" unicode="}" horiz-adv-x="589" 
d="M314 1207q24 0 41 -17t17 -41v-437l107 -151l-107 -142v-444q0 -24 -17 -41t-41 -17h-204v116h146v424l89 106l-89 112v416h-146v116h204v0z" />
    <glyph glyph-name="asciitilde" unicode="~" horiz-adv-x="820" 
d="M446 557q37 -8 70.5 -14.5t65.5 -7t63.5 5.5t64.5 24v-126q-71 -23 -141.5 -17.5t-147.5 22.5q-38 8 -75 15t-75 8.5t-78 -5.5t-83 -26v124q48 16 93 20.5t86.5 2t80.5 -10t76 -15.5z" />
    <glyph glyph-name="thothannobasethai" horiz-adv-x="806" 
d="M798 783l-122 -18q14 -21 23.5 -47t14.5 -60q22 -224 0 -450q-5 -43 -24 -81t-49 -66t-69.5 -44.5t-85.5 -16.5h-197l-113 370h-96v115v1h178l113 -370h77q69 0 107.5 27.5t43.5 77.5q11 106 11.5 212t-11.5 209q-6 36 -20.5 58t-35 34t-45 16.5t-50.5 5.5
q-44 2 -87.5 0.5t-88.5 -6t-92.5 -12t-99.5 -17.5v119q89 16 177.5 26.5t194.5 6.5q26 -1 53.5 -5t53.5 -14l239 46v-117z" />
    <glyph glyph-name="thothannobasethai" unicode="&#xf700;" horiz-adv-x="806" 
d="M798 783l-122 -18q14 -21 23.5 -47t14.5 -60q22 -224 0 -450q-5 -43 -24 -81t-49 -66t-69.5 -44.5t-85.5 -16.5h-197l-113 370h-96v115v1h178l113 -370h77q69 0 107.5 27.5t43.5 77.5q11 106 11.5 212t-11.5 209q-6 36 -20.5 58t-35 34t-45 16.5t-50.5 5.5
q-44 2 -87.5 0.5t-88.5 -6t-92.5 -12t-99.5 -17.5v119q89 16 177.5 26.5t194.5 6.5q26 -1 53.5 -5t53.5 -14l239 46v-117z" />
    <glyph glyph-name="thothannobasethai" unicode="&#x20ac;" horiz-adv-x="806" 
d="M798 783l-122 -18q14 -21 23.5 -47t14.5 -60q22 -224 0 -450q-5 -43 -24 -81t-49 -66t-69.5 -44.5t-85.5 -16.5h-197l-113 370h-96v115v1h178l113 -370h77q69 0 107.5 27.5t43.5 77.5q11 106 11.5 212t-11.5 209q-6 36 -20.5 58t-35 34t-45 16.5t-50.5 5.5
q-44 2 -87.5 0.5t-88.5 -6t-92.5 -12t-99.5 -17.5v119q89 16 177.5 26.5t194.5 6.5q26 -1 53.5 -5t53.5 -14l239 46v-117z" />
    <glyph glyph-name="saraileftthai" 
d="M-270 1000h-565v105h565v-105z" />
    <glyph glyph-name="saraileftthai" unicode="&#xf701;" 
d="M-270 1000h-565v105h565v-105z" />
    <glyph glyph-name="saraiileftthai" 
d="M-270 1204v-204h-565v105h448v99h117z" />
    <glyph glyph-name="saraiileftthai" unicode="&#xf702;" 
d="M-270 1204v-204h-565v105h448v99h117z" />
    <glyph glyph-name="saraiileftthai" unicode="&#x201a;" 
d="M-270 1204v-204h-565v105h448v99h117z" />
    <glyph glyph-name="saraueleftthai" 
d="M-375 1249q26 0 48.5 -9.5t39.5 -26.5t27 -39.5t10 -48.5t-10 -48.5t-27.5 -39.5t-40.5 -27t-50 -10h-457v105h337q-1 5 -1 10v10q0 26 10 48.5t26.5 39.5t39 26.5t48.5 9.5zM-375 1081q18 0 30.5 13t12.5 31t-12.5 30.5t-30.5 12.5q-17 0 -30 -12.5t-13 -30.5
q0 -17 12.5 -30.5t30.5 -13.5z" />
    <glyph glyph-name="saraueleftthai" unicode="&#xf703;" 
d="M-375 1249q26 0 48.5 -9.5t39.5 -26.5t27 -39.5t10 -48.5t-10 -48.5t-27.5 -39.5t-40.5 -27t-50 -10h-457v105h337q-1 5 -1 10v10q0 26 10 48.5t26.5 39.5t39 26.5t48.5 9.5zM-375 1081q18 0 30.5 13t12.5 31t-12.5 30.5t-30.5 12.5q-17 0 -30 -12.5t-13 -30.5
q0 -17 12.5 -30.5t30.5 -13.5z" />
    <glyph glyph-name="saraueleftthai" unicode="&#x192;" 
d="M-375 1249q26 0 48.5 -9.5t39.5 -26.5t27 -39.5t10 -48.5t-10 -48.5t-27.5 -39.5t-40.5 -27t-50 -10h-457v105h337q-1 5 -1 10v10q0 26 10 48.5t26.5 39.5t39 26.5t48.5 9.5zM-375 1081q18 0 30.5 13t12.5 31t-12.5 30.5t-30.5 12.5q-17 0 -30 -12.5t-13 -30.5
q0 -17 12.5 -30.5t30.5 -13.5z" />
    <glyph glyph-name="saraueeleftthai" 
d="M-260 1204v-204h-575v105h266v99h116v-99h76v99h117z" />
    <glyph glyph-name="saraueeleftthai" unicode="&#xf704;" 
d="M-260 1204v-204h-575v105h266v99h116v-99h76v99h117z" />
    <glyph glyph-name="saraueeleftthai" unicode="&#x201e;" 
d="M-260 1204v-204h-575v105h266v99h116v-99h76v99h117z" />
    <glyph glyph-name="ellipsis" unicode="&#x85;" horiz-adv-x="859" 
d="M60 153h153v-153h-153v153zM353 153h153v-153h-153v153zM646 153h153v-153h-153v153z" />
    <glyph glyph-name="ellipsis" unicode="&#x2026;" horiz-adv-x="859" 
d="M60 153h153v-153h-153v153zM353 153h153v-153h-153v153zM646 153h153v-153h-153v153z" />
    <glyph glyph-name="maieklowleftthai" 
d="M-320 1000h-116v252h116v-252z" />
    <glyph glyph-name="maieklowleftthai" unicode="&#xf705;" 
d="M-320 1000h-116v252h116v-252z" />
    <glyph glyph-name="maieklowleftthai" unicode="&#x2020;" 
d="M-320 1000h-116v252h116v-252z" />
    <glyph glyph-name="maitholowleftthai" 
d="M-270 1105v-105h-405l9 116h-82v105h202l-9 -116h285z" />
    <glyph glyph-name="maitholowleftthai" unicode="&#xf706;" 
d="M-270 1105v-105h-405l9 116h-82v105h202l-9 -116h285z" />
    <glyph glyph-name="maitholowleftthai" unicode="&#x2021;" 
d="M-270 1105v-105h-405l9 116h-82v105h202l-9 -116h285z" />
    <glyph glyph-name="maitrilowleftthai" 
d="M-250 1081v-101h-122q-26 0 -40.5 15.5t-14.5 35.5v116q0 22 -8 35t-21 19l-91 -58l-91 58q-13 -3 -21.5 -16.5t-8.5 -44.5q0 -9 2 -19.5t6.5 -19t11 -14.5t15.5 -6h67v-101h-70q-39 0 -65.5 13t-43 35t-24 49.5t-8.5 57.5q0 33 8 65t25.5 56.5t46 40t70.5 15.5h15
l65 -49l65 49h15q28 0 55 -12t48 -33.5t34 -51t13 -63.5v-71h67z" />
    <glyph glyph-name="maitrilowleftthai" unicode="&#xf707;" 
d="M-250 1081v-101h-122q-26 0 -40.5 15.5t-14.5 35.5v116q0 22 -8 35t-21 19l-91 -58l-91 58q-13 -3 -21.5 -16.5t-8.5 -44.5q0 -9 2 -19.5t6.5 -19t11 -14.5t15.5 -6h67v-101h-70q-39 0 -65.5 13t-43 35t-24 49.5t-8.5 57.5q0 33 8 65t25.5 56.5t46 40t70.5 15.5h15
l65 -49l65 49h15q28 0 55 -12t48 -33.5t34 -51t13 -63.5v-71h67z" />
    <glyph glyph-name="maitrilowleftthai" unicode="&#x2c6;" 
d="M-250 1081v-101h-122q-26 0 -40.5 15.5t-14.5 35.5v116q0 22 -8 35t-21 19l-91 -58l-91 58q-13 -3 -21.5 -16.5t-8.5 -44.5q0 -9 2 -19.5t6.5 -19t11 -14.5t15.5 -6h67v-101h-70q-39 0 -65.5 13t-43 35t-24 49.5t-8.5 57.5q0 33 8 65t25.5 56.5t46 40t70.5 15.5h15
l65 -49l65 49h15q28 0 55 -12t48 -33.5t34 -51t13 -63.5v-71h67z" />
    <glyph glyph-name="maichattawalowleftthai" 
d="M-260 1071h-108v-86h-116v86h-107v105h107v86h116v-86h108v-105z" />
    <glyph glyph-name="maichattawalowleftthai" unicode="&#xf708;" 
d="M-260 1071h-108v-86h-116v86h-107v105h107v86h116v-86h108v-105z" />
    <glyph glyph-name="maichattawalowleftthai" unicode="&#x2030;" 
d="M-260 1071h-108v-86h-116v86h-107v105h107v86h116v-86h108v-105z" />
    <glyph glyph-name="thanthakhatlowleftthai" 
d="M-250 1211v-108l-267 -24v-79h-116v174z" />
    <glyph glyph-name="thanthakhatlowleftthai" unicode="&#xf709;" 
d="M-250 1211v-108l-267 -24v-79h-116v174z" />
    <glyph glyph-name="thanthakhatlowleftthai" unicode="&#x160;" 
d="M-250 1211v-108l-267 -24v-79h-116v174z" />
    <glyph glyph-name="maieklowrightthai" 
d="M-90 1000h-116v252h116v-252z" />
    <glyph glyph-name="maieklowrightthai" unicode="&#xf70a;" 
d="M-90 1000h-116v252h116v-252z" />
    <glyph glyph-name="maieklowrightthai" unicode="&#x2039;" 
d="M-90 1000h-116v252h116v-252z" />
    <glyph glyph-name="maitholowrightthai" 
d="M-90 1105v-105h-455l9 116h-82v105h202l-9 -116h335z" />
    <glyph glyph-name="maitholowrightthai" unicode="&#xf70b;" 
d="M-90 1105v-105h-455l9 116h-82v105h202l-9 -116h335z" />
    <glyph glyph-name="maitholowrightthai" unicode="&#x152;" 
d="M-90 1105v-105h-455l9 116h-82v105h202l-9 -116h335z" />
    <glyph glyph-name="maitrilowrightthai" 
d="M-90 1081v-101h-142q-26 0 -40.5 15.5t-14.5 35.5v116q0 22 -8 35t-21 19l-106 -58l-106 58q-13 -3 -21.5 -16.5t-8.5 -44.5q0 -9 2 -19.5t6.5 -19t11 -14.5t15.5 -6h67v-101h-70q-39 0 -65.5 13t-43 35t-24 49.5t-8.5 57.5q0 33 8 65t25.5 56.5t46 40t70.5 15.5h15
l80 -49l80 49h15q28 0 55 -12t48 -33.5t34 -51t13 -63.5v-71h87z" />
    <glyph glyph-name="maitrilowrightthai" unicode="&#xf70c;" 
d="M-90 1081v-101h-142q-26 0 -40.5 15.5t-14.5 35.5v116q0 22 -8 35t-21 19l-106 -58l-106 58q-13 -3 -21.5 -16.5t-8.5 -44.5q0 -9 2 -19.5t6.5 -19t11 -14.5t15.5 -6h67v-101h-70q-39 0 -65.5 13t-43 35t-24 49.5t-8.5 57.5q0 33 8 65t25.5 56.5t46 40t70.5 15.5h15
l80 -49l80 49h15q28 0 55 -12t48 -33.5t34 -51t13 -63.5v-71h87z" />
    <glyph glyph-name="maichattawalowrightthai" 
d="M-90 1071h-108v-86h-116v86h-107v105h107v86h116v-86h108v-105z" />
    <glyph glyph-name="maichattawalowrightthai" unicode="&#xf70d;" 
d="M-90 1071h-108v-86h-116v86h-107v105h107v86h116v-86h108v-105z" />
    <glyph glyph-name="maichattawalowrightthai" unicode="&#x17d;" 
d="M-90 1071h-108v-86h-116v86h-107v105h107v86h116v-86h108v-105z" />
    <glyph glyph-name="thanthakhatlowrightthai" 
d="M-20 1211v-108l-317 -24v-79h-116v174z" />
    <glyph glyph-name="thanthakhatlowrightthai" unicode="&#xf70e;" 
d="M-20 1211v-108l-317 -24v-79h-116v174z" />
    <glyph glyph-name="yoyingnobasethai" horiz-adv-x="1272" 
d="M1182 866v-614q0 -60 -14 -107.5t-43.5 -80.5t-75 -51t-107.5 -18h-92q-62 0 -107.5 18t-74.5 51t-43 80.5t-14 107.5v375q0 20 -8.5 42t-27.5 41t-50.5 32t-77.5 15q-35 1 -62 1t-54 -2t-58.5 -6.5t-75.5 -11.5l16 -173v-384q0 -41 12.5 -53t38.5 -12h95v-116h-95
q-78 0 -122.5 47.5t-44.5 133.5v382l-17 271l97.5 18t90.5 13.5t92 7.5t102 0q52 -2 100 -19.5t85 -49.5t58.5 -76.5t21.5 -100.5v-375q0 -45 10 -72.5t27 -43t39.5 -20.5t46.5 -5h92q24 0 46 5t39.5 20t27.5 42.5t10 73.5v614h117z" />
    <glyph glyph-name="yoyingnobasethai" unicode="&#xf70f;" horiz-adv-x="1272" 
d="M1182 866v-614q0 -60 -14 -107.5t-43.5 -80.5t-75 -51t-107.5 -18h-92q-62 0 -107.5 18t-74.5 51t-43 80.5t-14 107.5v375q0 20 -8.5 42t-27.5 41t-50.5 32t-77.5 15q-35 1 -62 1t-54 -2t-58.5 -6.5t-75.5 -11.5l16 -173v-384q0 -41 12.5 -53t38.5 -12h95v-116h-95
q-78 0 -122.5 47.5t-44.5 133.5v382l-17 271l97.5 18t90.5 13.5t92 7.5t102 0q52 -2 100 -19.5t85 -49.5t58.5 -76.5t21.5 -100.5v-375q0 -45 10 -72.5t27 -43t39.5 -20.5t46.5 -5h92q24 0 46 5t39.5 20t27.5 42.5t10 73.5v614h117z" />
    <glyph glyph-name="quoteleft" horiz-adv-x="364" 
d="M110 1204h144l-11 -330h-122z" />
    <glyph glyph-name="quoteleft" unicode="&#x2018;" horiz-adv-x="364" 
d="M110 1204h144l-11 -330h-122z" />
    <glyph glyph-name="quoteright" horiz-adv-x="364" 
d="M110 1204h144l-11 -330h-122z" />
    <glyph glyph-name="quoteright" unicode="&#x2019;" horiz-adv-x="364" 
d="M110 1204h144l-11 -330h-122z" />
    <glyph glyph-name="bullet" horiz-adv-x="659" 
d="M330 227q-45 0 -85 17.5t-70 47.5t-47.5 69.5t-17.5 84.5t17.5 85t47.5 70t70 47.5t85 17.5q44 0 84 -17.5t70 -47.5t47.5 -70t17.5 -85q0 -44 -17.5 -83.5t-47.5 -69.5t-70 -48t-84 -18z" />
    <glyph glyph-name="bullet" unicode="&#x2022;" horiz-adv-x="659" 
d="M330 227q-45 0 -85 17.5t-70 47.5t-47.5 69.5t-17.5 84.5t17.5 85t47.5 70t70 47.5t85 17.5q44 0 84 -17.5t70 -47.5t47.5 -70t17.5 -85q0 -44 -17.5 -83.5t-47.5 -69.5t-70 -48t-84 -18z" />
    <glyph glyph-name="endash" horiz-adv-x="884" 
d="M110 559h664v-116h-664v116z" />
    <glyph glyph-name="endash" unicode="&#x2013;" horiz-adv-x="884" 
d="M110 559h664v-116h-664v116z" />
    <glyph glyph-name="emdash" horiz-adv-x="1087" 
d="M110 559h867v-116h-867v116z" />
    <glyph glyph-name="emdash" unicode="&#x2014;" horiz-adv-x="1087" 
d="M110 559h867v-116h-867v116z" />
    <glyph glyph-name="maihanakatleftthai" 
d="M-270 1105v-105h-413v204h116v-99h297z" />
    <glyph glyph-name="maihanakatleftthai" unicode="&#xf710;" 
d="M-270 1105v-105h-413v204h116v-99h297z" />
    <glyph glyph-name="maihanakatleftthai" unicode="&#x2dc;" 
d="M-270 1105v-105h-413v204h116v-99h297z" />
    <glyph glyph-name="nikhahitleftthai" 
d="M-396 938q-30 0 -56 11.5t-45.5 31t-31 45.5t-11.5 56t11.5 56.5t31 46t45.5 31t56 11.5t56.5 -11.5t46.5 -31t31.5 -46t11.5 -56.5t-11.5 -56t-31.5 -45.5t-46.5 -31t-56.5 -11.5zM-396 1137q-23 0 -38.5 -16t-15.5 -39t15.5 -39t38.5 -16t39 16t16 39t-16 39t-39 16z
" />
    <glyph glyph-name="nikhahitleftthai" unicode="&#xf711;" 
d="M-396 938q-30 0 -56 11.5t-45.5 31t-31 45.5t-11.5 56t11.5 56.5t31 46t45.5 31t56 11.5t56.5 -11.5t46.5 -31t31.5 -46t11.5 -56.5t-11.5 -56t-31.5 -45.5t-46.5 -31t-56.5 -11.5zM-396 1137q-23 0 -38.5 -16t-15.5 -39t15.5 -39t38.5 -16t39 16t16 39t-16 39t-39 16z
" />
    <glyph glyph-name="nikhahitleftthai" unicode="&#x2122;" 
d="M-396 938q-30 0 -56 11.5t-45.5 31t-31 45.5t-11.5 56t11.5 56.5t31 46t45.5 31t56 11.5t56.5 -11.5t46.5 -31t31.5 -46t11.5 -56.5t-11.5 -56t-31.5 -45.5t-46.5 -31t-56.5 -11.5zM-396 1137q-23 0 -38.5 -16t-15.5 -39t15.5 -39t38.5 -16t39 16t16 39t-16 39t-39 16z
" />
    <glyph glyph-name="maitaikhuleftthai" 
d="M-562 1221q-9 0 -22 -3t-25.5 -11t-21.5 -22.5t-9 -36.5q0 -18 6.5 -30t16 -19.5t21 -10.5t20.5 -3q54 0 70 63h81q7 -28 25.5 -46t64.5 -18h54v-104h-54q-45 0 -81 13.5t-52 37.5q-18 -27 -42 -39t-66 -12q-32 0 -62.5 12t-54 33.5t-38 52.5t-14.5 70q0 38 13.5 70.5
t37.5 56.5t57.5 37.5t74.5 13.5h306v-105h-306z" />
    <glyph glyph-name="maitaikhuleftthai" unicode="&#xf712;" 
d="M-562 1221q-9 0 -22 -3t-25.5 -11t-21.5 -22.5t-9 -36.5q0 -18 6.5 -30t16 -19.5t21 -10.5t20.5 -3q54 0 70 63h81q7 -28 25.5 -46t64.5 -18h54v-104h-54q-45 0 -81 13.5t-52 37.5q-18 -27 -42 -39t-66 -12q-32 0 -62.5 12t-54 33.5t-38 52.5t-14.5 70q0 38 13.5 70.5
t37.5 56.5t57.5 37.5t74.5 13.5h306v-105h-306z" />
    <glyph glyph-name="maitaikhuleftthai" unicode="&#x161;" 
d="M-562 1221q-9 0 -22 -3t-25.5 -11t-21.5 -22.5t-9 -36.5q0 -18 6.5 -30t16 -19.5t21 -10.5t20.5 -3q54 0 70 63h81q7 -28 25.5 -46t64.5 -18h54v-104h-54q-45 0 -81 13.5t-52 37.5q-18 -27 -42 -39t-66 -12q-32 0 -62.5 12t-54 33.5t-38 52.5t-14.5 70q0 38 13.5 70.5
t37.5 56.5t57.5 37.5t74.5 13.5h306v-105h-306z" />
    <glyph glyph-name="maiekupperleftthai" 
d="M-270 1280h-116v228h116v-228z" />
    <glyph glyph-name="maiekupperleftthai" unicode="&#xf713;" 
d="M-270 1280h-116v228h116v-228z" />
    <glyph glyph-name="maiekupperleftthai" unicode="&#x203a;" 
d="M-270 1280h-116v228h116v-228z" />
    <glyph glyph-name="maithoupperleftthai" 
d="M-90 1385v-105h-425l9 116h-82v105h202l-9 -116h305z" />
    <glyph glyph-name="maithoupperleftthai" unicode="&#xf714;" 
d="M-90 1385v-105h-425l9 116h-82v105h202l-9 -116h305z" />
    <glyph glyph-name="maithoupperleftthai" unicode="&#x153;" 
d="M-90 1385v-105h-425l9 116h-82v105h202l-9 -116h305z" />
    <glyph glyph-name="maitriupperleftthai" 
d="M-60 1371v-101h-142q-26 0 -40.5 15.5t-14.5 35.5v96q0 22 -8 35t-21 19l-106 -58l-106 58q-13 -3 -21.5 -11.5t-8.5 -39.5q0 -18 8.5 -33.5t26.5 -15.5h67v-101h-70q-39 0 -65.5 11.5t-43 31.5t-24 46t-8.5 56q0 33 8 63t25.5 53.5t46 37t70.5 13.5h15l80 -49l80 49h15
q28 0 55 -12t48 -33.5t34 -51t13 -63.5v-51h87z" />
    <glyph glyph-name="maitriupperleftthai" unicode="&#xf715;" 
d="M-60 1371v-101h-142q-26 0 -40.5 15.5t-14.5 35.5v96q0 22 -8 35t-21 19l-106 -58l-106 58q-13 -3 -21.5 -11.5t-8.5 -39.5q0 -18 8.5 -33.5t26.5 -15.5h67v-101h-70q-39 0 -65.5 11.5t-43 31.5t-24 46t-8.5 56q0 33 8 63t25.5 53.5t46 37t70.5 13.5h15l80 -49l80 49h15
q28 0 55 -12t48 -33.5t34 -51t13 -63.5v-51h87z" />
    <glyph glyph-name="maichattawaupperleftthai" 
d="M-165 1344h-105v-69h-116v69h-104v105h104v69h116v-69h105v-105z" />
    <glyph glyph-name="maichattawaupperleftthai" unicode="&#xf716;" 
d="M-165 1344h-105v-69h-116v69h-104v105h104v69h116v-69h105v-105z" />
    <glyph glyph-name="maichattawaupperleftthai" unicode="&#x17e;" 
d="M-165 1344h-105v-69h-116v69h-104v105h104v69h116v-69h105v-105z" />
    <glyph glyph-name="thanthakhatupperleftthai" 
d="M-90 1481v-108l-317 -24v-79h-116v174z" />
    <glyph glyph-name="thanthakhatupperleftthai" unicode="&#xf717;" 
d="M-90 1481v-108l-317 -24v-79h-116v174z" />
    <glyph glyph-name="thanthakhatupperleftthai" unicode="&#x178;" 
d="M-90 1481v-108l-317 -24v-79h-116v174z" />
    <glyph glyph-name="uni00A0" unicode="&#xa0;" horiz-adv-x="463" 
 />
    <glyph glyph-name="uni00A0" unicode="&#xe00;" horiz-adv-x="463" 
 />
    <glyph glyph-name="kokaithai" unicode="&#xa1;" horiz-adv-x="857" 
d="M502 872q52 -2 100 -19.5t85 -49.5t58.5 -76.5t21.5 -100.5v-626h-116v626q0 20 -8.5 42t-27.5 41t-50.5 32t-77.5 15q-35 1 -68.5 1t-68 -2t-72 -6.5t-81.5 -11.5l17 -173v-564q-45 -1 -68 -0.5t-34 0.5h-15v562l-17 271q104 20 207.5 31.5t214.5 7.5z" />
    <glyph glyph-name="kokaithai" unicode="&#xe01;" horiz-adv-x="857" 
d="M502 872q52 -2 100 -19.5t85 -49.5t58.5 -76.5t21.5 -100.5v-626h-116v626q0 20 -8.5 42t-27.5 41t-50.5 32t-77.5 15q-35 1 -68.5 1t-68 -2t-72 -6.5t-81.5 -11.5l17 -173v-564q-45 -1 -68 -0.5t-34 0.5h-15v562l-17 271q104 20 207.5 31.5t214.5 7.5z" />
    <glyph glyph-name="khokhaithai" unicode="&#xa2;" horiz-adv-x="797" 
d="M707 252q0 -60 -18.5 -107.5t-53.5 -80.5t-85 -51t-113 -18h-78q-62 0 -112 18t-85 51t-53.5 80.5t-18.5 107.5v127q0 44 19 79l125 231v60h-127v117h195q20 0 34 -14t14 -34v-131q0 -14 -3 -27.5t-10 -25.5l-125 -229q-6 -12 -6 -26v-127q0 -45 15 -72.5t37.5 -43
t49.5 -20.5t51 -5h78q24 0 51.5 5t50 20.5t37.5 43t15 72.5v614h116v-614z" />
    <glyph glyph-name="khokhaithai" unicode="&#xe02;" horiz-adv-x="797" 
d="M707 252q0 -60 -18.5 -107.5t-53.5 -80.5t-85 -51t-113 -18h-78q-62 0 -112 18t-85 51t-53.5 80.5t-18.5 107.5v127q0 44 19 79l125 231v60h-127v117h195q20 0 34 -14t14 -34v-131q0 -14 -3 -27.5t-10 -25.5l-125 -229q-6 -12 -6 -26v-127q0 -45 15 -72.5t37.5 -43
t49.5 -20.5t51 -5h78q24 0 51.5 5t50 20.5t37.5 43t15 72.5v614h116v-614z" />
    <glyph glyph-name="khokhuatthai" unicode="&#xa3;" horiz-adv-x="807" 
d="M717 866v-614q0 -60 -18.5 -107.5t-53.5 -80.5t-85 -51t-112 -18h-78q-63 0 -113 18t-85 51t-53.5 80.5t-18.5 107.5v111q0 42 19 79l169 234v67l-118 -74h-100v197h107v-86l136 86h88v-227l-180 -253q-5 -13 -5 -23v-111q0 -45 14.5 -72.5t37 -42.5t50 -20.5t52.5 -5.5
h78q24 0 51 5t49.5 20.5t37.5 43t15 72.5v614h116z" />
    <glyph glyph-name="khokhuatthai" unicode="&#xe03;" horiz-adv-x="807" 
d="M717 866v-614q0 -60 -18.5 -107.5t-53.5 -80.5t-85 -51t-112 -18h-78q-63 0 -113 18t-85 51t-53.5 80.5t-18.5 107.5v111q0 42 19 79l169 234v67l-118 -74h-100v197h107v-86l136 86h88v-227l-180 -253q-5 -13 -5 -23v-111q0 -45 14.5 -72.5t37 -42.5t50 -20.5t52.5 -5.5
h78q24 0 51 5t49.5 20.5t37.5 43t15 72.5v614h116z" />
    <glyph glyph-name="khokhwaithai" unicode="&#xa4;" horiz-adv-x="877" 
d="M439 873q61 0 123 -14t112 -45.5t81.5 -82t31.5 -124.5v-607h-116v607q0 76 -62.5 113t-169.5 37t-170 -37t-63 -113v-244l127 80q17 10 31 10h148v-117h-131l-175 -110v-226h-116v607q0 72 30 122.5t79.5 82.5t112 46.5t127.5 14.5z" />
    <glyph glyph-name="khokhwaithai" unicode="&#xe04;" horiz-adv-x="877" 
d="M439 873q61 0 123 -14t112 -45.5t81.5 -82t31.5 -124.5v-607h-116v607q0 76 -62.5 113t-169.5 37t-170 -37t-63 -113v-244l127 80q17 10 31 10h148v-117h-131l-175 -110v-226h-116v607q0 72 30 122.5t79.5 82.5t112 46.5t127.5 14.5z" />
    <glyph glyph-name="khokhonthai" unicode="&#xa5;" horiz-adv-x="877" 
d="M280 753q-37 -10 -55.5 -31.5t-18.5 -66.5v-292l127 80q15 10 31 10h148v-117h-132l-174 -110v-226h-116v657q0 43 11 81.5t32 67.5t51 46.5t68 17.5h56l130 -76l130 76h56q38 0 68 -17.5t51 -46.5t32 -67.5t11 -81.5v-657h-116v655q0 45 -18.5 66.5t-55.5 31.5l-158 -86
z" />
    <glyph glyph-name="khokhonthai" unicode="&#xe05;" horiz-adv-x="877" 
d="M280 753q-37 -10 -55.5 -31.5t-18.5 -66.5v-292l127 80q15 10 31 10h148v-117h-132l-174 -110v-226h-116v657q0 43 11 81.5t32 67.5t51 46.5t68 17.5h56l130 -76l130 76h56q38 0 68 -17.5t51 -46.5t32 -67.5t11 -81.5v-657h-116v655q0 45 -18.5 66.5t-55.5 31.5l-158 -86
z" />
    <glyph glyph-name="khorakhangthai" unicode="&#xa6;" horiz-adv-x="873" 
d="M783 866v-647q0 -104 -57 -161.5t-159 -57.5h-138q-16 0 -29 7l-186 109v-116h-116v363q0 21 4.5 42t18.5 41l164 230v67l-115 -74h-100v197h107v-86l136 86h88v-227l-180 -252q-5 -10 -5 -23v-114h-1l230 -133h122q52 0 76 24.5t24 78.5v646h116z" />
    <glyph glyph-name="khorakhangthai" unicode="&#xe06;" horiz-adv-x="873" 
d="M783 866v-647q0 -104 -57 -161.5t-159 -57.5h-138q-16 0 -29 7l-186 109v-116h-116v363q0 21 4.5 42t18.5 41l164 230v67l-115 -74h-100v197h107v-86l136 86h88v-227l-180 -252q-5 -10 -5 -23v-114h-1l230 -133h122q52 0 76 24.5t24 78.5v646h116z" />
    <glyph glyph-name="ngonguthai" unicode="&#xa7;" horiz-adv-x="737" 
d="M649 659q8 -58 8 -113.5v-111.5q0 -57 -1 -112.5t-7 -112.5q-11 -102 -70.5 -155.5t-161.5 -53.5h-155l-219 485h123l167 -369h84q57 0 83.5 24.5t33.5 81.5q6 53 6 105v105q0 54 -0.5 105.5t-5.5 103.5q-6 30 -14.5 51t-22 33.5t-33.5 18t-47 5.5h-85v117h85
q100 0 158.5 -52t73.5 -155z" />
    <glyph glyph-name="ngonguthai" unicode="&#xe07;" horiz-adv-x="737" 
d="M649 659q8 -58 8 -113.5v-111.5q0 -57 -1 -112.5t-7 -112.5q-11 -102 -70.5 -155.5t-161.5 -53.5h-155l-219 485h123l167 -369h84q57 0 83.5 24.5t33.5 81.5q6 53 6 105v105q0 54 -0.5 105.5t-5.5 103.5q-6 30 -14.5 51t-22 33.5t-33.5 18t-47 5.5h-85v117h85
q100 0 158.5 -52t73.5 -155z" />
    <glyph glyph-name="chochanthai" unicode="&#xa8;" horiz-adv-x="801" 
d="M713 661q6 -57 7 -113.5t1 -113.5t-1 -112t-7 -112q-5 -47 -23.5 -86t-51.5 -66.5t-80.5 -42.5t-111.5 -15h-158l-113 370h-95v116h177l113 -370h76q69 0 108 28t44 78q6 53 6.5 105t0.5 105t0.5 105.5t-7.5 104.5q-5 36 -19.5 58t-35 34t-45.5 16.5t-51 5.5
q-92 5 -182 -6t-185 -29v119q102 23 191.5 28t179.5 5q39 -2 81 -11.5t79 -33t64.5 -64t37.5 -103.5z" />
    <glyph glyph-name="chochanthai" unicode="&#xe08;" horiz-adv-x="801" 
d="M713 661q6 -57 7 -113.5t1 -113.5t-1 -112t-7 -112q-5 -47 -23.5 -86t-51.5 -66.5t-80.5 -42.5t-111.5 -15h-158l-113 370h-95v116h177l113 -370h76q69 0 108 28t44 78q6 53 6.5 105t0.5 105t0.5 105.5t-7.5 104.5q-5 36 -19.5 58t-35 34t-45.5 16.5t-51 5.5
q-92 5 -182 -6t-185 -29v119q102 23 191.5 28t179.5 5q39 -2 81 -11.5t79 -33t64.5 -64t37.5 -103.5z" />
    <glyph glyph-name="chochingthai" unicode="&#xa9;" horiz-adv-x="823" 
d="M472 872q50 -2 97 -18.5t83.5 -46.5t58.5 -73t22 -98v-636h-117v115l-184 -108q-13 -7 -29 -7h-97q-49 0 -89 15t-68 43.5t-43.5 69t-15.5 91.5v241h116v-241q0 -56 23 -79.5t77 -23.5h81l229 133v387q0 20 -8 40.5t-25.5 37.5t-45.5 28t-69 13q-100 4 -189 -7t-179 -28
v119q89 16 177.5 26.5t194.5 6.5z" />
    <glyph glyph-name="chochingthai" unicode="&#xe09;" horiz-adv-x="823" 
d="M472 872q50 -2 97 -18.5t83.5 -46.5t58.5 -73t22 -98v-636h-117v115l-184 -108q-13 -7 -29 -7h-97q-49 0 -89 15t-68 43.5t-43.5 69t-15.5 91.5v241h116v-241q0 -56 23 -79.5t77 -23.5h81l229 133v387q0 20 -8 40.5t-25.5 37.5t-45.5 28t-69 13q-100 4 -189 -7t-179 -28
v119q89 16 177.5 26.5t194.5 6.5z" />
    <glyph glyph-name="chochangthai" unicode="&#xaa;" horiz-adv-x="798" 
d="M708 512v-260q0 -60 -19 -107.5t-54 -80.5t-85 -51t-112 -18h-78q-62 0 -112 18t-85 51t-54 80.5t-19 107.5v127q0 44 19 79l126 231v60h-128v117h196q20 0 34 -14t14 -34v-131q0 -27 -13 -53l-126 -229q-6 -12 -6 -26v-127q0 -45 14.5 -72.5t37 -42.5t50 -20.5
t52.5 -5.5h78q24 0 51 5t50 20t38 42.5t15 73.5v223l-137 206l175 210l89 -74l-130 -143z" />
    <glyph glyph-name="chochangthai" unicode="&#xe0a;" horiz-adv-x="798" 
d="M708 512v-260q0 -60 -19 -107.5t-54 -80.5t-85 -51t-112 -18h-78q-62 0 -112 18t-85 51t-54 80.5t-19 107.5v127q0 44 19 79l126 231v60h-128v117h196q20 0 34 -14t14 -34v-131q0 -27 -13 -53l-126 -229q-6 -12 -6 -26v-127q0 -45 14.5 -72.5t37 -42.5t50 -20.5
t52.5 -5.5h78q24 0 51 5t50 20t38 42.5t15 73.5v223l-137 206l175 210l89 -74l-130 -143z" />
    <glyph glyph-name="sosothai" unicode="&#xab;" horiz-adv-x="807" 
d="M464 681l175 210l89 -74l-130 -143l119 -162v-260q0 -60 -18.5 -107.5t-53.5 -80.5t-85 -51t-112 -18h-78q-63 0 -113 18t-85 51t-53.5 80.5t-18.5 107.5v111q0 42 19 79l169 234v67l-118 -74h-100v197h107v-86l136 86h88v-227l-180 -253q-5 -13 -5 -23v-111
q0 -45 14.5 -72.5t37 -42.5t50 -20.5t52.5 -5.5h78q24 0 51 5t49.5 20.5t37.5 43t15 72.5v223z" />
    <glyph glyph-name="sosothai" unicode="&#xe0b;" horiz-adv-x="807" 
d="M464 681l175 210l89 -74l-130 -143l119 -162v-260q0 -60 -18.5 -107.5t-53.5 -80.5t-85 -51t-112 -18h-78q-63 0 -113 18t-85 51t-53.5 80.5t-18.5 107.5v111q0 42 19 79l169 234v67l-118 -74h-100v197h107v-86l136 86h88v-227l-180 -253q-5 -13 -5 -23v-111
q0 -45 14.5 -72.5t37 -42.5t50 -20.5t52.5 -5.5h78q24 0 51 5t49.5 20.5t37.5 43t15 72.5v223z" />
    <glyph glyph-name="chochoethai" unicode="&#xac;" horiz-adv-x="1273" 
d="M1183 866v-647q0 -51 -15.5 -92t-44 -69t-68.5 -43t-89 -15h-83q-9 0 -16.5 1t-14.5 6l-124 104v-111h-117v627q0 20 -8 42t-27 41t-50.5 32t-77.5 15q-35 1 -62 1t-54.5 -2t-59 -6.5t-75.5 -11.5l17 -173v-384q0 -41 12.5 -53t38.5 -12h94v-116h-94q-79 0 -123 47.5
t-44 133.5v382l-18 271l97.5 18t90.5 13.5t92.5 7.5t102.5 0q52 -2 100 -19.5t85 -49.5t58.5 -76.5t21.5 -100.5v-375l170 -136h68q54 0 77 23.5t23 79.5v647h117z" />
    <glyph glyph-name="chochoethai" unicode="&#xe0c;" horiz-adv-x="1273" 
d="M1183 866v-647q0 -51 -15.5 -92t-44 -69t-68.5 -43t-89 -15h-83q-9 0 -16.5 1t-14.5 6l-124 104v-111h-117v627q0 20 -8 42t-27 41t-50.5 32t-77.5 15q-35 1 -62 1t-54.5 -2t-59 -6.5t-75.5 -11.5l17 -173v-384q0 -41 12.5 -53t38.5 -12h94v-116h-94q-79 0 -123 47.5
t-44 133.5v382l-18 271l97.5 18t90.5 13.5t92.5 7.5t102.5 0q52 -2 100 -19.5t85 -49.5t58.5 -76.5t21.5 -100.5v-375l170 -136h68q54 0 77 23.5t23 79.5v647h117z" />
    <glyph glyph-name="dochadathai" unicode="&#xae;" horiz-adv-x="883" 
d="M793 -117q0 -56 -22 -98.5t-59.5 -72t-87 -46t-105.5 -20.5q-87 -5 -173.5 5t-183.5 28v119q86 -17 171.5 -28t181.5 -8q46 1 77 13t49.5 29t26.5 38t8 41v743q0 20 -8 42t-27 41t-50.5 32t-77.5 15q-35 1 -64 1t-58.5 -2t-62.5 -6.5t-77 -11.5l17 -173v-469
q0 -40 -27.5 -67.5t-67.5 -27.5h-123v116h84q7 0 12 4.5t5 12.5v429l-25 271q52 10 100.5 18t97 13.5t98.5 7.5t106 0q52 -2 100 -19.5t85 -49.5t58.5 -76.5t21.5 -100.5v-743z" />
    <glyph glyph-name="dochadathai" unicode="&#xe0e;" horiz-adv-x="883" 
d="M793 -117q0 -56 -22 -98.5t-59.5 -72t-87 -46t-105.5 -20.5q-87 -5 -173.5 5t-183.5 28v119q86 -17 171.5 -28t181.5 -8q46 1 77 13t49.5 29t26.5 38t8 41v743q0 20 -8 42t-27 41t-50.5 32t-77.5 15q-35 1 -64 1t-58.5 -2t-62.5 -6.5t-77 -11.5l17 -173v-469
q0 -40 -27.5 -67.5t-67.5 -27.5h-123v116h84q7 0 12 4.5t5 12.5v429l-25 271q52 10 100.5 18t97 13.5t98.5 7.5t106 0q52 -2 100 -19.5t85 -49.5t58.5 -76.5t21.5 -100.5v-743z" />
    <glyph glyph-name="topatakthai" unicode="&#xaf;" horiz-adv-x="883" 
d="M793 -145q0 -48 -14 -86.5t-39.5 -66t-62 -42.5t-81.5 -15q-64 0 -105 19.5t-65 45.5q-48 -59 -120 -65q-52 -2 -100 4t-101 22v123q45 -16 90.5 -25.5t103.5 -6.5q24 2 43.5 32.5t19.5 87.5h117q0 -54 30 -87t87 -33q30 0 46.5 11t24 26t9 31t1.5 25l-1 771
q0 20 -8.5 42t-27.5 41t-50.5 32t-77.5 15q-35 1 -64 1t-58 -2t-62 -6.5t-77 -11.5l17 -173v-469q0 -20 -7.5 -37.5t-20.5 -30t-30.5 -20t-36.5 -7.5h-123v116h83q8 0 13 4.5t5 12.5v429l-26 271q52 10 100.5 18t97 13.5t99 7.5t105.5 0q52 -2 100.5 -19.5t85 -49.5
t58.5 -76.5t22 -100.5v-771z" />
    <glyph glyph-name="topatakthai" unicode="&#xe0f;" horiz-adv-x="883" 
d="M793 -145q0 -48 -14 -86.5t-39.5 -66t-62 -42.5t-81.5 -15q-64 0 -105 19.5t-65 45.5q-48 -59 -120 -65q-52 -2 -100 4t-101 22v123q45 -16 90.5 -25.5t103.5 -6.5q24 2 43.5 32.5t19.5 87.5h117q0 -54 30 -87t87 -33q30 0 46.5 11t24 26t9 31t1.5 25l-1 771
q0 20 -8.5 42t-27.5 41t-50.5 32t-77.5 15q-35 1 -64 1t-58 -2t-62 -6.5t-77 -11.5l17 -173v-469q0 -20 -7.5 -37.5t-20.5 -30t-30.5 -20t-36.5 -7.5h-123v116h83q8 0 13 4.5t5 12.5v429l-26 271q52 10 100.5 18t97 13.5t99 7.5t105.5 0q52 -2 100.5 -19.5t85 -49.5
t58.5 -76.5t22 -100.5v-771z" />
    <glyph glyph-name="thothanthai" unicode="&#xb0;" horiz-adv-x="806" 
d="M798 783l-122 -18q14 -21 23.5 -47t14.5 -60q22 -224 0 -450q-6 -58 -33 -103t-76 -72l119 -114l1 -81q0 -45 -13.5 -82t-39 -63.5t-60 -41.5t-76.5 -15q-59 0 -97.5 18.5t-61.5 42.5q-22 -27 -51.5 -43t-68.5 -18q-43 -4 -85 2.5t-92 21.5v124q41 -17 83 -25t94 -6
q18 1 28.5 14.5t16.5 32t8.5 38.5t2.5 34h117q0 -50 25 -84.5t81 -34.5q24 0 38 9t21.5 21.5t10 27.5t2.5 27v33l-122 129h-197l-113 370h-96v115v1h178l113 -370h77q69 0 107.5 27.5t43.5 77.5q11 106 11.5 212t-11.5 209q-6 36 -20.5 58t-35 34t-45 16.5t-50.5 5.5
q-44 2 -87.5 0.5t-88.5 -6t-92.5 -12t-99.5 -17.5v119q89 16 177.5 26.5t194.5 6.5q26 -1 53.5 -5t53.5 -14l239 46v-117z" />
    <glyph glyph-name="thothanthai" unicode="&#xe10;" horiz-adv-x="806" 
d="M798 783l-122 -18q14 -21 23.5 -47t14.5 -60q22 -224 0 -450q-6 -58 -33 -103t-76 -72l119 -114l1 -81q0 -45 -13.5 -82t-39 -63.5t-60 -41.5t-76.5 -15q-59 0 -97.5 18.5t-61.5 42.5q-22 -27 -51.5 -43t-68.5 -18q-43 -4 -85 2.5t-92 21.5v124q41 -17 83 -25t94 -6
q18 1 28.5 14.5t16.5 32t8.5 38.5t2.5 34h117q0 -50 25 -84.5t81 -34.5q24 0 38 9t21.5 21.5t10 27.5t2.5 27v33l-122 129h-197l-113 370h-96v115v1h178l113 -370h77q69 0 107.5 27.5t43.5 77.5q11 106 11.5 212t-11.5 209q-6 36 -20.5 58t-35 34t-45 16.5t-50.5 5.5
q-44 2 -87.5 0.5t-88.5 -6t-92.5 -12t-99.5 -17.5v119q89 16 177.5 26.5t194.5 6.5q26 -1 53.5 -5t53.5 -14l239 46v-117z" />
    <glyph glyph-name="thonangmonthothai" unicode="&#xb1;" horiz-adv-x="930" 
d="M623 866q49 0 89 -15t68.5 -43t44 -69t15.5 -92v-647h-116v647q0 55 -23.5 79t-77.5 24h-44l-296 -283v-467h-116v516l108 103v124l-115 -74h-100v197h106v-86l136 86h89v-135l141 135h91v0z" />
    <glyph glyph-name="thonangmonthothai" unicode="&#xe11;" horiz-adv-x="930" 
d="M623 866q49 0 89 -15t68.5 -43t44 -69t15.5 -92v-647h-116v647q0 55 -23.5 79t-77.5 24h-44l-296 -283v-467h-116v516l108 103v124l-115 -74h-100v197h106v-86l136 86h89v-135l141 135h91v0z" />
    <glyph glyph-name="thophuthaothai" unicode="&#xb2;" horiz-adv-x="1332" 
d="M378 391v128h122v-165l-302 -354h-108v657q0 43 11 81.5t32 67.5t51 46.5t68 17.5h56l130 -76l130 76h56q38 0 68 -17.5t51 -46.5t32.5 -67.5t11.5 -81.5v-404l170 -136h68q54 0 77 23.5t23 79.5v646h117v-647q0 -51 -15.5 -92t-44 -69t-68.5 -43t-89 -15h-83
q-9 0 -16.5 1t-14.5 6l-124 104v-111h-117v655q0 45 -18.5 66.5t-55.5 31.5l-158 -86l-158 86q-37 -10 -55.5 -31.5t-18.5 -66.5v-466z" />
    <glyph glyph-name="thophuthaothai" unicode="&#xe12;" horiz-adv-x="1332" 
d="M378 391v128h122v-165l-302 -354h-108v657q0 43 11 81.5t32 67.5t51 46.5t68 17.5h56l130 -76l130 76h56q38 0 68 -17.5t51 -46.5t32.5 -67.5t11.5 -81.5v-404l170 -136h68q54 0 77 23.5t23 79.5v646h117v-647q0 -51 -15.5 -92t-44 -69t-68.5 -43t-89 -15h-83
q-9 0 -16.5 1t-14.5 6l-124 104v-111h-117v655q0 45 -18.5 66.5t-55.5 31.5l-158 -86l-158 86q-37 -10 -55.5 -31.5t-18.5 -66.5v-466z" />
    <glyph glyph-name="nonenthai" unicode="&#xb3;" horiz-adv-x="1273" 
d="M1183 866v-866h-117v111l-144 -104q-7 -5 -14.5 -6t-16.5 -1h-63q-49 0 -89 15t-68.5 43t-44 69t-15.5 92v408q0 20 -8 42t-27 41t-50.5 32t-77.5 15q-35 1 -62 1t-54.5 -2t-59 -6.5t-75.5 -11.5l17 -173v-384q0 -41 12.5 -53t38.5 -12h94v-116h-94q-79 0 -123 47.5
t-44 133.5v382l-18 271l97.5 18t90.5 13.5t92.5 7.5t102.5 0q52 -2 100 -19.5t85 -49.5t58.5 -76.5t21.5 -100.5v-408q0 -56 23 -79.5t77 -23.5h48l190 136v614h117z" />
    <glyph glyph-name="nonenthai" unicode="&#xe13;" horiz-adv-x="1273" 
d="M1183 866v-866h-117v111l-144 -104q-7 -5 -14.5 -6t-16.5 -1h-63q-49 0 -89 15t-68.5 43t-44 69t-15.5 92v408q0 20 -8 42t-27 41t-50.5 32t-77.5 15q-35 1 -62 1t-54.5 -2t-59 -6.5t-75.5 -11.5l17 -173v-384q0 -41 12.5 -53t38.5 -12h94v-116h-94q-79 0 -123 47.5
t-44 133.5v382l-18 271l97.5 18t90.5 13.5t92.5 7.5t102.5 0q52 -2 100 -19.5t85 -49.5t58.5 -76.5t21.5 -100.5v-408q0 -56 23 -79.5t77 -23.5h48l190 136v614h117z" />
    <glyph glyph-name="dodekthai" unicode="&#xb4;" horiz-adv-x="878" 
d="M439 873q60 0 122.5 -14t112.5 -45.5t82 -82t32 -124.5v-607h-116v607q0 75 -62.5 112.5t-170.5 37.5t-170.5 -37.5t-62.5 -112.5v-418l172 202v128h122v-165l-302 -354h-108v607q0 72 30 122.5t79.5 82.5t112 46.5t127.5 14.5z" />
    <glyph glyph-name="dodekthai" unicode="&#xe14;" horiz-adv-x="878" 
d="M439 873q60 0 122.5 -14t112.5 -45.5t82 -82t32 -124.5v-607h-116v607q0 75 -62.5 112.5t-170.5 37.5t-170.5 -37.5t-62.5 -112.5v-418l172 202v128h122v-165l-302 -354h-108v607q0 72 30 122.5t79.5 82.5t112 46.5t127.5 14.5z" />
    <glyph glyph-name="totaothai" unicode="&#xb5;" horiz-adv-x="876" 
d="M378 391v128h122v-165l-302 -354h-108v657q0 43 11 81.5t32 67.5t51 46.5t68 17.5h56l130 -76l130 76h56q38 0 68 -17.5t51 -46.5t32 -67.5t11 -81.5v-657h-116v655q0 45 -18.5 66.5t-55.5 31.5l-158 -86l-158 86q-37 -10 -55.5 -31.5t-18.5 -66.5v-466z" />
    <glyph glyph-name="totaothai" unicode="&#xe15;" horiz-adv-x="876" 
d="M378 391v128h122v-165l-302 -354h-108v657q0 43 11 81.5t32 67.5t51 46.5t68 17.5h56l130 -76l130 76h56q38 0 68 -17.5t51 -46.5t32 -67.5t11 -81.5v-657h-116v655q0 45 -18.5 66.5t-55.5 31.5l-158 -86l-158 86q-37 -10 -55.5 -31.5t-18.5 -66.5v-466z" />
    <glyph glyph-name="thothungthai" unicode="&#xb6;" horiz-adv-x="857" 
d="M767 0h-116v626q0 20 -8.5 42t-27.5 41t-50.5 32t-77.5 15q-35 1 -68.5 1t-68 -2t-72 -6.5t-81.5 -11.5l16 -173v-384q0 -41 12.5 -53t38.5 -12h95v-116h-95q-79 0 -123 47.5t-44 133.5v382l-17 271q104 20 207.5 31.5t214.5 7.5q52 -2 100 -19.5t85 -49.5t58.5 -76.5
t21.5 -100.5v-626z" />
    <glyph glyph-name="thothungthai" unicode="&#xe16;" horiz-adv-x="857" 
d="M767 0h-116v626q0 20 -8.5 42t-27.5 41t-50.5 32t-77.5 15q-35 1 -68.5 1t-68 -2t-72 -6.5t-81.5 -11.5l16 -173v-384q0 -41 12.5 -53t38.5 -12h95v-116h-95q-79 0 -123 47.5t-44 133.5v382l-17 271q104 20 207.5 31.5t214.5 7.5q52 -2 100 -19.5t85 -49.5t58.5 -76.5
t21.5 -100.5v-626z" />
    <glyph glyph-name="thothahanthai" unicode="&#xb7;" horiz-adv-x="866" 
d="M559 866q49 0 89 -15t68.5 -43.5t44 -69t15.5 -91.5v-647h-117v647q0 55 -23 79t-77 24h-122l-231 -135v-615h-116v866h116v-116l186 108q12 8 30 8h137v0z" />
    <glyph glyph-name="thothahanthai" unicode="&#x2219;" horiz-adv-x="866" 
d="M559 866q49 0 89 -15t68.5 -43.5t44 -69t15.5 -91.5v-647h-117v647q0 55 -23 79t-77 24h-122l-231 -135v-615h-116v866h116v-116l186 108q12 8 30 8h137v0z" />
    <glyph glyph-name="thothahanthai" unicode="&#xe17;" horiz-adv-x="866" 
d="M559 866q49 0 89 -15t68.5 -43.5t44 -69t15.5 -91.5v-647h-117v647q0 55 -23 79t-77 24h-122l-231 -135v-615h-116v866h116v-116l186 108q12 8 30 8h137v0z" />
    <glyph glyph-name="thothongthai" unicode="&#xb8;" horiz-adv-x="778" 
d="M617 456q33 -11 52 -41t19 -65v-134q0 -48 -17.5 -89t-50 -70t-77 -45.5t-98.5 -16.5q-72 0 -127.5 4t-97.5 9.5t-72 11.5t-50 9v288h117v-187q52 -11 107.5 -14t122.5 -5q61 -2 94 27t33 78v133l-411 135q-33 11 -52 41.5t-19 65.5v62q0 48 18 88.5t50 70t76.5 45.5
t98.5 16h65q84 0 155 -11t116 -19v-119q-8 2 -34.5 7t-64 10.5t-82.5 10t-89 4.5h-66q-61 0 -94 -26.5t-33 -76.5v-62z" />
    <glyph glyph-name="thothongthai" unicode="&#xe18;" horiz-adv-x="778" 
d="M617 456q33 -11 52 -41t19 -65v-134q0 -48 -17.5 -89t-50 -70t-77 -45.5t-98.5 -16.5q-72 0 -127.5 4t-97.5 9.5t-72 11.5t-50 9v288h117v-187q52 -11 107.5 -14t122.5 -5q61 -2 94 27t33 78v133l-411 135q-33 11 -52 41.5t-19 65.5v62q0 48 18 88.5t50 70t76.5 45.5
t98.5 16h65q84 0 155 -11t116 -19v-119q-8 2 -34.5 7t-64 10.5t-82.5 10t-89 4.5h-66q-61 0 -94 -26.5t-33 -76.5v-62z" />
    <glyph glyph-name="nonuthai" unicode="&#xb9;" horiz-adv-x="865" 
d="M775 866v-866h-116v116l-186 -109q-13 -7 -29 -7h-138q-50 0 -90 15t-68 43.5t-43 69t-15 91.5v647h116v-647q0 -56 23 -79.5t77 -23.5h122l231 134v616h116z" />
    <glyph glyph-name="nonuthai" unicode="&#xe19;" horiz-adv-x="865" 
d="M775 866v-866h-116v116l-186 -109q-13 -7 -29 -7h-138q-50 0 -90 15t-68 43.5t-43 69t-15 91.5v647h116v-647q0 -56 23 -79.5t77 -23.5h122l231 134v616h116z" />
    <glyph glyph-name="bobaimaithai" unicode="&#xba;" horiz-adv-x="859" 
d="M769 866v-614q0 -60 -19 -107.5t-54 -80.5t-85 -51t-112 -18h-140q-62 0 -112 18t-85 51t-53.5 80.5t-18.5 107.5v614h116v-614q0 -45 15 -72.5t37.5 -43t49.5 -20.5t51 -5h140q24 0 51 5t49.5 20t37.5 42.5t15 73.5v614h117z" />
    <glyph glyph-name="bobaimaithai" unicode="&#xe1a;" horiz-adv-x="859" 
d="M769 866v-614q0 -60 -19 -107.5t-54 -80.5t-85 -51t-112 -18h-140q-62 0 -112 18t-85 51t-53.5 80.5t-18.5 107.5v614h116v-614q0 -45 15 -72.5t37.5 -43t49.5 -20.5t51 -5h140q24 0 51 5t49.5 20t37.5 42.5t15 73.5v614h117z" />
    <glyph glyph-name="poplathai" unicode="&#xbb;" horiz-adv-x="859" 
d="M769 1105v-853q0 -60 -19 -107.5t-54 -80.5t-85 -51t-112 -18h-140q-62 0 -112 18t-85 51t-53.5 80.5t-18.5 107.5v614h116v-614q0 -45 15 -72.5t37.5 -43t49.5 -20.5t51 -5h140q24 0 51 5t49.5 20t37.5 42.5t15 73.5v853h117z" />
    <glyph glyph-name="poplathai" unicode="&#xe1b;" horiz-adv-x="859" 
d="M769 1105v-853q0 -60 -19 -107.5t-54 -80.5t-85 -51t-112 -18h-140q-62 0 -112 18t-85 51t-53.5 80.5t-18.5 107.5v614h116v-614q0 -45 15 -72.5t37.5 -43t49.5 -20.5t51 -5h140q24 0 51 5t49.5 20t37.5 42.5t15 73.5v853h117z" />
    <glyph glyph-name="phophungthai" unicode="&#xbc;" horiz-adv-x="1066" 
d="M996 866l-105 -866h-189l-169 670l-169 -670h-190l-104 866h237v-117h-106l77 -639l167 661h176l167 -661l91 756h117z" />
    <glyph glyph-name="phophungthai" unicode="&#xe1c;" horiz-adv-x="1066" 
d="M996 866l-105 -866h-189l-169 670l-169 -670h-190l-104 866h237v-117h-106l77 -639l167 661h176l167 -661l91 756h117z" />
    <glyph glyph-name="fofathai" unicode="&#xbd;" horiz-adv-x="1066" 
d="M1024 1105l-133 -1105h-189l-169 670l-169 -670h-190l-104 866h237v-117h-106l77 -639l167 661h176l167 -661l119 995h117z" />
    <glyph glyph-name="fofathai" unicode="&#xe1d;" horiz-adv-x="1066" 
d="M1024 1105l-133 -1105h-189l-169 670l-169 -670h-190l-104 866h237v-117h-106l77 -639l167 661h176l167 -661l119 995h117z" />
    <glyph glyph-name="phophanthai" unicode="&#xbe;" horiz-adv-x="1066" 
d="M996 866l-105 -866h-190l-169 670l-168 -670h-190l-104 866h116l91 -756l167 661h177l166 -661l92 756h117z" />
    <glyph glyph-name="phophanthai" unicode="&#xe1e;" horiz-adv-x="1066" 
d="M996 866l-105 -866h-190l-169 670l-168 -670h-190l-104 866h116l91 -756l167 661h177l166 -661l92 756h117z" />
    <glyph glyph-name="fofanthai" unicode="&#xbf;" horiz-adv-x="1067" 
d="M1026 1105l-135 -1105h-190l-169 670l-168 -670h-190l-104 866h116l91 -756l167 661h177l166 -661l122 995h117z" />
    <glyph glyph-name="fofanthai" unicode="&#xe1f;" horiz-adv-x="1067" 
d="M1026 1105l-135 -1105h-190l-169 670l-168 -670h-190l-104 866h116l91 -756l167 661h177l166 -661l122 995h117z" />
    <glyph glyph-name="phosamphaothai" unicode="&#xc0;" horiz-adv-x="883" 
d="M527 872q53 -2 101 -19.5t85 -49.5t58.5 -76.5t21.5 -100.5v-625h-117v625q0 20 -8 42t-27 41t-50.5 32t-77.5 15q-35 1 -64 1t-58.5 -2t-62.5 -6.5t-77 -11.5l17 -173v-469q0 -20 -7.5 -37.5t-20.5 -30t-30.5 -20t-36.5 -7.5h-123v116h84q17 0 17 17v429l-25 271
q52 10 100.5 18t97 13.5t98.5 7.5t105 0z" />
    <glyph glyph-name="phosamphaothai" unicode="&#xe20;" horiz-adv-x="883" 
d="M527 872q53 -2 101 -19.5t85 -49.5t58.5 -76.5t21.5 -100.5v-625h-117v625q0 20 -8 42t-27 41t-50.5 32t-77.5 15q-35 1 -64 1t-58.5 -2t-62.5 -6.5t-77 -11.5l17 -173v-469q0 -20 -7.5 -37.5t-20.5 -30t-30.5 -20t-36.5 -7.5h-123v116h84q17 0 17 17v429l-25 271
q52 10 100.5 18t97 13.5t98.5 7.5t105 0z" />
    <glyph glyph-name="momathai" unicode="&#xc1;" horiz-adv-x="865" 
d="M206 866v-615l230 -134h122q54 0 77.5 23.5t23.5 79.5v646h116v-647q0 -51 -15.5 -92t-44 -69t-68.5 -43t-89 -15h-137q-17 0 -30 7l-185 109v-116h-116v866h116z" />
    <glyph glyph-name="momathai" unicode="&#xe21;" horiz-adv-x="865" 
d="M206 866v-615l230 -134h122q54 0 77.5 23.5t23.5 79.5v646h116v-647q0 -51 -15.5 -92t-44 -69t-68.5 -43t-89 -15h-137q-17 0 -30 7l-185 109v-116h-116v866h116z" />
    <glyph glyph-name="yoyakthai" unicode="&#xc2;" horiz-adv-x="820" 
d="M730 252q0 -63 -19 -111t-53.5 -80.5t-82 -49t-104.5 -16.5h-132q-60 0 -108 18t-81.5 51t-51.5 80.5t-18 107.5v53q0 68 29.5 118.5t82.5 78.5l-104 129v187q0 20 14.5 34t34.5 14h172v-117h-105v-3v-75l113 -140h2h103v-116h-103q-17 0 -38.5 -3.5t-40 -15.5t-31 -33.5
t-12.5 -57.5v-53q0 -141 142 -141h132q142 0 142 141v614h117v-614z" />
    <glyph glyph-name="yoyakthai" unicode="&#xe22;" horiz-adv-x="820" 
d="M730 252q0 -63 -19 -111t-53.5 -80.5t-82 -49t-104.5 -16.5h-132q-60 0 -108 18t-81.5 51t-51.5 80.5t-18 107.5v53q0 68 29.5 118.5t82.5 78.5l-104 129v187q0 20 14.5 34t34.5 14h172v-117h-105v-3v-75l113 -140h2h103v-116h-103q-17 0 -38.5 -3.5t-40 -15.5t-31 -33.5
t-12.5 -57.5v-53q0 -141 142 -141h132q142 0 142 141v614h117v-614z" />
    <glyph glyph-name="roruathai" unicode="&#xc3;" horiz-adv-x="735" 
d="M592 380q30 -16 49 -43.5t19 -61.5v-67q0 -47 -18 -86.5t-49.5 -67.5t-75 -43.5t-95.5 -15.5h-51q-27 0 -65.5 3t-79 7.5t-78 9.5t-61.5 10v119q68 -12 135 -22t148 -10l52 -1q58 -2 90 26.5t32 77.5v60l-402 210q-30 16 -48.5 43.5t-18.5 61.5v63q0 48 17 88t48.5 69.5
t75 46t96.5 16.5h64q83 0 151 -11t113 -19v-119q-58 11 -119.5 21.5t-143.5 10.5h-65q-58 0 -89.5 -26.5t-31.5 -76.5v-63z" />
    <glyph glyph-name="roruathai" unicode="&#xe23;" horiz-adv-x="735" 
d="M592 380q30 -16 49 -43.5t19 -61.5v-67q0 -47 -18 -86.5t-49.5 -67.5t-75 -43.5t-95.5 -15.5h-51q-27 0 -65.5 3t-79 7.5t-78 9.5t-61.5 10v119q68 -12 135 -22t148 -10l52 -1q58 -2 90 26.5t32 77.5v60l-402 210q-30 16 -48.5 43.5t-18.5 61.5v63q0 48 17 88t48.5 69.5
t75 46t96.5 16.5h64q83 0 151 -11t113 -19v-119q-58 11 -119.5 21.5t-143.5 10.5h-65q-58 0 -89.5 -26.5t-31.5 -76.5v-63z" />
    <glyph glyph-name="ruthai" unicode="&#xc4;" horiz-adv-x="857" 
d="M767 -300h-116v926q0 20 -8.5 42t-27.5 41t-50.5 32t-77.5 15q-35 1 -68.5 1t-68 -2t-72 -6.5t-81.5 -11.5l16 -173v-384q0 -41 12.5 -53t38.5 -12h95v-116h-95q-79 0 -123 47.5t-44 133.5v382l-17 271q104 20 207.5 31.5t214.5 7.5q52 -2 100 -19.5t85 -49.5t58.5 -76.5
t21.5 -100.5v-926z" />
    <glyph glyph-name="ruthai" unicode="&#xe24;" horiz-adv-x="857" 
d="M767 -300h-116v926q0 20 -8.5 42t-27.5 41t-50.5 32t-77.5 15q-35 1 -68.5 1t-68 -2t-72 -6.5t-81.5 -11.5l16 -173v-384q0 -41 12.5 -53t38.5 -12h95v-116h-95q-79 0 -123 47.5t-44 133.5v382l-17 271q104 20 207.5 31.5t214.5 7.5q52 -2 100 -19.5t85 -49.5t58.5 -76.5
t21.5 -100.5v-926z" />
    <glyph glyph-name="lolingthai" unicode="&#xc5;" horiz-adv-x="852" 
d="M502 872q51 -2 98 -18t83 -46t57.5 -73t21.5 -99v-636h-116v338l-339 68q-54 -2 -82.5 -27.5t-28.5 -72.5v-90q0 -48 30.5 -74t85.5 -26h126v-116h-126q-46 0 -88 15t-74 43t-51 68t-19 90v90q0 49 18 89t49.5 68t74 43.5t90.5 15.5q1 0 3.5 -0.5l12.5 -2.5t30.5 -5.5
t57 -11l92.5 -18.5l138 -27v179q0 20 -8 40.5t-25.5 37.5t-46 28t-69.5 13q-100 4 -188.5 -7t-178.5 -28v119q88 16 177 26.5t195 6.5z" />
    <glyph glyph-name="lolingthai" unicode="&#xe25;" horiz-adv-x="852" 
d="M502 872q51 -2 98 -18t83 -46t57.5 -73t21.5 -99v-636h-116v338l-339 68q-54 -2 -82.5 -27.5t-28.5 -72.5v-90q0 -48 30.5 -74t85.5 -26h126v-116h-126q-46 0 -88 15t-74 43t-51 68t-19 90v90q0 49 18 89t49.5 68t74 43.5t90.5 15.5q1 0 3.5 -0.5l12.5 -2.5t30.5 -5.5
t57 -11l92.5 -18.5l138 -27v179q0 20 -8 40.5t-25.5 37.5t-46 28t-69.5 13q-100 4 -188.5 -7t-178.5 -28v119q88 16 177 26.5t195 6.5z" />
    <glyph glyph-name="luthai" unicode="&#xc6;" horiz-adv-x="883" 
d="M527 872q53 -2 101 -19.5t85 -49.5t58.5 -76.5t21.5 -100.5v-926h-117v926q0 20 -8 42t-27 41t-50.5 32t-77.5 15q-35 1 -64 1t-58.5 -2t-62.5 -6.5t-77 -11.5l17 -173v-469q0 -20 -7.5 -37.5t-20.5 -30t-30.5 -20t-36.5 -7.5h-123v116h84q17 0 17 17v429l-25 271
q52 10 100.5 18t97 13.5t98.5 7.5t105 0z" />
    <glyph glyph-name="luthai" unicode="&#xe26;" horiz-adv-x="883" 
d="M527 872q53 -2 101 -19.5t85 -49.5t58.5 -76.5t21.5 -100.5v-926h-117v926q0 20 -8 42t-27 41t-50.5 32t-77.5 15q-35 1 -64 1t-58.5 -2t-62.5 -6.5t-77 -11.5l17 -173v-469q0 -20 -7.5 -37.5t-20.5 -30t-30.5 -20t-36.5 -7.5h-123v116h84q17 0 17 17v429l-25 271
q52 10 100.5 18t97 13.5t98.5 7.5t105 0z" />
    <glyph glyph-name="wowaenthai" unicode="&#xc7;" horiz-adv-x="755" 
d="M660 647q10 -54 11.5 -108.5t1.5 -110.5q0 -52 -1.5 -104t-11.5 -106q-19 -103 -89 -161.5t-180 -63.5q-79 -5 -153 4.5t-158 26.5v120q75 -17 148 -27t158 -8q43 2 71.5 14.5t47 31.5t28 41.5t13.5 44.5q9 48 10 94.5t1 93.5q0 50 -1 99t-10 97q-4 21 -13.5 43.5
t-28 41.5t-47 31.5t-71.5 14.5q-78 4 -150.5 -5.5t-155.5 -29.5v120q78 17 152 25.5t159 5.5q110 -5 180 -63.5t89 -161.5z" />
    <glyph glyph-name="wowaenthai" unicode="&#xe27;" horiz-adv-x="755" 
d="M660 647q10 -54 11.5 -108.5t1.5 -110.5q0 -52 -1.5 -104t-11.5 -106q-19 -103 -89 -161.5t-180 -63.5q-79 -5 -153 4.5t-158 26.5v120q75 -17 148 -27t158 -8q43 2 71.5 14.5t47 31.5t28 41.5t13.5 44.5q9 48 10 94.5t1 93.5q0 50 -1 99t-10 97q-4 21 -13.5 43.5
t-28 41.5t-47 31.5t-71.5 14.5q-78 4 -150.5 -5.5t-155.5 -29.5v120q78 17 152 25.5t159 5.5q110 -5 180 -63.5t89 -161.5z" />
    <glyph glyph-name="sosalathai" unicode="&#xc8;" horiz-adv-x="877" 
d="M851 778l-114 -17q50 -64 50 -154v-607h-116v607q0 39 -17 67t-47.5 46.5t-73 27.5t-94.5 9q-107 0 -170 -37t-63 -113v-243l127 81q13 8 31 8h148v-116h-131l-175 -110v-227h-116v607q0 72 30 122.5t79.5 82.5t112 46.5t127.5 14.5q34 0 77.5 -5t88.5 -20l246 47v-117z
" />
    <glyph glyph-name="sosalathai" unicode="&#xe28;" horiz-adv-x="877" 
d="M851 778l-114 -17q50 -64 50 -154v-607h-116v607q0 39 -17 67t-47.5 46.5t-73 27.5t-94.5 9q-107 0 -170 -37t-63 -113v-243l127 81q13 8 31 8h148v-116h-131l-175 -110v-227h-116v607q0 72 30 122.5t79.5 82.5t112 46.5t127.5 14.5q34 0 77.5 -5t88.5 -20l246 47v-117z
" />
    <glyph glyph-name="sorusithai" unicode="&#xc9;" horiz-adv-x="859" 
d="M842 391h-73v-139q0 -60 -18.5 -107.5t-53.5 -80.5t-85 -51t-113 -18h-139q-63 0 -113 18t-85 51t-53.5 80.5t-18.5 107.5v614h116v-614q0 -45 15 -72.5t37.5 -43t50 -20.5t51.5 -5h139q25 0 52.5 5.5t50 20.5t37 42.5t14.5 72.5v139h-275v203h116v-99h159v371h116v-371
h73v-104z" />
    <glyph glyph-name="sorusithai" unicode="&#xe29;" horiz-adv-x="859" 
d="M842 391h-73v-139q0 -60 -18.5 -107.5t-53.5 -80.5t-85 -51t-113 -18h-139q-63 0 -113 18t-85 51t-53.5 80.5t-18.5 107.5v614h116v-614q0 -45 15 -72.5t37.5 -43t50 -20.5t51.5 -5h139q25 0 52.5 5.5t50 20.5t37 42.5t14.5 72.5v139h-275v203h116v-99h159v371h116v-371
h73v-104z" />
    <glyph glyph-name="sosuathai" unicode="&#xca;" horiz-adv-x="852" 
d="M844 783l-122 -18q40 -57 40 -128v-637h-116v338l-339 68q-53 -2 -82 -27.5t-29 -72.5v-90q0 -48 30 -74t86 -26h126v-116h-126q-46 0 -88 15t-74 42.5t-51 67.5t-19 91v90q0 50 18 90t49.5 68t74 43t90.5 15q1 0 3.5 -0.5l12.5 -2.5t30.5 -5.5t57 -11l92.5 -18.5
l138 -27v180q0 20 -8 40.5t-27 37.5t-50.5 28.5t-77.5 13.5q-90 4 -176 -7.5t-177 -28.5v119q88 16 175 26.5t183 6.5q38 -1 65 -6t51 -13l240 46v-117z" />
    <glyph glyph-name="sosuathai" unicode="&#xe2a;" horiz-adv-x="852" 
d="M844 783l-122 -18q40 -57 40 -128v-637h-116v338l-339 68q-53 -2 -82 -27.5t-29 -72.5v-90q0 -48 30 -74t86 -26h126v-116h-126q-46 0 -88 15t-74 42.5t-51 67.5t-19 91v90q0 50 18 90t49.5 68t74 43t90.5 15q1 0 3.5 -0.5l12.5 -2.5t30.5 -5.5t57 -11l92.5 -18.5
l138 -27v180q0 20 -8 40.5t-27 37.5t-50.5 28.5t-77.5 13.5q-90 4 -176 -7.5t-177 -28.5v119q88 16 175 26.5t183 6.5q38 -1 65 -6t51 -13l240 46v-117z" />
    <glyph glyph-name="hohipthai" unicode="&#xcb;" horiz-adv-x="829" 
d="M569 518q79 -25 123.5 -87.5t44.5 -155.5v-275h-116v275q0 72 -40 106.5t-114 34.5h-261v-416h-116v866h116v-333h240l168 331h130l-175 -346v0z" />
    <glyph glyph-name="hohipthai" unicode="&#xe2b;" horiz-adv-x="829" 
d="M569 518q79 -25 123.5 -87.5t44.5 -155.5v-275h-116v275q0 72 -40 106.5t-114 34.5h-261v-416h-116v866h116v-333h240l168 331h130l-175 -346v0z" />
    <glyph glyph-name="lochulathai" unicode="&#xcc;" horiz-adv-x="1056" 
d="M883 761l88 -95l-80 -666h-186l-172 579l-172 -579h-187l-104 867h117l91 -758l173 581h164l172 -580l62 519l-106 132l177 214l90 -74z" />
    <glyph glyph-name="lochulathai" unicode="&#xe2c;" horiz-adv-x="1056" 
d="M883 761l88 -95l-80 -666h-186l-172 579l-172 -579h-187l-104 867h117l91 -758l173 581h164l172 -580l62 519l-106 132l177 214l90 -74z" />
    <glyph glyph-name="oangthai" unicode="&#xcd;" horiz-adv-x="817" 
d="M723 660q15 -112 14 -225t-14 -230q-16 -97 -89.5 -151.5t-197.5 -59.5q-89 -5 -173 5.5t-172 47.5v450h247v-116h-131v-245q54 -16 107.5 -22t116.5 -4q162 6 177 112t15.5 212t-14.5 209q-5 36 -20 58t-37 34t-50 16.5t-59 5.5q-89 4 -174.5 -7.5t-178.5 -29.5v119
q88 17 175.5 27.5t182.5 6.5q44 -2 89.5 -11.5t83.5 -33t65.5 -64.5t36.5 -104z" />
    <glyph glyph-name="oangthai" unicode="&#xe2d;" horiz-adv-x="817" 
d="M723 660q15 -112 14 -225t-14 -230q-16 -97 -89.5 -151.5t-197.5 -59.5q-89 -5 -173 5.5t-172 47.5v450h247v-116h-131v-245q54 -16 107.5 -22t116.5 -4q162 6 177 112t15.5 212t-14.5 209q-5 36 -20 58t-37 34t-50 16.5t-59 5.5q-89 4 -174.5 -7.5t-178.5 -29.5v119
q88 17 175.5 27.5t182.5 6.5q44 -2 89.5 -11.5t83.5 -33t65.5 -64.5t36.5 -104z" />
    <glyph glyph-name="honokhukthai" unicode="&#xce;" horiz-adv-x="817" 
d="M723 660q15 -112 14 -225t-14 -230q-16 -97 -89.5 -151.5t-197.5 -59.5q-89 -5 -173 5.5t-172 47.5v450h247v-116h-131v-245q54 -16 107.5 -22t116.5 -4q162 6 177 112t15.5 212t-14.5 209q-5 36 -20 58t-37 34t-50 16.5t-59 5.5q-89 4 -174.5 -7.5t-178.5 -29.5v119
q88 17 175.5 27.5t182.5 6.5q32 -2 64.5 -7t56.5 -13l241 46v-117l-123 -18q13 -21 22 -46.5t14 -57.5z" />
    <glyph glyph-name="honokhukthai" unicode="&#xe2e;" horiz-adv-x="817" 
d="M723 660q15 -112 14 -225t-14 -230q-16 -97 -89.5 -151.5t-197.5 -59.5q-89 -5 -173 5.5t-172 47.5v450h247v-116h-131v-245q54 -16 107.5 -22t116.5 -4q162 6 177 112t15.5 212t-14.5 209q-5 36 -20 58t-37 34t-50 16.5t-59 5.5q-89 4 -174.5 -7.5t-178.5 -29.5v119
q88 17 175.5 27.5t182.5 6.5q32 -2 64.5 -7t56.5 -13l241 46v-117l-123 -18q13 -21 22 -46.5t14 -57.5z" />
    <glyph glyph-name="paiyannoithai" unicode="&#xcf;" horiz-adv-x="755" 
d="M176 614q0 -37 14.5 -58t61.5 -21h76l215 183h102v-667l-261 -191l-62 94l207 156v454l-156 -137q-14 -8 -30 -8h-91q-91 0 -141.5 51.5t-50.5 143.5v57q0 92 50.5 143.5t141.5 51.5h41v-116h-41q-47 0 -61.5 -21t-14.5 -58v-57v0z" />
    <glyph glyph-name="paiyannoithai" unicode="&#xe2f;" horiz-adv-x="755" 
d="M176 614q0 -37 14.5 -58t61.5 -21h76l215 183h102v-667l-261 -191l-62 94l207 156v454l-156 -137q-14 -8 -30 -8h-91q-91 0 -141.5 51.5t-50.5 143.5v57q0 92 50.5 143.5t141.5 51.5h41v-116h-41q-47 0 -61.5 -21t-14.5 -58v-57v0z" />
    <glyph glyph-name="saraathai" unicode="&#xd0;" horiz-adv-x="531" 
d="M461 653v-105h-391v186h116v-81h275zM461 168v-104h-391v185h116v-81h275z" />
    <glyph glyph-name="saraathai" unicode="&#xe30;" horiz-adv-x="531" 
d="M461 653v-105h-391v186h116v-81h275zM461 168v-104h-391v185h116v-81h275z" />
    <glyph glyph-name="maihanakatthai" unicode="&#xd1;" 
d="M-90 1105v-105h-492v204h116v-99h376z" />
    <glyph glyph-name="maihanakatthai" unicode="&#xe31;" 
d="M-90 1105v-105h-492v204h116v-99h376z" />
    <glyph glyph-name="saraaathai" unicode="&#xd2;" horiz-adv-x="689" 
d="M372 873q109 0 168 -60.5t59 -176.5v-636h-117v641q0 20 -6.5 40t-20.5 36t-36 26.5t-53 11.5q-81 4 -153.5 -5t-152.5 -25v119q78 17 152.5 23t159.5 6z" />
    <glyph glyph-name="saraaathai" unicode="&#xe32;" horiz-adv-x="689" 
d="M372 873q109 0 168 -60.5t59 -176.5v-636h-117v641q0 20 -6.5 40t-20.5 36t-36 26.5t-53 11.5q-81 4 -153.5 -5t-152.5 -25v119q78 17 152.5 23t159.5 6z" />
    <glyph glyph-name="saraamthai" unicode="&#xd3;" horiz-adv-x="689" 
d="M-216 938q-30 0 -56 11.5t-45.5 31t-31 45.5t-11.5 56t11.5 56.5t31 46t45.5 31t56 11.5t56.5 -11.5t46.5 -31t31.5 -46t11.5 -56.5t-11.5 -56t-31.5 -45.5t-46.5 -31t-56.5 -11.5zM-216 1137q-23 0 -38.5 -16t-15.5 -39t15.5 -39t38.5 -16t39 16t16 39t-16 39t-39 16z
M372 873q-85 0 -159.5 -6t-152.5 -23v-119q80 16 152.5 25t153.5 5q31 -1 53 -11.5t36 -26.5t20.5 -36t6.5 -40v-641h117v636q0 116 -59 176.5t-168 60.5z" />
    <glyph glyph-name="saraamthai" unicode="&#xe33;" horiz-adv-x="689" 
d="M-216 938q-30 0 -56 11.5t-45.5 31t-31 45.5t-11.5 56t11.5 56.5t31 46t45.5 31t56 11.5t56.5 -11.5t46.5 -31t31.5 -46t11.5 -56.5t-11.5 -56t-31.5 -45.5t-46.5 -31t-56.5 -11.5zM-216 1137q-23 0 -38.5 -16t-15.5 -39t15.5 -39t38.5 -16t39 16t16 39t-16 39t-39 16z
M372 873q-85 0 -159.5 -6t-152.5 -23v-119q80 16 152.5 25t153.5 5q31 -1 53 -11.5t36 -26.5t20.5 -36t6.5 -40v-641h117v636q0 116 -59 176.5t-168 60.5z" />
    <glyph glyph-name="saraithai" unicode="&#xd4;" 
d="M-90 1000h-615v105h615v-105z" />
    <glyph glyph-name="saraithai" unicode="&#xe34;" 
d="M-90 1000h-615v105h615v-105z" />
    <glyph glyph-name="saraiithai" unicode="&#xd5;" 
d="M-90 1204v-204h-615v105h498v99h117z" />
    <glyph glyph-name="saraiithai" unicode="&#xe35;" 
d="M-90 1204v-204h-615v105h498v99h117z" />
    <glyph glyph-name="sarauethai" unicode="&#xd6;" 
d="M-195 1249q26 0 48.5 -9.5t39.5 -26.5t27 -39.5t10 -48.5t-10 -48.5t-27.5 -39.5t-40.5 -27t-50 -10h-507v105h387q-1 5 -1 10v10q0 26 10 48.5t26.5 39.5t39 26.5t48.5 9.5zM-195 1081q18 0 30.5 13t12.5 31t-12.5 30.5t-30.5 12.5q-17 0 -30 -12.5t-13 -30.5
q0 -17 12.5 -30.5t30.5 -13.5z" />
    <glyph glyph-name="sarauethai" unicode="&#xe36;" 
d="M-195 1249q26 0 48.5 -9.5t39.5 -26.5t27 -39.5t10 -48.5t-10 -48.5t-27.5 -39.5t-40.5 -27t-50 -10h-507v105h387q-1 5 -1 10v10q0 26 10 48.5t26.5 39.5t39 26.5t48.5 9.5zM-195 1081q18 0 30.5 13t12.5 31t-12.5 30.5t-30.5 12.5q-17 0 -30 -12.5t-13 -30.5
q0 -17 12.5 -30.5t30.5 -13.5z" />
    <glyph glyph-name="saraueethai" unicode="&#xd7;" 
d="M-90 1204v-204h-615v105h306v99h116v-99h76v99h117z" />
    <glyph glyph-name="saraueethai" unicode="&#xe37;" 
d="M-90 1204v-204h-615v105h306v99h116v-99h76v99h117z" />
    <glyph glyph-name="sarauthai" unicode="&#xd8;" 
d="M-150 -105q25 0 42.5 -17.5t17.5 -43.5v-235h-116v185h-102v111h158v0z" />
    <glyph glyph-name="sarauthai" unicode="&#xe38;" 
d="M-150 -105q25 0 42.5 -17.5t17.5 -43.5v-235h-116v185h-102v111h158v0z" />
    <glyph glyph-name="sarauuthai" unicode="&#xd9;" 
d="M-90 -265q0 -63 -39 -104.5t-119 -41.5h-35q-80 0 -119 41.5t-39 104.5v49h-69v111h124q26 0 43.5 -17.5t17.5 -43.5v-92q0 -29 16 -39t40 -10h7q24 0 40 10t16 39v153h116v-160z" />
    <glyph glyph-name="sarauuthai" unicode="&#xe39;" 
d="M-90 -265q0 -63 -39 -104.5t-119 -41.5h-35q-80 0 -119 41.5t-39 104.5v49h-69v111h124q26 0 43.5 -17.5t17.5 -43.5v-92q0 -29 16 -39t40 -10h7q24 0 40 10t16 39v153h116v-160z" />
    <glyph glyph-name="phinthuthai" unicode="&#xda;" 
d="M-182 -105q21 0 39.5 -8t32.5 -22t22 -32.5t8 -39.5t-8 -39.5t-22 -32.5t-32.5 -22t-39.5 -8t-39.5 8t-32.5 22t-22 32.5t-8 39.5t8 39.5t22 32.5t32.5 22t39.5 8z" />
    <glyph glyph-name="phinthuthai" unicode="&#xe3a;" 
d="M-182 -105q21 0 39.5 -8t32.5 -22t22 -32.5t8 -39.5t-8 -39.5t-22 -32.5t-32.5 -22t-39.5 -8t-39.5 8t-32.5 22t-22 32.5t-8 39.5t8 39.5t22 32.5t32.5 22t39.5 8z" />
    <glyph glyph-name="nptp3.001march2007p" unicode="&#xdb;" 
 />
    <glyph glyph-name="nptp3.001march2007p" unicode="&#xe3b;" 
 />
    <glyph glyph-name="nptp3.001march2007u" unicode="&#xdc;" 
 />
    <glyph glyph-name="nptp3.001march2007u" unicode="&#xe3c;" 
 />
    <glyph glyph-name="nptp3.001march2007c" unicode="&#xdd;" 
 />
    <glyph glyph-name="nptp3.001march2007c" unicode="&#xe3d;" 
 />
    <glyph glyph-name="nptp3.001march2007r" unicode="&#xe3e;" 
 />
    <glyph glyph-name="bahtthai" unicode="&#xdf;" horiz-adv-x="917" 
d="M486 1237v-113q133 -11 204 -84t71 -202q-2 -72 -32 -131t-94 -104q94 -48 143 -122t49 -186q0 -80 -19 -136t-60.5 -91t-106 -51.5t-155.5 -16.5v-113h-116v113h-260v1126h260v111h116zM486 121q54 0 94.5 4.5t67.5 22.5t41 53t16 96q0 39 -9 73t-31.5 64t-62 56
t-102.5 49l-14 -6v-412zM232 559l138 56v390h-138v-446zM232 121h138v363l-138 -57v-306zM639 838q0 45 -10.5 75.5t-30.5 49.5t-48.5 28t-63.5 12v-341l31 13q39 21 63 42t37 41.5t17.5 40.5t4.5 39z" />
    <glyph glyph-name="bahtthai" unicode="&#xe3f;" horiz-adv-x="917" 
d="M486 1237v-113q133 -11 204 -84t71 -202q-2 -72 -32 -131t-94 -104q94 -48 143 -122t49 -186q0 -80 -19 -136t-60.5 -91t-106 -51.5t-155.5 -16.5v-113h-116v113h-260v1126h260v111h116zM486 121q54 0 94.5 4.5t67.5 22.5t41 53t16 96q0 39 -9 73t-31.5 64t-62 56
t-102.5 49l-14 -6v-412zM232 559l138 56v390h-138v-446zM232 121h138v363l-138 -57v-306zM639 838q0 45 -10.5 75.5t-30.5 49.5t-48.5 28t-63.5 12v-341l31 13q39 21 63 42t37 41.5t17.5 40.5t4.5 39z" />
    <glyph glyph-name="saraethai" unicode="&#xe0;" horiz-adv-x="379" 
d="M339 108v-108h-124q-56 0 -85.5 41.5t-29.5 104.5v720h116v-718q0 -19 8.5 -29.5t21.5 -10.5h93z" />
    <glyph glyph-name="saraethai" unicode="&#xe40;" horiz-adv-x="379" 
d="M339 108v-108h-124q-56 0 -85.5 41.5t-29.5 104.5v720h116v-718q0 -19 8.5 -29.5t21.5 -10.5h93z" />
    <glyph glyph-name="saraaethai" unicode="&#xe1;" horiz-adv-x="727" 
d="M339 108v-108h-124q-56 0 -85.5 41.5t-29.5 104.5v720h116v-718q0 -19 8.5 -29.5t21.5 -10.5h93zM687 108v-108h-124q-56 0 -85.5 41.5t-29.5 104.5v720h116v-718q0 -19 8.5 -29.5t21.5 -10.5h93z" />
    <glyph glyph-name="saraaethai" unicode="&#xe41;" horiz-adv-x="727" 
d="M339 108v-108h-124q-56 0 -85.5 41.5t-29.5 104.5v720h116v-718q0 -19 8.5 -29.5t21.5 -10.5h93zM687 108v-108h-124q-56 0 -85.5 41.5t-29.5 104.5v720h116v-718q0 -19 8.5 -29.5t21.5 -10.5h93z" />
    <glyph glyph-name="saraothai" unicode="&#xe2;" horiz-adv-x="480" 
d="M207 1184q-23 0 -37 -5t-21.5 -13t-10 -18.5t-2.5 -22.5v-42l154 -154v-781q0 -19 8.5 -29.5t21.5 -10.5h93v-108h-124q-56 0 -85.5 41.5t-29.5 104.5v735l-154 153v91q0 40 13.5 72t38 55t59 35.5t76.5 12.5h240v-116h-240z" />
    <glyph glyph-name="saraothai" unicode="&#xe42;" horiz-adv-x="480" 
d="M207 1184q-23 0 -37 -5t-21.5 -13t-10 -18.5t-2.5 -22.5v-42l154 -154v-781q0 -19 8.5 -29.5t21.5 -10.5h93v-108h-124q-56 0 -85.5 41.5t-29.5 104.5v735l-154 153v91q0 40 13.5 72t38 55t59 35.5t76.5 12.5h240v-116h-240z" />
    <glyph glyph-name="saraaimaimuanthai" unicode="&#xe3;" horiz-adv-x="491" 
d="M301 817v-669q0 -19 9 -29.5t22 -10.5h92v-108h-124q-57 0 -86.5 41.5t-29.5 104.5v693l164 238v41q0 13 -4 25.5t-13.5 22.5t-24.5 16.5t-37 6.5h-64q-22 0 -37 -6.5t-24.5 -16.5t-13.5 -22.5t-4 -25.5v-66h-116v66q0 41 14.5 75.5t40.5 59t62 38.5t78 14h64
q42 0 78 -14t62 -38.5t40.5 -59t14.5 -75.5v-59z" />
    <glyph glyph-name="saraaimaimuanthai" unicode="&#xe43;" horiz-adv-x="491" 
d="M301 817v-669q0 -19 9 -29.5t22 -10.5h92v-108h-124q-57 0 -86.5 41.5t-29.5 104.5v693l164 238v41q0 13 -4 25.5t-13.5 22.5t-24.5 16.5t-37 6.5h-64q-22 0 -37 -6.5t-24.5 -16.5t-13.5 -22.5t-4 -25.5v-66h-116v66q0 41 14.5 75.5t40.5 59t62 38.5t78 14h64
q42 0 78 -14t62 -38.5t40.5 -59t14.5 -75.5v-59z" />
    <glyph glyph-name="saraaimaimalaithai" unicode="&#xe4;" horiz-adv-x="471" 
d="M281 148q0 -19 9 -29.5t22 -10.5h93v-108h-125q-56 0 -85.5 41.5t-29.5 104.5v779l131 259h-276v116h414v-79l-153 -311v-762z" />
    <glyph glyph-name="saraaimaimalaithai" unicode="&#xe44;" horiz-adv-x="471" 
d="M281 148q0 -19 9 -29.5t22 -10.5h93v-108h-125q-56 0 -85.5 41.5t-29.5 104.5v779l131 259h-276v116h414v-79l-153 -311v-762z" />
    <glyph glyph-name="lakkhangyaothai" unicode="&#xe5;" horiz-adv-x="689" 
d="M372 873q109 0 168 -60.5t59 -176.5v-936h-117v941q0 20 -6.5 40t-20.5 36t-36 26.5t-53 11.5q-81 4 -153.5 -5t-152.5 -25v119q78 17 152.5 23t159.5 6z" />
    <glyph glyph-name="lakkhangyaothai" unicode="&#xe45;" horiz-adv-x="689" 
d="M372 873q109 0 168 -60.5t59 -176.5v-936h-117v941q0 20 -6.5 40t-20.5 36t-36 26.5t-53 11.5q-81 4 -153.5 -5t-152.5 -25v119q78 17 152.5 23t159.5 6z" />
    <glyph glyph-name="maiyamokthai" unicode="&#xe6;" horiz-adv-x="786" 
d="M511 877q40 0 74 -15.5t59 -44.5t38.5 -71t13.5 -96v-599l-261 -191l-65 94l210 156v540q0 15 -1.5 32.5t-7 33t-16.5 27.5t-29 16l-142 -87l-142 87q-15 -3 -25.5 -13t-17 -24.5t-9 -31.5t-2.5 -34l-1 -81q0 -17 7 -31.5t20 -25.5t29.5 -17.5t35.5 -6.5h94v-116h-94
q-43 0 -81 15.5t-66.5 42.5t-44.5 62.5t-16 76.5l1 83q0 40 10.5 79.5t32.5 70.5t56.5 50t84.5 19h18l110 -74l110 74h17z" />
    <glyph glyph-name="maiyamokthai" unicode="&#xe46;" horiz-adv-x="786" 
d="M511 877q40 0 74 -15.5t59 -44.5t38.5 -71t13.5 -96v-599l-261 -191l-65 94l210 156v540q0 15 -1.5 32.5t-7 33t-16.5 27.5t-29 16l-142 -87l-142 87q-15 -3 -25.5 -13t-17 -24.5t-9 -31.5t-2.5 -34l-1 -81q0 -17 7 -31.5t20 -25.5t29.5 -17.5t35.5 -6.5h94v-116h-94
q-43 0 -81 15.5t-66.5 42.5t-44.5 62.5t-16 76.5l1 83q0 40 10.5 79.5t32.5 70.5t56.5 50t84.5 19h18l110 -74l110 74h17z" />
    <glyph glyph-name="maitaikhuthai" unicode="&#xe7;" 
d="M-472 1221q-9 0 -22 -3t-25.5 -11t-21.5 -22.5t-9 -36.5q0 -18 6.5 -30t16 -19.5t21 -10.5t20.5 -3q54 0 70 63h81q7 -28 25.5 -46t64.5 -18h54v-104h-54q-45 0 -81 13.5t-52 37.5q-18 -27 -42 -39t-66 -12q-32 0 -62.5 12t-54 33.5t-38 52.5t-14.5 70q0 38 13.5 70.5
t37.5 56.5t57.5 37.5t74.5 13.5h306v-105h-306z" />
    <glyph glyph-name="maitaikhuthai" unicode="&#xe47;" 
d="M-472 1221q-9 0 -22 -3t-25.5 -11t-21.5 -22.5t-9 -36.5q0 -18 6.5 -30t16 -19.5t21 -10.5t20.5 -3q54 0 70 63h81q7 -28 25.5 -46t64.5 -18h54v-104h-54q-45 0 -81 13.5t-52 37.5q-18 -27 -42 -39t-66 -12q-32 0 -62.5 12t-54 33.5t-38 52.5t-14.5 70q0 38 13.5 70.5
t37.5 56.5t57.5 37.5t74.5 13.5h306v-105h-306z" />
    <glyph glyph-name="maiekthai" unicode="&#xe8;" 
d="M-90 1280h-116v228h116v-228z" />
    <glyph glyph-name="maiekthai" unicode="&#xe48;" 
d="M-90 1280h-116v228h116v-228z" />
    <glyph glyph-name="maithothai" unicode="&#xe9;" 
d="M-10 1385v-105h-425l9 116h-82v105h202l-9 -116h305z" />
    <glyph glyph-name="maithothai" unicode="&#xe49;" 
d="M-10 1385v-105h-425l9 116h-82v105h202l-9 -116h305z" />
    <glyph glyph-name="maitrithai" unicode="&#xea;" 
d="M-10 1371v-101h-142q-26 0 -40.5 15.5t-14.5 35.5v96q0 22 -8 35t-21 19l-106 -58l-106 58q-13 -3 -21.5 -11.5t-8.5 -39.5q0 -18 8.5 -33.5t26.5 -15.5h67v-101h-70q-39 0 -65.5 11.5t-43 31.5t-24 46t-8.5 56q0 33 8 63t25.5 53.5t46 37t70.5 13.5h15l80 -49l80 49h15
q28 0 55 -12t48 -33.5t34 -51t13 -63.5v-51h87z" />
    <glyph glyph-name="maitrithai" unicode="&#xe4a;" 
d="M-10 1371v-101h-142q-26 0 -40.5 15.5t-14.5 35.5v96q0 22 -8 35t-21 19l-106 -58l-106 58q-13 -3 -21.5 -11.5t-8.5 -39.5q0 -18 8.5 -33.5t26.5 -15.5h67v-101h-70q-39 0 -65.5 11.5t-43 31.5t-24 46t-8.5 56q0 33 8 63t25.5 53.5t46 37t70.5 13.5h15l80 -49l80 49h15
q28 0 55 -12t48 -33.5t34 -51t13 -63.5v-51h87z" />
    <glyph glyph-name="maichattawathai" unicode="&#xeb;" 
d="M15 1344h-105v-69h-116v69h-104v105h104v69h116v-69h105v-105z" />
    <glyph glyph-name="maichattawathai" unicode="&#xe4b;" 
d="M15 1344h-105v-69h-116v69h-104v105h104v69h116v-69h105v-105z" />
    <glyph glyph-name="thanthakhatthai" unicode="&#xec;" 
d="M10 1481v-108l-317 -24v-79h-116v174z" />
    <glyph glyph-name="thanthakhatthai" unicode="&#xe4c;" 
d="M10 1481v-108l-317 -24v-79h-116v174z" />
    <glyph glyph-name="nikhahitthai" unicode="&#xed;" 
d="M-216 938q-30 0 -56 11.5t-45.5 31t-31 45.5t-11.5 56t11.5 56.5t31 46t45.5 31t56 11.5t56.5 -11.5t46.5 -31t31.5 -46t11.5 -56.5t-11.5 -56t-31.5 -45.5t-46.5 -31t-56.5 -11.5zM-216 1137q-23 0 -38.5 -16t-15.5 -39t15.5 -39t38.5 -16t39 16t16 39t-16 39t-39 16z
" />
    <glyph glyph-name="nikhahitthai" unicode="&#xe4d;" 
d="M-216 938q-30 0 -56 11.5t-45.5 31t-31 45.5t-11.5 56t11.5 56.5t31 46t45.5 31t56 11.5t56.5 -11.5t46.5 -31t31.5 -46t11.5 -56.5t-11.5 -56t-31.5 -45.5t-46.5 -31t-56.5 -11.5zM-216 1137q-23 0 -38.5 -16t-15.5 -39t15.5 -39t38.5 -16t39 16t16 39t-16 39t-39 16z
" />
    <glyph glyph-name="yamakkanthai" unicode="&#xee;" horiz-adv-x="1104" 
d="M40 0v1280h1024v-1280h-1024zM1022 32q10 0 10 10v1196q0 10 -10 10h-940q-10 0 -10 -10v-1196q0 -10 10 -10h940z" />
    <glyph glyph-name="yamakkanthai" unicode="&#xe4e;" horiz-adv-x="1104" 
d="M40 0v1280h1024v-1280h-1024zM1022 32q10 0 10 10v1196q0 10 -10 10h-940q-10 0 -10 -10v-1196q0 -10 10 -10h940z" />
    <glyph glyph-name="fongmanthai" unicode="&#xef;" horiz-adv-x="909" 
d="M454 750q75 0 141.5 -28.5t116 -78t78.5 -116t29 -142.5q0 -75 -29 -141.5t-78.5 -116t-116 -78t-141.5 -28.5t-141.5 28.5t-116 78t-78 116t-28.5 141.5q0 76 28.5 142.5t78 116t116 78t141.5 28.5zM454 68q66 0 124 25t101 68t68 101t25 123q0 66 -25 124t-68 101
t-101 68t-124 25t-123.5 -25t-100.5 -68t-68 -101t-25 -124q0 -65 25 -123t68 -101t100.5 -68t123.5 -25zM454 636q52 0 97.5 -19.5t79.5 -53.5t54 -80t20 -98q0 -51 -20 -96.5t-54 -79.5t-79.5 -53.5t-97.5 -19.5q-51 0 -96.5 19.5t-79.5 53.5t-53.5 79.5t-19.5 96.5
q0 52 19.5 98t53.5 80t79.5 53.5t96.5 19.5zM454 183q42 0 79 16t64.5 43.5t43.5 64t16 78.5t-16 79t-43.5 64.5t-64.5 43.5t-79 16t-78.5 -16t-64.5 -43.5t-44 -64.5t-16 -79t16 -78.5t44 -64t64.5 -43.5t78.5 -16z" />
    <glyph glyph-name="fongmanthai" unicode="&#xe4f;" horiz-adv-x="909" 
d="M454 750q75 0 141.5 -28.5t116 -78t78.5 -116t29 -142.5q0 -75 -29 -141.5t-78.5 -116t-116 -78t-141.5 -28.5t-141.5 28.5t-116 78t-78 116t-28.5 141.5q0 76 28.5 142.5t78 116t116 78t141.5 28.5zM454 68q66 0 124 25t101 68t68 101t25 123q0 66 -25 124t-68 101
t-101 68t-124 25t-123.5 -25t-100.5 -68t-68 -101t-25 -124q0 -65 25 -123t68 -101t100.5 -68t123.5 -25zM454 636q52 0 97.5 -19.5t79.5 -53.5t54 -80t20 -98q0 -51 -20 -96.5t-54 -79.5t-79.5 -53.5t-97.5 -19.5q-51 0 -96.5 19.5t-79.5 53.5t-53.5 79.5t-19.5 96.5
q0 52 19.5 98t53.5 80t79.5 53.5t96.5 19.5zM454 183q42 0 79 16t64.5 43.5t43.5 64t16 78.5t-16 79t-43.5 64.5t-64.5 43.5t-79 16t-78.5 -16t-64.5 -43.5t-44 -64.5t-16 -79t16 -78.5t44 -64t64.5 -43.5t78.5 -16z" />
    <glyph glyph-name="zerothai" unicode="&#xf0;" horiz-adv-x="895" 
d="M824 415q4 -201 -89.5 -310.5t-288.5 -109.5q-87 0 -156.5 23t-118 73.5t-75 129.5t-26.5 191q0 202 96.5 310.5t281.5 108.5q86 0 155.5 -23t118 -72.5t75.5 -129t27 -191.5zM447 111q63 0 111.5 14.5t81.5 49t50 93t17 146.5t-17 146t-50 92.5t-81.5 48.5t-111.5 14
t-111.5 -14t-81.5 -48.5t-50 -92.5t-17 -146q0 -89 17 -147t50 -93t81.5 -49t111.5 -14z" />
    <glyph glyph-name="zerothai" unicode="&#xe50;" horiz-adv-x="895" 
d="M824 415q4 -201 -89.5 -310.5t-288.5 -109.5q-87 0 -156.5 23t-118 73.5t-75 129.5t-26.5 191q0 202 96.5 310.5t281.5 108.5q86 0 155.5 -23t118 -72.5t75.5 -129t27 -191.5zM447 111q63 0 111.5 14.5t81.5 49t50 93t17 146.5t-17 146t-50 92.5t-81.5 48.5t-111.5 14
t-111.5 -14t-81.5 -48.5t-50 -92.5t-17 -146q0 -89 17 -147t50 -93t81.5 -49t111.5 -14z" />
    <glyph glyph-name="onethai" unicode="&#xf1;" horiz-adv-x="834" 
d="M407 831q108 0 177.5 -34.5t109.5 -92.5t55 -133.5t15 -156.5q0 -85 -15.5 -161t-58.5 -133.5t-119 -91t-196 -33.5q-26 0 -57.5 2.5t-66.5 6t-71.5 9t-70.5 11.5v119q32 -7 68 -13t71 -10t67.5 -6.5t57.5 -2.5q84 0 138 19t84.5 56.5t42 94.5t11.5 132q0 62 -9 117
t-35 96t-73.5 65t-124.5 24q-106 0 -163.5 -49t-57.5 -141q0 -51 14.5 -84.5t42 -52t68 -23t93.5 2.5v-116q-70 -7 -131 3.5t-106 43t-71 88t-26 137.5q0 70 24 127t68.5 97t106.5 61.5t138 21.5z" />
    <glyph glyph-name="onethai" unicode="&#xe51;" horiz-adv-x="834" 
d="M407 831q108 0 177.5 -34.5t109.5 -92.5t55 -133.5t15 -156.5q0 -85 -15.5 -161t-58.5 -133.5t-119 -91t-196 -33.5q-26 0 -57.5 2.5t-66.5 6t-71.5 9t-70.5 11.5v119q32 -7 68 -13t71 -10t67.5 -6.5t57.5 -2.5q84 0 138 19t84.5 56.5t42 94.5t11.5 132q0 62 -9 117
t-35 96t-73.5 65t-124.5 24q-106 0 -163.5 -49t-57.5 -141q0 -51 14.5 -84.5t42 -52t68 -23t93.5 2.5v-116q-70 -7 -131 3.5t-106 43t-71 88t-26 137.5q0 70 24 127t68.5 97t106.5 61.5t138 21.5z" />
    <glyph glyph-name="twothai" unicode="&#xf2;" horiz-adv-x="1030" 
d="M940 258q0 -60 -23 -108t-66 -81.5t-105 -51t-140 -17.5h-182q-78 0 -140 17.5t-105 51t-66 81.5t-23 108v784h116v-784q0 -72 57.5 -106.5t160.5 -34.5h182q102 0 160 34.5t58 106.5v347q0 16 -0.5 32t-5.5 30.5t-15.5 26.5t-30.5 20l-139 -87l-138 87q-15 -3 -25 -14
t-16 -26t-8.5 -31.5t-2.5 -31.5v-226h-116v228q0 43 11 82.5t33.5 69.5t56.5 48t81 18h18l106 -73l106 73h19q39 0 72 -17t57.5 -46t38.5 -67t14 -80v-363v0z" />
    <glyph glyph-name="twothai" unicode="&#xe52;" horiz-adv-x="1030" 
d="M940 258q0 -60 -23 -108t-66 -81.5t-105 -51t-140 -17.5h-182q-78 0 -140 17.5t-105 51t-66 81.5t-23 108v784h116v-784q0 -72 57.5 -106.5t160.5 -34.5h182q102 0 160 34.5t58 106.5v347q0 16 -0.5 32t-5.5 30.5t-15.5 26.5t-30.5 20l-139 -87l-138 87q-15 -3 -25 -14
t-16 -26t-8.5 -31.5t-2.5 -31.5v-226h-116v228q0 43 11 82.5t33.5 69.5t56.5 48t81 18h18l106 -73l106 73h19q39 0 72 -17t57.5 -46t38.5 -67t14 -80v-363v0z" />
    <glyph glyph-name="threethai" unicode="&#xf3;" horiz-adv-x="938" 
d="M627 831q51 0 92 -17.5t69.5 -48t44 -72t15.5 -88.5v-605h-116v605q0 50 -21 76t-72 34l-175 -84l-176 84q-48 -5 -70.5 -28t-22.5 -76v-353q0 -142 111 -142h112v-116h-112q-41 0 -81.5 13.5t-72.5 44t-52 80t-20 120.5v348q0 49 14.5 90.5t42 71.5t69 46.5t95.5 16.5
h14l149 -77l149 77h14z" />
    <glyph glyph-name="threethai" unicode="&#xe53;" horiz-adv-x="938" 
d="M627 831q51 0 92 -17.5t69.5 -48t44 -72t15.5 -88.5v-605h-116v605q0 50 -21 76t-72 34l-175 -84l-176 84q-48 -5 -70.5 -28t-22.5 -76v-353q0 -142 111 -142h112v-116h-112q-41 0 -81.5 13.5t-72.5 44t-52 80t-20 120.5v348q0 49 14.5 90.5t42 71.5t69 46.5t95.5 16.5
h14l149 -77l149 77h14z" />
    <glyph glyph-name="fourthai" unicode="&#xf4;" horiz-adv-x="928" 
d="M888 829v-116h-432q-74 0 -125.5 -16t-83 -51.5t-46 -92.5t-15.5 -139q1 -81 15.5 -138t46 -92.5t83 -51.5t125.5 -16h83v278q0 40 27.5 67.5t67.5 27.5h147v-115h-108q-8 0 -12.5 -5t-4.5 -13v-240h164v-116h-364q-193 0 -289 99.5t-97 313.5q0 215 97 315.5t289 100.5
h432z" />
    <glyph glyph-name="fourthai" unicode="&#xe54;" horiz-adv-x="928" 
d="M888 829v-116h-432q-74 0 -125.5 -16t-83 -51.5t-46 -92.5t-15.5 -139q1 -81 15.5 -138t46 -92.5t83 -51.5t125.5 -16h83v278q0 40 27.5 67.5t67.5 27.5h147v-115h-108q-8 0 -12.5 -5t-4.5 -13v-240h164v-116h-364q-193 0 -289 99.5t-97 313.5q0 215 97 315.5t289 100.5
h432z" />
    <glyph glyph-name="fivethai" unicode="&#xf5;" horiz-adv-x="928" 
d="M667 859q0 -8 -1 -15t-3 -15h225v-116h-432q-74 0 -125.5 -16t-83.5 -51.5t-46.5 -92.5t-14.5 -139q0 -81 14.5 -137.5t46.5 -92.5t83.5 -52t125.5 -16h82v278q0 40 27.5 67.5t67.5 27.5h148v-115h-109q-7 0 -12 -5t-5 -13v-240h165v-116h-364q-193 0 -289.5 99.5
t-96.5 313.5q0 203 85 303.5t257 111.5q-4 13 -4 31q0 27 10 51t27.5 41.5t41 27.5t50.5 10t50.5 -10t41.5 -27.5t28 -41.5t10 -51zM537 811q19 0 33.5 14t14.5 34t-14 34t-34 14t-34 -14t-14 -34q0 -19 14 -33.5t34 -14.5z" />
    <glyph glyph-name="fivethai" unicode="&#xe55;" horiz-adv-x="928" 
d="M667 859q0 -8 -1 -15t-3 -15h225v-116h-432q-74 0 -125.5 -16t-83.5 -51.5t-46.5 -92.5t-14.5 -139q0 -81 14.5 -137.5t46.5 -92.5t83.5 -52t125.5 -16h82v278q0 40 27.5 67.5t67.5 27.5h148v-115h-109q-7 0 -12 -5t-5 -13v-240h165v-116h-364q-193 0 -289.5 99.5
t-96.5 313.5q0 203 85 303.5t257 111.5q-4 13 -4 31q0 27 10 51t27.5 41.5t41 27.5t50.5 10t50.5 -10t41.5 -27.5t28 -41.5t10 -51zM537 811q19 0 33.5 14t14.5 34t-14 34t-34 14t-34 -14t-14 -34q0 -19 14 -33.5t34 -14.5z" />
    <glyph glyph-name="sixthai" unicode="&#xf6;" horiz-adv-x="906" 
d="M836 416q0 -90 -17.5 -167t-60.5 -133.5t-115 -88.5t-181 -32q-170 0 -253.5 84.5t-83.5 249.5v65q0 40 27.5 67.5t67.5 27.5h147v-115h-108q-8 0 -12.5 -5t-4.5 -13v-41q0 -62 16 -101.5t45 -62.5t69.5 -31.5t89.5 -8.5q81 0 131 20t78.5 59t38.5 95.5t10 128.5
q0 74 -10.5 130.5t-40 94.5t-82.5 57t-138 19q-58 0 -118 -5.5t-127 -19.5l-174 39l25 113l150 -34q62 12 123 17.5t122 5.5q114 0 188 -30t117.5 -84.5t61.5 -131t19 -169.5z" />
    <glyph glyph-name="sixthai" unicode="&#xe56;" horiz-adv-x="906" 
d="M836 416q0 -90 -17.5 -167t-60.5 -133.5t-115 -88.5t-181 -32q-170 0 -253.5 84.5t-83.5 249.5v65q0 40 27.5 67.5t67.5 27.5h147v-115h-108q-8 0 -12.5 -5t-4.5 -13v-41q0 -62 16 -101.5t45 -62.5t69.5 -31.5t89.5 -8.5q81 0 131 20t78.5 59t38.5 95.5t10 128.5
q0 74 -10.5 130.5t-40 94.5t-82.5 57t-138 19q-58 0 -118 -5.5t-127 -19.5l-174 39l25 113l150 -34q62 12 123 17.5t122 5.5q114 0 188 -30t117.5 -84.5t61.5 -131t19 -169.5z" />
    <glyph glyph-name="seventhai" unicode="&#xf7;" horiz-adv-x="1133" 
d="M558 831q51 0 92 -17.5t69.5 -48t44 -72t15.5 -88.5v-447q0 -6 1 -13.5t5.5 -13.5t15 -10.5t30.5 -4.5h44q19 0 30 4.5t15.5 10.5t5.5 13.5t1 13.5v884h116v-884q0 -36 -12 -65t-34.5 -49.5t-53.5 -32t-68 -11.5h-44q-38 0 -69 11.5t-53 32t-34 49.5t-12 65v447
q0 50 -21 76t-72 34l-140 -84l-142 84q-48 -5 -70.5 -28t-22.5 -76v-353q0 -142 111 -142h112v-116h-112q-41 0 -81.5 13.5t-72.5 44t-52 80t-20 120.5v348q0 49 14.5 90.5t42 71.5t69 46.5t95.5 16.5h14l115 -77l114 77h14z" />
    <glyph glyph-name="seventhai" unicode="&#xe57;" horiz-adv-x="1133" 
d="M558 831q51 0 92 -17.5t69.5 -48t44 -72t15.5 -88.5v-447q0 -6 1 -13.5t5.5 -13.5t15 -10.5t30.5 -4.5h44q19 0 30 4.5t15.5 10.5t5.5 13.5t1 13.5v884h116v-884q0 -36 -12 -65t-34.5 -49.5t-53.5 -32t-68 -11.5h-44q-38 0 -69 11.5t-53 32t-34 49.5t-12 65v447
q0 50 -21 76t-72 34l-140 -84l-142 84q-48 -5 -70.5 -28t-22.5 -76v-353q0 -142 111 -142h112v-116h-112q-41 0 -81.5 13.5t-72.5 44t-52 80t-20 120.5v348q0 49 14.5 90.5t42 71.5t69 46.5t95.5 16.5h14l115 -77l114 77h14z" />
    <glyph glyph-name="eightthai" unicode="&#xf8;" horiz-adv-x="928" 
d="M888 829v-116h-432q-75 0 -126.5 -16.5t-83.5 -52.5t-46 -93t-14 -138q0 -73 6.5 -123t17 -82.5t23.5 -50.5t25.5 -26.5t23.5 -11t18 -3.5l156 121l156 -120q20 1 35 12.5t24.5 29t14 39.5t4.5 44v122q0 2 -5 6t-13 4h-108v115h147q40 0 68 -27.5t28 -67.5v-153
q0 -48 -13.5 -91.5t-40 -76.5t-66.5 -53t-93 -20h-19l-119 96l-116 -96h-22q-58 0 -99 19.5t-68.5 51.5t-43.5 74.5t-24 88t-10.5 92t-2.5 87.5q0 216 96 316t290 100h432z" />
    <glyph glyph-name="eightthai" unicode="&#xe58;" horiz-adv-x="928" 
d="M888 829v-116h-432q-75 0 -126.5 -16.5t-83.5 -52.5t-46 -93t-14 -138q0 -73 6.5 -123t17 -82.5t23.5 -50.5t25.5 -26.5t23.5 -11t18 -3.5l156 121l156 -120q20 1 35 12.5t24.5 29t14 39.5t4.5 44v122q0 2 -5 6t-13 4h-108v115h147q40 0 68 -27.5t28 -67.5v-153
q0 -48 -13.5 -91.5t-40 -76.5t-66.5 -53t-93 -20h-19l-119 96l-116 -96h-22q-58 0 -99 19.5t-68.5 51.5t-43.5 74.5t-24 88t-10.5 92t-2.5 87.5q0 216 96 316t290 100h432z" />
    <glyph glyph-name="ninethai" unicode="&#xf9;" horiz-adv-x="918" 
d="M670 713l-127 -134l234 -579h-126l-288 714h-71q-32 0 -51 -10.5t-29 -26.5t-13 -35t-3 -37v-347q0 -142 101 -142h106v-116h-106q-39 0 -78 13.5t-70 44t-50 80t-19 120.5v347q0 48 14 89t41 71t66.5 47t90.5 17h150l54 -131l124 131h268v-116h-218z" />
    <glyph glyph-name="ninethai" unicode="&#xe59;" horiz-adv-x="918" 
d="M670 713l-127 -134l234 -579h-126l-288 714h-71q-32 0 -51 -10.5t-29 -26.5t-13 -35t-3 -37v-347q0 -142 101 -142h106v-116h-106q-39 0 -78 13.5t-70 44t-50 80t-19 120.5v347q0 48 14 89t41 71t66.5 47t90.5 17h150l54 -131l124 131h268v-116h-218z" />
    <glyph glyph-name="angkhankhuthai" unicode="&#xfa;" horiz-adv-x="989" 
d="M176 614q0 -37 14.5 -58t61.5 -21h76l215 183h102v-567l-261 -191l-62 94l207 156v354l-156 -137q-14 -8 -30 -8h-91q-91 0 -141.5 51.5t-50.5 143.5v57q0 92 50.5 143.5t141.5 51.5h41v-116h-41q-47 0 -61.5 -21t-14.5 -58v-57zM763 718h116v-667l-261 -191l-62 94
l207 156v608z" />
    <glyph glyph-name="angkhankhuthai" unicode="&#xe5a;" horiz-adv-x="989" 
d="M176 614q0 -37 14.5 -58t61.5 -21h76l215 183h102v-567l-261 -191l-62 94l207 156v354l-156 -137q-14 -8 -30 -8h-91q-91 0 -141.5 51.5t-50.5 143.5v57q0 92 50.5 143.5t141.5 51.5h41v-116h-41q-47 0 -61.5 -21t-14.5 -58v-57zM763 718h116v-667l-261 -191l-62 94
l207 156v608z" />
    <glyph glyph-name="saraulowthai" unicode="&#xfc;" 
d="M-150 -410q25 0 42.5 -17.5t17.5 -43.5v-195h-116v145h-102v111h158v0z" />
    <glyph glyph-name="saraulowthai" unicode="&#xf718;" 
d="M-150 -410q25 0 42.5 -17.5t17.5 -43.5v-195h-116v145h-102v111h158v0z" />
    <glyph glyph-name="sarauulowthai" unicode="&#xfd;" 
d="M-90 -530q0 -63 -39 -104.5t-119 -41.5h-35q-80 0 -119 41.5t-39 104.5v9h-69v111h124q26 0 43.5 -17.5t17.5 -43.5v-52q0 -29 16 -39t40 -10h7q24 0 40 10t16 39v113h116v-120z" />
    <glyph glyph-name="sarauulowthai" unicode="&#xf719;" 
d="M-90 -530q0 -63 -39 -104.5t-119 -41.5h-35q-80 0 -119 41.5t-39 104.5v9h-69v111h124q26 0 43.5 -17.5t17.5 -43.5v-52q0 -29 16 -39t40 -10h7q24 0 40 10t16 39v113h116v-120z" />
    <glyph glyph-name="phinthulowthai" unicode="&#xfe;" 
d="M-182 -410q21 0 39.5 -8t32.5 -22t22 -32.5t8 -39.5t-8 -39.5t-22 -32.5t-32.5 -22t-39.5 -8t-39.5 8t-32.5 22t-22 32.5t-8 39.5t8 39.5t22 32.5t32.5 22t39.5 8z" />
    <glyph glyph-name="phinthulowthai" unicode="&#xf71a;" 
d="M-182 -410q21 0 39.5 -8t32.5 -22t22 -32.5t8 -39.5t-8 -39.5t-22 -32.5t-32.5 -22t-39.5 -8t-39.5 8t-32.5 22t-22 32.5t-8 39.5t8 39.5t22 32.5t32.5 22t39.5 8z" />
    <glyph glyph-name="Fontcraft" horiz-adv-x="897" 
d="M248 136q0 -4 -0.5 -7.5t-1.5 -8.5q-7 -27 -22.5 -40t-36.5 -13q-25 0 -34 13.5t-9 27.5q0 20 6.5 33.5t16 21.5t20 11t18.5 3q20 0 31.5 -11t11.5 -30zM225 125q3 11 -1.5 20.5t-18.5 9.5q-18 0 -28.5 -15t-10.5 -35q0 -3 3.5 -9.5t17.5 -6.5q29 0 38 36zM421 174
q5 0 8 -3.5t3 -6.5q0 -12 -11 -12h-19l-10 -43v-12q0 -8 4 -8q2 0 5 1t5 1q11 0 11 -10q0 -8 -6.5 -10.5t-12.5 -2.5q-14 0 -21.5 9t-7.5 23q0 3 1 6.5t1 7.5l9 38h-12q-11 0 -11 12q0 10 11 10h16l8 37q0 8 10 8q5 0 8 -4t3 -9l-6 -32h14zM149 164q0 -12 -11 -12h-16
l-16 -75q-4 -21 -17 -31.5t-31 -10.5q-12 0 -12 11q0 8 5.5 9t12 2.5t12.5 5.5t8 18l15 71h-13q-5 0 -8.5 3.5t-3.5 8.5q0 4 3.5 7t8.5 3h17l4 17q3 19 16 30t33 11q4 0 7.5 -3t3.5 -8q0 -9 -5 -9.5t-11.5 -1t-13 -4.5t-9.5 -19l-2 -13h12q11 0 11 -10zM345 158q3 -6 3 -14
q0 -2 -0.5 -3.5t-0.5 -4.5l-13 -59q-3 -10 -11 -10q-5 0 -8 3.5t-3 7.5q0 2 1 3l12 60q0 9 -2.5 11t-4.5 4q-3 0 -14 -3.5t-21 -12.5l-14 -63q-2 -10 -11 -10q-5 0 -7.5 3.5t-2.5 7.5v3l19 87q2 9 10 9q5 0 8 -3t3 -6h1q6 3 12 5.5t12 3.5q6 0 16.5 -2.5t15.5 -16.5z
M836 174q5 0 7.5 -3.5t2.5 -6.5q0 -12 -10 -12h-20l-9 -43q-1 -5 -1 -7v-5q0 -2 0.5 -5t4.5 -3q2 0 5 1t5 1q4 0 7.5 -3t3.5 -8q0 -7 -6 -9.5t-13 -2.5q-11 0 -20 8t-9 24q0 4 2 14l8 38h-31l-15 -75q-4 -18 -16 -30t-33 -12q-11 0 -11 11q0 8 5.5 9.5t12 2t12.5 5t8 18.5
l15 71h-14q-10 0 -10 12q0 10 10 10h19l2 17q1 3 3 10t7.5 14t15 12t24.5 5q10 0 10 -11q0 -7 -5 -8.5t-11 -3t-12.5 -5.5t-9.5 -17l-3 -13h31l4 14q0 8 10 8q11 0 11 -10q0 -1 -0.5 -2.5t-1.5 -9.5h15zM615 166q0 -5 -3.5 -7.5t-8.5 -2.5q-23 0 -27 -24l-12 -56
q-2 -9 -10 -9q-5 0 -8 3.5t-3 7.5v3l11 55q11 41 49 41q5 0 8.5 -3t3.5 -8zM692 88q-17 -19 -45 -19q-15 0 -27 9.5t-9 29.5q3 19 20 24.5t31 7.5h10t10 -1q0 2 0.5 3.5t0.5 3.5q0 5 -3 8t-13 3q-5 0 -14.5 -2.5t-17.5 -2.5q-9 0 -9 6q0 11 16.5 15.5t29.5 4.5q12 0 19 -3.5
t10.5 -8.5t4 -9.5t0.5 -7.5q0 -2 -1 -5.5t-2 -5.5zM678 118q-24 0 -35 -3t-12 -14q0 -6 7.5 -9t15.5 -3t18 4zM543 156q0 -1 0.5 -2.5t0.5 -2.5q0 -4 -2.5 -7.5t-7.5 -3.5q-4 0 -6.5 2.5l-5.5 5.5t-7.5 5.5t-11.5 2.5q-11 0 -23.5 -12t-12.5 -36q0 -19 21 -19q8 0 14 4t12 4
q10 0 10 -12q0 -9 -13.5 -13.5t-22.5 -4.5q-24 0 -33.5 13.5t-9.5 27.5q0 36 19 52.5t39 16.5q17 0 26 -7t14 -14zM448 1063q84 0 158 -31.5t130 -87t88.5 -130t32.5 -159.5q0 -84 -32 -158.5t-87 -130t-130 -87.5t-160 -32q-84 0 -158.5 31.5t-130 87t-87.5 129.5t-32 160
q0 85 32 159t87.5 129.5t130 87.5t158.5 32zM448 322q68 0 128.5 26t106.5 71.5t72.5 106t26.5 129.5q0 51 -14.5 97t-40.5 86l-53 -231q-4 -23 -17.5 -45t-33.5 -39.5t-45 -28t-53 -10.5q-26 0 -48 10.5t-39 28.5q-22 -18 -46 -28.5t-53 -10.5q-26 0 -47 9.5t-35.5 25
t-22.5 35.5t-8 42q0 3 0.5 7.5t2 14t5 26.5l9.5 45q-15 -5 -28.5 8.5t-13.5 28.5q0 17 12 29.5t51 12.5q11 0 23 -2.5t21.5 -8t14.5 -15t3 -24.5l-24 -111q-3 -18 6 -33t31 -15q14 0 26.5 5.5t23 14.5t17.5 20.5t10 23.5l23 111q3 14 13 22t24 8q16 0 26.5 -11.5t10.5 -26.5
q0 -1 -0.5 -4t-3 -14l-7.5 -34.5l-14 -66.5q-3 -18 6 -33t31 -15q12 0 24.5 5t23.5 14t19 20.5t10 24.5l65 284q-44 38 -100 59.5t-119 21.5q-69 0 -129.5 -26t-106 -71.5t-72 -106t-26.5 -129.5t26.5 -129.5t72 -106t106 -71.5t129.5 -26z" />
    <glyph glyph-name="lochula.short" horiz-adv-x="1056" 
d="M883 761l88 -95l-80 -666h-186l-172 579l-172 -579h-187l-104 867h117l91 -758l173 581h164l172 -580l62 519l-106 132l177 214l90 -74z" />
    <glyph glyph-name="saraamleft" horiz-adv-x="689" 
d="M-396 938q-30 0 -56 11.5t-45.5 31t-31 45.5t-11.5 56t11.5 56.5t31 46t45.5 31t56 11.5t56.5 -11.5t46.5 -31t31.5 -46t11.5 -56.5t-11.5 -56t-31.5 -45.5t-46.5 -31t-56.5 -11.5zM-396 1137q-23 0 -38.5 -16t-15.5 -39t15.5 -39t38.5 -16t39 16t16 39t-16 39t-39 16z
M372 873q-85 0 -159.5 -6t-152.5 -23v-119q80 16 152.5 25t153.5 5q31 -1 53 -11.5t36 -26.5t20.5 -36t6.5 -40v-641h117v636q0 116 -59 176.5t-168 60.5z" />
    <glyph glyph-name="uni25CC" unicode="&#x25cc;" horiz-adv-x="1069" 
d="M536 95q19 0 34 -14t15 -34q0 -19 -15 -33t-34 -14q-20 0 -33.5 14t-13.5 33q0 20 13.5 34t33.5 14zM914 477q21 0 35 -14t14 -33q0 -21 -13 -35.5t-36 -14.5q-19 0 -32.5 14.5t-13.5 35.5q0 19 13.5 33t32.5 14zM155 477q17 0 32 -14t15 -33q0 -21 -14 -35.5t-33 -14.5
q-20 0 -34.5 14.5t-14.5 35.5q0 19 14.5 33t34.5 14zM536 857q19 0 34 -13.5t15 -33.5q0 -19 -15 -32.5t-34 -13.5q-20 0 -33.5 13.5t-13.5 32.5q0 20 13.5 33.5t33.5 13.5zM268 744q21 0 35 -13t14 -36q0 -20 -14 -33.5t-35 -13.5q-19 0 -33 13.5t-14 33.5q0 23 14 36
t33 13zM803 744q18 0 32.5 -13t14.5 -36q0 -20 -13.5 -33.5t-33.5 -13.5t-34.5 13.5t-14.5 33.5q0 23 14.5 36t34.5 13zM803 209q18 0 32.5 -13.5t14.5 -33.5t-13.5 -33.5t-33.5 -13.5t-34.5 13.5t-14.5 33.5t14.5 33.5t34.5 13.5zM268 209q21 0 35 -13.5t14 -33.5
t-14 -33.5t-35 -13.5q-19 0 -33 13.5t-14 33.5t14 33.5t33 13.5z" />
    <glyph glyph-name="yamakkanleftthai" 
d="M256 0v1280h1024v-1280h-1024zM1238 32q10 0 10 10v1196q0 10 -10 10h-940q-10 0 -10 -10v-1196q0 -10 10 -10h940z" />
    <glyph glyph-name="ZWSP" unicode="&#x200b;" 
 />
    <glyph glyph-name="khomutthai" unicode="&#xe5b;" horiz-adv-x="1104" 
d="M40 0v1280h1024v-1280h-1024zM1022 32q10 0 10 10v1196q0 10 -10 10h-940q-10 0 -10 -10v-1196q0 -10 10 -10h940z" />
    <glyph glyph-name="yoyingthai" unicode="&#xad;" horiz-adv-x="1272" 
d="M794 0q-47 0 -81.5 17.5t-57 47.5t-33.5 70t-11 85v407q0 20 -8.5 42t-27.5 41t-50.5 32t-77.5 15q-35 1 -62 1t-54 -2t-58.5 -6.5t-75.5 -11.5l16 -173v-384q0 -41 12.5 -53t38.5 -12h95v-116h-95q-78 0 -122.5 47.5t-44.5 133.5v382l-17 271l97.5 18t90.5 13.5t92 7.5
t102 0q52 -2 100 -19.5t85 -49.5t58.5 -76.5t21.5 -100.5v-407q0 -39 7.5 -60t18 -31t22 -11.5t19.5 -1.5h97l174 82v668h116l1 -917q0 -57 -22.5 -100.5t-60.5 -73t-88 -45.5t-104 -18q-70 -3 -139.5 2.5t-143.5 17.5v119q65 -12 131 -18.5t148 -3.5q46 2 77 13.5t50 28.5
t27 37.5t8 40.5v121l-137 -64q-11 -6 -24 -6h-110v0z" />
    <glyph glyph-name="yoyingthai" unicode="&#xe0d;" horiz-adv-x="1272" 
d="M794 0q-47 0 -81.5 17.5t-57 47.5t-33.5 70t-11 85v407q0 20 -8.5 42t-27.5 41t-50.5 32t-77.5 15q-35 1 -62 1t-54 -2t-58.5 -6.5t-75.5 -11.5l16 -173v-384q0 -41 12.5 -53t38.5 -12h95v-116h-95q-78 0 -122.5 47.5t-44.5 133.5v382l-17 271l97.5 18t90.5 13.5t92 7.5
t102 0q52 -2 100 -19.5t85 -49.5t58.5 -76.5t21.5 -100.5v-407q0 -39 7.5 -60t18 -31t22 -11.5t19.5 -1.5h97l174 82v668h116l1 -917q0 -57 -22.5 -100.5t-60.5 -73t-88 -45.5t-104 -18q-70 -3 -139.5 2.5t-143.5 17.5v119q65 -12 131 -18.5t148 -3.5q46 2 77 13.5t50 28.5
t27 37.5t8 40.5v121l-137 -64q-11 -6 -24 -6h-110v0z" />
    <glyph glyph-name="yoyingthai" unicode="&#xde;" horiz-adv-x="1272" 
d="M794 0q-47 0 -81.5 17.5t-57 47.5t-33.5 70t-11 85v407q0 20 -8.5 42t-27.5 41t-50.5 32t-77.5 15q-35 1 -62 1t-54 -2t-58.5 -6.5t-75.5 -11.5l16 -173v-384q0 -41 12.5 -53t38.5 -12h95v-116h-95q-78 0 -122.5 47.5t-44.5 133.5v382l-17 271l97.5 18t90.5 13.5t92 7.5
t102 0q52 -2 100 -19.5t85 -49.5t58.5 -76.5t21.5 -100.5v-407q0 -39 7.5 -60t18 -31t22 -11.5t19.5 -1.5h97l174 82v668h116l1 -917q0 -57 -22.5 -100.5t-60.5 -73t-88 -45.5t-104 -18q-70 -3 -139.5 2.5t-143.5 17.5v119q65 -12 131 -18.5t148 -3.5q46 2 77 13.5t50 28.5
t27 37.5t8 40.5v121l-137 -64q-11 -6 -24 -6h-110v0z" />
    </font>
</defs>
</svg>
